<?xml version="1.0" standalone="no"?>
<!DOCTYPE svg PUBLIC "-//W3C//DTD SVG 20010904//EN"
 "http://www.w3.org/TR/2001/REC-SVG-20010904/DTD/svg10.dtd">
<svg version="1.0" xmlns="http://www.w3.org/2000/svg"
 width="998.000000pt" height="455.000000pt" viewBox="0 0 998.000000 455.000000"
 preserveAspectRatio="xMidYMid meet">

<g transform="translate(0.000000,455.000000) scale(0.100000,-0.100000)"
fill="#000000" stroke="none">
<path d="M2105 3534 c-159 -14 -311 -52 -472 -115 -28 -12 -34 -11 -53 6 -33
30 -93 26 -128 -8 -22 -23 -27 -36 -26 -75 0 -47 -1 -48 -59 -92 -223 -169
-400 -462 -464 -770 -21 -102 -24 -375 -5 -458 l12 -53 -35 -33 c-27 -26 -35
-41 -35 -70 0 -51 45 -100 92 -100 33 0 36 -3 75 -85 153 -321 432 -567 767
-676 156 -50 223 -60 411 -60 176 1 270 14 392 56 l55 19 30 -25 c41 -35 88
-33 130 4 25 23 32 37 33 69 1 39 3 42 80 93 99 65 285 250 347 345 97 147
163 302 200 474 31 138 30 375 -1 519 -24 115 -73 250 -126 349 -31 59 -33 67
-20 86 23 32 19 90 -9 123 -21 24 -31 28 -79 28 -51 0 -58 3 -86 35 -40 48
-176 163 -242 206 -135 88 -317 160 -479 188 -91 16 -240 26 -305 20z m313
-40 c255 -53 464 -161 646 -335 l90 -86 -17 -35 c-21 -44 -21 -52 -1 -93 18
-40 61 -60 109 -52 l35 6 45 -92 c96 -200 130 -347 129 -572 0 -169 -17 -275
-65 -415 -52 -152 -159 -331 -273 -456 -63 -68 -206 -185 -272 -220 -31 -17
-33 -17 -59 4 -62 49 -143 13 -154 -68 l-6 -44 -70 -22 c-289 -90 -634 -67
-914 62 -259 119 -511 371 -622 621 l-32 72 27 31 c30 36 33 68 11 110 -17 32
-43 50 -73 50 -25 0 -28 7 -42 125 -30 235 16 507 122 720 77 154 239 352 360
441 45 33 49 35 70 20 34 -24 92 -20 124 8 21 17 29 36 33 71 l6 48 81 32 c97
39 230 73 333 85 100 11 284 4 379 -16z"/>
<path d="M1450 2735 l-114 -115 179 1 c99 0 192 0 207 0 l28 -1 2 -497 3 -498
119 -3 c89 -2 122 1 128 10 5 7 7 233 6 502 l-3 490 395 -2 395 -2 115 115
115 115 -730 0 -730 0 -115 -115z"/>
<path d="M1395 2422 c33 -32 90 -89 128 -126 l67 -67 0 125 0 126 -127 0 -128
0 60 -58z"/>
<path d="M2160 2056 l0 -424 143 -7 c78 -4 215 -5 305 -3 l162 3 127 128 128
127 -303 0 -302 0 0 175 0 175 302 0 303 0 -125 125 -125 125 -307 0 -308 0 0
-424z"/>
<path d="M1340 2022 l0 -147 125 -125 125 -125 0 273 0 272 -125 0 -125 0 0
-148z"/>
<path d="M3897 2883 c-4 -3 -7 -125 -7 -270 l0 -263 55 0 55 0 0 270 0 270
-48 0 c-27 0 -52 -3 -55 -7z"/>
<path d="M4120 2619 l0 -271 158 3 c143 4 161 6 207 29 76 38 89 69 93 215 4
133 -5 186 -41 227 -43 50 -87 61 -259 65 l-158 4 0 -272z m279 180 c50 -18
61 -51 61 -188 0 -112 -2 -122 -24 -148 -23 -26 -30 -28 -115 -31 l-91 -4 0
191 0 191 69 0 c37 0 82 -5 100 -11z"/>
<path d="M4697 2883 c-4 -3 -7 -125 -7 -270 l0 -263 185 0 185 0 0 40 0 39
-127 3 -128 3 -3 72 -3 72 123 3 122 3 1 35 0 35 -123 3 -123 3 3 72 3 72 128
3 127 3 0 33 c0 22 -6 36 -16 40 -21 8 -339 8 -347 -1z"/>
<path d="M5309 2882 c-9 -2 -44 -92 -98 -255 -46 -139 -86 -258 -89 -264 -3
-10 12 -13 55 -13 l60 0 18 60 18 60 118 0 117 0 19 -57 20 -58 56 -3 c33 -2
57 1 57 7 0 13 -168 513 -175 519 -5 6 -152 9 -176 4z m126 -184 c19 -62 38
-121 41 -130 5 -16 -3 -18 -80 -18 -64 0 -86 3 -86 13 0 7 16 60 35 118 44
131 43 129 49 129 3 0 21 -51 41 -112z"/>
<path d="M5750 2620 l0 -270 165 0 165 0 0 40 0 40 -110 0 -110 0 0 228 0 227
-55 3 -55 2 0 -270z"/>
<path d="M6313 2883 c-7 -2 -13 -11 -13 -19 0 -11 17 -14 75 -14 71 0 75 -1
75 -22 1 -13 2 -124 3 -248 l2 -225 25 0 25 0 2 225 c1 124 2 235 3 248 0 21
4 22 75 22 57 0 75 3 75 14 0 8 -7 17 -16 20 -19 7 -313 7 -331 -1z"/>
<path d="M6838 2878 c-9 -7 -54 -121 -101 -253 -47 -132 -88 -248 -92 -257 -6
-14 -2 -18 18 -18 25 0 40 27 71 128 7 21 11 22 136 22 l128 0 27 -75 c24 -64
31 -75 51 -75 13 0 24 2 24 3 0 5 -167 473 -181 510 -13 30 -52 37 -81 15z
m106 -224 c20 -56 36 -106 36 -113 0 -7 -35 -11 -110 -11 -60 0 -110 4 -110 9
0 8 74 221 100 286 l12 30 18 -50 c10 -27 34 -96 54 -151z"/>
<path d="M7216 2883 c-3 -4 -6 -125 -6 -270 l0 -263 140 0 c133 0 140 1 140
20 0 19 -7 20 -115 20 l-115 0 0 248 c0 236 -1 248 -19 249 -10 1 -22 -1 -25
-4z"/>
<path d="M7570 2620 l0 -271 157 3 c141 3 158 5 161 21 3 15 -8 17 -132 17
l-136 0 0 105 0 105 126 0 c114 0 125 2 122 18 -3 15 -17 17 -126 17 l-122 0
0 108 0 107 130 0 c123 0 130 1 130 20 0 19 -7 20 -155 20 l-155 0 0 -270z"/>
<path d="M8013 2883 c-10 -3 -13 -67 -13 -269 l0 -264 25 0 25 0 2 232 3 232
147 -229 c135 -213 148 -230 177 -233 l31 -3 -2 268 -3 268 -22 3 -23 3 -2
-233 -3 -233 -69 110 c-38 61 -83 133 -101 160 -17 28 -49 77 -70 110 -51 80
-67 93 -102 78z"/>
<path d="M8490 2868 c0 -16 9 -18 75 -18 65 0 75 -2 76 -17 0 -10 0 -123 -1
-251 l-1 -233 28 3 28 3 2 245 2 245 75 3 c56 2 76 6 76 16 0 23 -23 25 -195
24 -153 -1 -165 -2 -165 -20z"/>
<path d="M4000 2114 c-46 -20 -77 -50 -102 -98 -17 -33 -19 -54 -16 -170 3
-122 5 -134 30 -172 39 -61 101 -88 197 -87 125 1 208 56 227 150 l6 31 -52 3
-52 4 -20 -41 c-22 -49 -56 -69 -110 -68 -88 3 -122 64 -116 214 3 80 7 101
26 127 25 35 73 54 118 46 35 -7 84 -50 84 -74 0 -26 14 -31 70 -23 49 6 51 8
45 33 -10 41 -57 94 -105 119 -54 27 -174 30 -230 6z"/>
<path d="M4543 2106 c-36 -17 -60 -38 -80 -67 -26 -40 -28 -50 -31 -165 -3
-105 -1 -129 16 -167 51 -115 227 -158 370 -90 78 37 104 86 110 212 6 128
-12 194 -67 244 -48 44 -93 57 -191 57 -58 0 -87 -6 -127 -24z m207 -69 c44
-22 60 -70 60 -183 0 -89 -3 -105 -23 -135 -38 -56 -116 -70 -188 -34 -40 21
-54 67 -54 175 0 107 12 148 53 173 32 20 116 22 152 4z"/>
<path d="M5030 1860 l0 -270 55 0 55 0 0 180 c0 99 3 180 8 179 4 0 59 -81
122 -179 l115 -180 68 0 67 0 0 270 0 270 -47 0 c-27 0 -54 -4 -60 -8 -9 -6
-13 -58 -15 -182 l-3 -174 -115 176 c-71 109 -122 179 -135 182 -11 3 -41 6
-67 6 l-48 0 0 -270z"/>
<path d="M5647 2123 c-4 -3 -7 -125 -7 -270 l0 -263 55 0 55 0 0 180 c0 99 3
180 8 179 4 0 59 -81 122 -180 l115 -179 67 0 68 0 0 264 c0 297 7 273 -77
275 l-43 1 -2 -182 -3 -182 -114 175 c-63 96 -119 177 -125 181 -14 10 -110
10 -119 1z"/>
<path d="M6250 1860 l0 -270 185 0 185 0 0 40 0 39 -127 3 -128 3 -3 73 -3 72
121 0 c89 0 120 3 121 13 0 6 2 24 4 40 l4 27 -125 0 -124 0 0 75 0 75 131 0
130 0 -3 38 -3 37 -182 2 -183 3 0 -270z"/>
<path d="M6820 2114 c-46 -20 -77 -50 -102 -98 -18 -34 -19 -54 -16 -171 3
-123 5 -134 30 -172 39 -59 98 -85 197 -85 63 0 90 5 126 22 50 24 91 75 101
128 6 32 6 32 -34 32 -22 0 -47 3 -55 6 -11 4 -17 -3 -22 -25 -15 -69 -91
-106 -159 -77 -60 25 -71 54 -71 186 0 104 2 118 23 147 27 39 77 55 126 42
38 -10 60 -32 75 -72 11 -28 13 -29 64 -22 28 4 53 8 55 10 2 1 0 14 -3 27
-10 39 -65 99 -109 119 -52 23 -175 25 -226 3z"/>
<path d="M7210 2090 l0 -39 71 -3 72 -3 -2 -227 -2 -228 60 0 61 0 0 230 0
230 75 0 c81 0 83 2 69 58 -6 22 -7 22 -205 22 l-199 -1 0 -39z"/>
</g>
</svg>
