<?xml version="1.0" encoding="UTF-8"?>
<svg version="1.1" xmlns="http://www.w3.org/2000/svg" width="721" height="346">
<path d="M0 0 C0.33 0.33 0.66 0.66 1 1 C0.92922963 3.67640669 0.79216308 6.32874955 0.625 9 C-0.0223416 20.59775937 -0.2932536 32.20121787 -0.5625 43.8125 C-0.59558258 45.22776978 -0.59558258 45.22776978 -0.6293335 46.67163086 C-0.75614748 52.11435003 -0.87952954 57.55713687 -1 63 C-3.475 63.495 -3.475 63.495 -6 64 C-6.35191406 62.79085937 -6.70382812 61.58171875 -7.06640625 60.3359375 C-12.64843431 41.61204495 -20.18380253 23.25486047 -38 13 C-49.79385303 7.1451343 -61.55018935 4.43623661 -74.6875 4.5625 C-75.8223584 4.57152344 -76.9572168 4.58054687 -78.12646484 4.58984375 C-99.70774692 5.03096577 -118.09837532 12.36796151 -133.6171875 27.5625 C-139.32931313 33.52887454 -143.51834038 39.52436447 -147 47 C-147.43957031 47.91136719 -147.87914062 48.82273438 -148.33203125 49.76171875 C-161.00507093 77.82618426 -160.73899794 113.64669864 -150.49609375 142.30859375 C-142.85383639 161.16481621 -131.13150446 175.62573361 -112.25 184.3125 C-104.96126992 187.26327301 -97.74515882 188.78900216 -90 190 C-88.85015625 190.18433594 -87.7003125 190.36867188 -86.515625 190.55859375 C-59.98606547 193.88952734 -34.64854358 185.74071706 -13.38671875 169.96875 C-10.46444291 167.55823114 -8.31219148 164.98347288 -6 162 C-5.34 162 -4.68 162 -4 162 C-3.67 161.01 -3.34 160.02 -3 159 C-1.35 159 0.3 159 2 159 C2.38518391 165.93331046 0.95735686 172.46845328 -0.375 179.25 C-0.59671875 180.43335938 -0.8184375 181.61671875 -1.046875 182.8359375 C-1.37558594 184.53363281 -1.37558594 184.53363281 -1.7109375 186.265625 C-1.90993652 187.29461914 -2.10893555 188.32361328 -2.31396484 189.38378906 C-3 192 -3 192 -5 195 C-6.88500977 195.91967773 -6.88500977 195.91967773 -9.19140625 196.68359375 C-10.04508789 196.96952393 -10.89876953 197.2554541 -11.77832031 197.55004883 C-12.69709961 197.84290771 -13.61587891 198.1357666 -14.5625 198.4375 C-15.50834961 198.74389404 -16.45419922 199.05028809 -17.42871094 199.3659668 C-50.19322919 209.78327621 -85.18183759 212.39085426 -118 201 C-118.93972656 200.6803125 -119.87945313 200.360625 -120.84765625 200.03125 C-139.35245157 193.22758516 -154.59812186 178.01684962 -164 161 C-164.53753906 160.06607422 -164.53753906 160.06607422 -165.0859375 159.11328125 C-175.11057728 140.6278455 -177.23353177 119.19245196 -177.25 98.5625 C-177.25067474 97.80366516 -177.25134949 97.04483032 -177.25204468 96.26300049 C-177.23601606 84.91743604 -176.80460889 74.03749305 -174 63 C-173.83371094 62.33484375 -173.66742188 61.6696875 -173.49609375 60.984375 C-170.22237938 48.27751331 -164.83849034 35.59255451 -157 25 C-156.34 25 -155.68 25 -155 25 C-154.75894531 24.43667969 -154.51789063 23.87335938 -154.26953125 23.29296875 C-145.06882678 6.67508099 -123.05624388 -2.91143574 -105.703125 -7.96875 C-71.69291873 -17.43994668 -32.70067993 -12.28622186 0 0 Z " fill="#1B2B56" transform="translate(655,75)"/>
<path d="M0 0 C3.96 0 7.92 0 12 0 C12 44.88 12 89.76 12 136 C-133.53 136 -279.06 136 -429 136 C-429 132.04 -429 128.08 -429 124 C-287.43 124 -145.86 124 0 124 C0 83.08 0 42.16 0 0 Z " fill="#F5B93E" transform="translate(709,210)"/>
<path d="M0 0 C145.53 0 291.06 0 441 0 C441 3.96 441 7.92 441 12 C299.43 12 157.86 12 12 12 C12 52.92 12 93.84 12 136 C8.04 136 4.08 136 0 136 C0 91.12 0 46.24 0 0 Z " fill="#F5B93E" transform="translate(0,0)"/>
<path d="M0 0 C0.14346613 11.19035825 -0.0627956 22.36807807 -0.37332153 33.55377197 C-0.41605655 35.09942633 -0.45729956 36.64512268 -0.49703979 38.19085693 C-0.55450346 40.39562977 -0.61812842 42.60013937 -0.68359375 44.8046875 C-0.72025146 46.09358887 -0.75690918 47.38249023 -0.79467773 48.71044922 C-0.95784473 51.32461339 -1.23006679 53.51445048 -2 56 C-3.98 56 -5.96 56 -8 56 C-8.09796875 55.18917969 -8.1959375 54.37835938 -8.296875 53.54296875 C-9.71832121 43.01691446 -11.49846194 32.20269197 -20 25 C-29.21075258 18.68745836 -40.46461911 18.69188778 -51.2265625 18.5859375 C-52.45539154 18.56657135 -53.68422058 18.5472052 -54.95028687 18.5272522 C-58.84178921 18.46788605 -62.73332184 18.42124348 -66.625 18.375 C-69.27735603 18.33678068 -71.92970018 18.2977267 -74.58203125 18.2578125 C-81.0545813 18.16222011 -87.52720406 18.0770491 -94 18 C-93.91589755 37.83738284 -93.82069059 57.67468326 -93.71247292 77.51194954 C-93.66247444 86.72393276 -93.61603069 95.93590765 -93.578125 105.14794922 C-93.54505494 113.18257535 -93.50514227 121.21713428 -93.45720994 129.25168598 C-93.43209329 133.50098968 -93.41026932 137.75024967 -93.39665604 141.99960709 C-93.38369963 146.01003985 -93.3615034 150.02032152 -93.33261681 154.03067017 C-93.32364591 155.49219998 -93.31787578 156.95375405 -93.31578636 158.41530991 C-93.28718036 175.40596176 -92.45547904 192.28642942 -80.1171875 205.16015625 C-77.01254939 207.85809823 -73.81632372 209.52717571 -70 211 C-69.01 211.4125 -68.02 211.825 -67 212.25 C-66.34 212.4975 -65.68 212.745 -65 213 C-65 214.32 -65 215.64 -65 217 C-80.68084465 217 -96.3446942 215.8945889 -112 215 C-112 145.04 -112 75.08 -112 3 C-68.44 2.505 -68.44 2.505 -24 2 C-2 0 -2 0 0 0 Z " fill="#F4B93F" transform="translate(431,64)"/>
<path d="M0 0 C11.22 0.66 22.44 1.32 34 2 C72.115 2.495 72.115 2.495 111 3 C111 72.96 111 142.92 111 215 C101.76 215.33 92.52 215.66 83 216 C80.03 216.33 77.06 216.66 74 217 C70.98750529 217.10330915 68.01600414 217.04787308 65 217 C65 215.35 65 213.7 65 212 C65.64066406 211.76925781 66.28132813 211.53851563 66.94140625 211.30078125 C75.46893747 208.08548259 83.08017989 204.35680393 87.05859375 195.6953125 C91.85531373 183.57173452 92.30073006 171.0814865 92.31884766 158.20385742 C92.32817002 156.66500841 92.33834203 155.12616436 92.34928894 153.58732605 C92.37634319 149.45187454 92.39166448 145.3164566 92.40471697 141.18094039 C92.42045634 136.84343266 92.44721148 132.50599245 92.4727478 128.16853333 C92.51934577 119.97373705 92.55618112 111.7789278 92.58942068 103.58406764 C92.62777703 94.24653788 92.67715133 84.90907626 92.72740483 75.57160413 C92.830442 56.38111943 92.91979324 37.19059303 93 18 C85.33225 18.08474518 77.66468381 18.17975786 69.99722385 18.28752708 C66.436095 18.33726504 62.87499262 18.383595 59.3137207 18.421875 C55.21026779 18.46613755 51.10715589 18.52569303 47.00390625 18.5859375 C45.73793106 18.59748871 44.47195587 18.60903992 43.1676178 18.62094116 C29.19632079 18.82333465 29.19632079 18.82333465 17 25 C9.48677014 33.99420305 6.21470073 44.93664163 3 56 C1.02 56 -0.96 56 -3 56 C-3.2311115 46.69134228 -2.87386572 37.70624164 -1.78613281 28.46435547 C-0.70426115 18.99509085 -0.38341288 9.52141997 0 0 Z " fill="#F4B93F" transform="translate(195,64)"/>
<path d="M0 0 C0 1.65 0 3.3 0 5 C-0.56847656 5.23074219 -1.13695312 5.46148437 -1.72265625 5.69921875 C-11.553701 9.85156319 -17.4494287 14.04130293 -22 24 C-25.68481887 35.01144315 -26.14993743 46.10485308 -26.16113281 57.60961914 C-26.16609772 58.8434433 -26.17106262 60.07726746 -26.17617798 61.34848022 C-26.18821676 64.71050042 -26.19572659 68.072459 -26.20018864 71.4344933 C-26.20313706 73.54378407 -26.20724508 75.65306961 -26.21169281 77.76235771 C-26.22534179 84.38743723 -26.23502046 91.01250456 -26.2388947 97.63759714 C-26.24336571 105.23748342 -26.26087992 112.83718897 -26.2898953 120.43702036 C-26.31164696 126.34313913 -26.32160615 132.24920756 -26.32293582 138.15536588 C-26.32397449 141.66802581 -26.32967846 145.18051531 -26.34775543 148.6931324 C-27.48789205 177.18233227 -27.48789205 177.18233227 -15.9921875 202.2421875 C-11.18063454 206.81903056 -6.23439439 209.7597448 0 212 C0 213.65 0 215.3 0 217 C-0.81855469 216.93941406 -1.63710937 216.87882813 -2.48046875 216.81640625 C-16.66268827 215.84502135 -30.75854094 215.4910848 -45 215 C-45 145.04 -45 75.08 -45 3 C-34.77 2.34 -24.54 1.68 -14 1 C-3 0 -3 0 0 0 Z " fill="#1B2B56" transform="translate(167,64)"/>
<path d="M0 0 C22.275 1.485 22.275 1.485 45 3 C45 72.96 45 142.92 45 215 C37.08 215.33 29.16 215.66 21 216 C17.7 216.33 14.4 216.66 11 217 C8.9590773 217.05891809 6.91660518 217.08867443 4.875 217.0625 C3.94429688 217.05347656 3.01359375 217.04445313 2.0546875 217.03515625 C1.37664062 217.02355469 0.69859375 217.01195312 0 217 C0.13671875 214.69921875 0.13671875 214.69921875 1 212 C3.58203125 210.26953125 3.58203125 210.26953125 6.8125 208.8125 C8.39998047 208.07966797 8.39998047 208.07966797 10.01953125 207.33203125 C11.49486328 206.67267578 11.49486328 206.67267578 13 206 C16.22343986 204.69131938 16.22343986 204.69131938 18 201.875 C18.33 200.92625 18.66 199.9775 19 199 C19.639375 197.88625 20.27875 196.7725 20.9375 195.625 C27.43874828 182.76805377 27.15141555 166.11631895 27.14526367 152.04370117 C27.14862228 150.91512192 27.1519809 149.78654266 27.15544128 148.62376404 C27.164862 144.9301541 27.16688979 141.23658992 27.16796875 137.54296875 C27.17118713 134.9504647 27.17455163 132.35796083 27.17805481 129.76545715 C27.18402362 124.34485373 27.18594015 118.92426816 27.18530273 113.50366211 C27.18470261 107.2768498 27.19525149 101.05012429 27.2110464 94.82333392 C27.22580191 88.78667166 27.22928801 82.75005583 27.22869301 76.71337318 C27.22986537 74.16634072 27.2342449 71.61930746 27.24202538 69.07228661 C28.16182582 40.023967 28.16182582 40.023967 17 14 C16.34 13.67 15.68 13.34 15 13 C15 12.34 15 11.68 15 11 C14.28457031 10.71382812 13.56914063 10.42765625 12.83203125 10.1328125 C8.5546875 8.421875 4.27734375 6.7109375 0 5 C0 3.35 0 1.7 0 0 Z " fill="#1A2A55" transform="translate(63,64)"/>
<path d="M0 0 C-1.70304214 3.5711751 -3.72747852 6.91419356 -5.75 10.3125 C-24.58203987 42.91728969 -26.7800137 85.95663275 -17.1875 121.94140625 C-12.99601167 136.64347637 -7.07955913 149.34550976 3 161 C3 161.66 3 162.32 3 163 C3.66 163 4.32 163 5 163 C5 163.66 5 164.32 5 165 C-4.52156306 163.53770061 -12.53687298 155.74647914 -19 149 C-19 148.34 -19 147.68 -19 147 C-19.66 147 -20.32 147 -21 147 C-30.18001464 135.28927863 -36.77215144 120.42338646 -40 106 C-40.22429687 105.06027344 -40.44859375 104.12054688 -40.6796875 103.15234375 C-45.27477617 79.76774865 -42.26530851 55.72147581 -33 34 C-32.5978125 33.05253906 -32.195625 32.10507813 -31.78125 31.12890625 C-27.08869685 20.96699216 -12.71893561 0 0 0 Z " fill="#1C2C56" transform="translate(487,95)"/>
<path d="M0 0 C0.66 0 1.32 0 2 0 C2 69.3 2 138.6 2 210 C5.96 210 9.92 210 14 210 C14.66 210.66 15.32 211.32 16 212 C10.72 212 5.44 212 0 212 C0 142.04 0 72.08 0 0 Z " fill="#ECBF67" transform="translate(319,67)"/>
<path d="M0 0 C0.99 0.33 1.98 0.66 3 1 C2.01 1.33 1.02 1.66 0 2 C0 1.34 0 0.68 0 0 Z M-1 2 C-0.67 3.32 -0.34 4.64 0 6 C0.66 6 1.32 6 2 6 C2 6.66 2 7.32 2 8 C4.31 6.35 6.62 4.7 9 3 C9.38671875 3.59167969 9.7734375 4.18335938 10.171875 4.79296875 C12.47189066 8.28284399 14.74499051 11.68459352 17.375 14.9375 C19 17 19 17 19 19 C19.66 19 20.32 19 21 19 C21 19.66 21 20.32 21 21 C11.47843694 19.53770061 3.46312702 11.74647914 -3 5 C-3 4.34 -3 3.68 -3 3 C-2.34 2.67 -1.68 2.34 -1 2 Z " fill="#213057" transform="translate(471,239)"/>
<path d="M0 0 C11.22 0.66 22.44 1.32 34 2 C34 2.33 34 2.66 34 3 C23.44 3 12.88 3 2 3 C1.896875 6.01125 1.79375 9.0225 1.6875 12.125 C1.11029107 26.47468236 -0.45979002 40.72806365 -2 55 C-0.68 55 0.64 55 2 55 C2 53.35 2 51.7 2 50 C2.66 50 3.32 50 4 50 C3.67 51.98 3.34 53.96 3 56 C1.02 56 -0.96 56 -3 56 C-3.2311115 46.69134228 -2.87386572 37.70624164 -1.78613281 28.46435547 C-0.70426115 18.99509085 -0.38341288 9.52141997 0 0 Z " fill="#EAB954" transform="translate(195,64)"/>
<path d="M0 0 C0 1.65 0 3.3 0 5 C-1.43671568 5.64757625 -2.87440416 6.29299453 -4.3125 6.9375 C-5.11300781 7.29714844 -5.91351563 7.65679687 -6.73828125 8.02734375 C-9 9 -9 9 -12 10 C-12 9.01 -12 8.02 -12 7 C-11.01 7 -10.02 7 -9 7 C-9 6.34 -9 5.68 -9 5 C-10.65 4.67 -12.3 4.34 -14 4 C-14 3.01 -14 2.02 -14 1 C-12.22932584 0.83165067 -10.45845388 0.66538091 -8.6875 0.5 C-7.70136719 0.4071875 -6.71523437 0.314375 -5.69921875 0.21875 C-3 0 -3 0 0 0 Z " fill="#323E63" transform="translate(167,64)"/>
<path d="M0 0 C0.66 0.33 1.32 0.66 2 1 C-1.26064649 4.62294054 -4.91156428 7.81839689 -9.875 8.25 C-10.57625 8.1675 -11.2775 8.085 -12 8 C-12 8.66 -12 9.32 -12 10 C-6.72 10 -1.44 10 4 10 C4 10.33 4 10.66 4 11 C-2.06696699 11.77040851 -7.88514973 12.09706112 -14 12 C-14 10.35 -14 8.7 -14 7 C-13.32453125 6.74605469 -12.6490625 6.49210937 -11.953125 6.23046875 C-11.06109375 5.88628906 -10.1690625 5.54210937 -9.25 5.1875 C-8.36828125 4.85105469 -7.4865625 4.51460938 -6.578125 4.16796875 C-4.06960192 3.03153178 -2.12720995 1.73457073 0 0 Z " fill="#E8B955" transform="translate(274,269)"/>
<path d="M0 0 C0 1.65 0 3.3 0 5 C-5.28 4.67 -10.56 4.34 -16 4 C-16 3.67 -16 3.34 -16 3 C-13.36 2.67 -10.72 2.34 -8 2 C-8 1.34 -8 0.68 -8 0 C-5.13822943 -1.43088528 -3.06624227 -0.59991697 0 0 Z " fill="#283357" transform="translate(167,276)"/>
<path d="M0 0 C0 0.99 0 1.98 0 3 C0.66 3.33 1.32 3.66 2 4 C1.67 4.99 1.34 5.98 1 7 C0.2575 6.731875 -0.485 6.46375 -1.25 6.1875 C-6.43961704 4.54412127 -11.71164116 3.28358224 -17 2 C-17 1.67 -17 1.34 -17 1 C-16.08476562 1.01160156 -15.16953125 1.02320312 -14.2265625 1.03515625 C-13.03804688 1.04417969 -11.84953125 1.05320312 -10.625 1.0625 C-8.84996094 1.07990234 -8.84996094 1.07990234 -7.0390625 1.09765625 C-4.2882453 1.00926238 -2.63012256 0 0 0 Z " fill="#F0BE51" transform="translate(410,81)"/>
<path d="M0 0 C2.475 0.495 2.475 0.495 5 1 C5 2.32 5 3.64 5 5 C-3.06350113 5.12867289 -10.97497656 4.79681084 -19 4 C-19 3.67 -19 3.34 -19 3 C-11.74 3 -4.48 3 3 3 C3 2.34 3 1.68 3 1 C2.01 0.67 1.02 0.34 0 0 Z " fill="#E5B85A" transform="translate(361,276)"/>
<path d="M0 0 C4.875 4.625 4.875 4.625 6 8 C6.66 8 7.32 8 8 8 C8 8.66 8 9.32 8 10 C3.59885603 9.49701212 1.28804981 7.91227269 -2 5 C-1.34 3.35 -0.68 1.7 0 0 Z " fill="#2F3C60" transform="translate(484,250)"/>
<path d="M0 0 C1.98 0 3.96 0 6 0 C6 0.99 6 1.98 6 3 C6.99 3.33 7.98 3.66 9 4 C8 5 8 5 5.93359375 5.09765625 C5.10988281 5.08605469 4.28617187 5.07445312 3.4375 5.0625 C2.61121094 5.05347656 1.78492187 5.04445313 0.93359375 5.03515625 C0.29550781 5.02355469 -0.34257813 5.01195312 -1 5 C-0.67 3.35 -0.34 1.7 0 0 Z " fill="#1A274A" transform="translate(64,276)"/>
<path d="M0 0 C0 1.65 0 3.3 0 5 C-0.99 5.33 -1.98 5.66 -3 6 C-3.66 5.67 -4.32 5.34 -5 5 C-5 4.34 -5 3.68 -5 3 C-6.65 3.33 -8.3 3.66 -10 4 C-10.33 3.01 -10.66 2.02 -11 1 C-3.375 0 -3.375 0 0 0 Z " fill="#1F2A50" transform="translate(167,64)"/>
<path d="M0 0 C3.26008643 3.16952847 6.22237877 6.39937989 9 10 C7.35 10.33 5.7 10.66 4 11 C4 9.68 4 8.36 4 7 C3.01 7 2.02 7 1 7 C0.67 4.69 0.34 2.38 0 0 Z " fill="#2A3658" transform="translate(513,236)"/>
<path d="M0 0 C0.144375 0.61875 0.28875 1.2375 0.4375 1.875 C0.93152225 4.03258322 0.93152225 4.03258322 2 6 C4.11846285 6.68729254 4.11846285 6.68729254 6.5625 7.125 C7.80193359 7.37636719 7.80193359 7.37636719 9.06640625 7.6328125 C9.70449219 7.75398437 10.34257812 7.87515625 11 8 C11 8.33 11 8.66 11 9 C7.04 9 3.08 9 -1 9 C-1.09765625 2.84765625 -1.09765625 2.84765625 -1 1 C-0.67 0.67 -0.34 0.34 0 0 Z " fill="#EEBA4B" transform="translate(1,127)"/>
<path d="M0 0 C0.99 0.33 1.98 0.66 3 1 C2.38511719 1.87011719 2.38511719 1.87011719 1.7578125 2.7578125 C-1.21028607 7.06084535 -3.68426126 10.8686189 -5 16 C-5.33 16 -5.66 16 -6 16 C-6 13.69 -6 11.38 -6 9 C-5.34 8.67 -4.68 8.34 -4 8 C-3.855625 7.21625 -3.71125 6.4325 -3.5625 5.625 C-2.94615917 2.74874279 -2.22271144 1.83615293 0 0 Z " fill="#EEBC5A" transform="translate(207,91)"/>
<path d="M0 0 C0.66 0 1.32 0 2 0 C1.67 4.62 1.34 9.24 1 14 C0.67 14 0.34 14 0 14 C0 11.69 0 9.38 0 7 C-0.99 6.67 -1.98 6.34 -3 6 C-3 5.34 -3 4.68 -3 4 C-2.01 4 -1.02 4 0 4 C0 2.68 0 1.36 0 0 Z " fill="#2E3A5D" transform="translate(140,95)"/>
<path d="M0 0 C2.475 0.495 2.475 0.495 5 1 C6.59138085 5.17737474 7.21278058 8.53160785 7 13 C5.43415689 10.65123533 4.17485037 8.45454353 2.9375 5.9375 C2.59589844 5.24527344 2.25429687 4.55304688 1.90234375 3.83984375 C1.60457031 3.23269531 1.30679688 2.62554687 1 2 C0.67 1.34 0.34 0.68 0 0 Z " fill="#313E62" transform="translate(81,79)"/>
<path d="M0 0 C1.65 0 3.3 0 5 0 C5 1.32 5 2.64 5 4 C4.21625 3.95875 3.4325 3.9175 2.625 3.875 C-0.16116119 3.71271266 -0.16116119 3.71271266 -2 6 C-2.33 5.01 -2.66 4.02 -3 3 C-2.34 3 -1.68 3 -1 3 C-0.67 2.01 -0.34 1.02 0 0 Z " fill="#2C374F" transform="translate(652,234)"/>
<path d="M0 0 C2.3125 0.1875 2.3125 0.1875 5 1 C8 5.03448276 8 5.03448276 8 8 C8.99 8.33 9.98 8.66 11 9 C10.01 9.33 9.02 9.66 8 10 C6.66370254 8.52351062 5.33103329 7.0437367 4 5.5625 C3.2575 4.73878906 2.515 3.91507812 1.75 3.06640625 C0 1 0 1 0 0 Z " fill="#2A3A56" transform="translate(627,95)"/>
<path d="M0 0 C0 0.66 0 1.32 0 2 C-0.969375 2.268125 -1.93875 2.53625 -2.9375 2.8125 C-3.948125 3.204375 -4.95875 3.59625 -6 4 C-6.33 4.99 -6.66 5.98 -7 7 C-7.66 5.68 -8.32 4.36 -9 3 C-2.25 0 -2.25 0 0 0 Z " fill="#253357" transform="translate(626,256)"/>
<path d="M0 0 C1.27162597 3.8148779 0.64661571 5.3931275 -1 9 C-3.125 9.875 -3.125 9.875 -5 10 C-3.33333333 6.66666667 -1.66666667 3.33333333 0 0 Z " fill="#EDC35C" transform="translate(283,257)"/>
<path d="M0 0 C0.66 0.99 1.32 1.98 2 3 C2.66 3 3.32 3 4 3 C4 4.65 4 6.3 4 8 C1.525 7.01 1.525 7.01 -1 6 C-0.67 4.02 -0.34 2.04 0 0 Z " fill="#25355D" transform="translate(482,134)"/>
<path d="M0 0 C1.32 0 2.64 0 4 0 C2.70700306 2.88437779 1.34058637 4.87219421 -1 7 C-1.33 6.01 -1.66 5.02 -2 4 C-1.34 4 -0.68 4 0 4 C0 2.68 0 1.36 0 0 Z " fill="#29345B" transform="translate(516,102)"/>
<path d="M0 0 C-1.29299694 2.88437779 -2.65941363 4.87219421 -5 7 C-5 6.01 -5 5.02 -5 4 C-5.66 3.67 -6.32 3.34 -7 3 C-2.25 0 -2.25 0 0 0 Z " fill="#354061" transform="translate(487,95)"/>
<path d="M0 0 C0.66 1.32 1.32 2.64 2 4 C1.01 5.485 1.01 5.485 0 7 C-0.99 7 -1.98 7 -3 7 C-2.625 4.0625 -2.625 4.0625 -2 1 C-1.34 0.67 -0.68 0.34 0 0 Z " fill="#28365C" transform="translate(90,246)"/>
<path d="M0 0 C3.4375 1.1875 3.4375 1.1875 4.4375 3.1875 C-2.1875 2.4375 -2.1875 2.4375 -5.5625 0.1875 C-3.5625 -0.8125 -3.5625 -0.8125 0 0 Z " fill="#1A2647" transform="translate(552.5625,277.8125)"/>
<path d="M0 0 C1.41377341 2.63904371 2.37240135 5.07120629 3 8 C2.01 8 1.02 8 0 8 C-0.185625 6.824375 -0.185625 6.824375 -0.375 5.625 C-0.79117993 2.85942178 -0.79117993 2.85942178 -3 1 C-2.01 0.67 -1.02 0.34 0 0 Z " fill="#2D3D5C" transform="translate(469,217)"/>
<path d="M0 0 C0.33 1.32 0.66 2.64 1 4 C-1.375 5.5625 -1.375 5.5625 -4 7 C-4.66 6.67 -5.32 6.34 -6 6 C-4.02 4.02 -2.04 2.04 0 0 Z " fill="#2E375B" transform="translate(473,103)"/>
<path d="M0 0 C0.99 0.99 1.98 1.98 3 3 C1.75 4.5625 1.75 4.5625 0 6 C-2.1875 5.6875 -2.1875 5.6875 -4 5 C-3 3 -3 3 0 2 C0 1.34 0 0.68 0 0 Z " fill="#16274F" transform="translate(621,83)"/>
<path d="M0 0 C0.99 0.33 1.98 0.66 3 1 C2.67 2.65 2.34 4.3 2 6 C0.68 5.34 -0.64 4.68 -2 4 C-1 1 -1 1 0 0 Z " fill="#263557" transform="translate(147,75)"/>
<path d="M0 0 C-2.46278801 2.46278801 -4.70676982 2.99771255 -8 4 C-8.66 3.34 -9.32 2.68 -10 2 C-3.375 -1.125 -3.375 -1.125 0 0 Z " fill="#313A5A" transform="translate(540,72)"/>
<path d="M0 0 C2.64 0.33 5.28 0.66 8 1 C7.01 2.485 7.01 2.485 6 4 C3.03 3.505 3.03 3.505 0 3 C0 2.01 0 1.02 0 0 Z " fill="#2C3762" transform="translate(610,64)"/>
<path d="M0 0 C1.32 0 2.64 0 4 0 C3.67 1.65 3.34 3.3 3 5 C2.01 5 1.02 5 0 5 C0 3.35 0 1.7 0 0 Z " fill="#1D2A48" transform="translate(63,64)"/>
<path d="M0 0 C1.485 0.99 1.485 0.99 3 2 C3 2.66 3 3.32 3 4 C3.66 4 4.32 4 5 4 C5 4.66 5 5.32 5 6 C3.35 5.67 1.7 5.34 0 5 C0 3.35 0 1.7 0 0 Z " fill="#333D52" transform="translate(487,254)"/>
<path d="M0 0 C2.5 1.25 2.5 1.25 5 3 C5 4.32 5 5.64 5 7 C4.34 7 3.68 7 3 7 C0 2.61538462 0 2.61538462 0 0 Z " fill="#203153" transform="translate(463,235)"/>
</svg>
