<svg width="89" height="93" viewBox="0 0 89 93" fill="none" xmlns="http://www.w3.org/2000/svg">
<path fill-rule="evenodd" clip-rule="evenodd" d="M68.9039 27.3513H68.9043V14.444C68.9043 14.3545 68.8458 14.279 68.7591 14.2567C58.9627 11.7211 50.7553 7.06582 44.3082 0.0625121C44.2701 0.0212625 44.2219 0 44.1657 0C44.1096 0 44.0613 0.0212625 44.0233 0.0625121C37.576 7.06582 29.3686 11.7211 19.5724 14.2567C19.4859 14.279 19.4272 14.3547 19.4272 14.444L19.4255 27.5099C19.4255 41.8433 28.9214 54.7426 44.0667 63.7252C44.1294 63.7624 44.2019 63.7624 44.2646 63.7252C59.41 54.7422 68.906 41.8429 68.906 27.5097L68.9043 27.3515L68.9039 27.3513ZM44.1657 20.2861C48.1857 20.2861 51.4446 23.5449 51.4446 27.565C51.4446 31.5849 48.1857 34.8439 44.1657 34.8439C40.1458 34.8439 36.8869 31.5849 36.8869 27.565C36.8871 23.5449 40.1458 20.2861 44.1657 20.2861ZM49.7672 42.9547C49.8395 42.9862 49.8835 43.0536 49.8835 43.1323V53.752C49.8835 53.8319 49.8378 53.9004 49.764 53.931C49.69 53.9616 49.6094 53.9454 49.5529 53.8889L44.3025 48.6385C44.227 48.563 44.1041 48.563 44.0286 48.6385L38.7782 53.8889C38.7216 53.9454 38.641 53.9614 38.567 53.931C38.4931 53.9004 38.4476 53.8321 38.4476 53.752V43.1323C38.4476 43.0534 38.4918 42.9862 38.5639 42.9547C38.8664 42.8231 39.2426 42.6109 39.4397 42.9654C41.5011 46.6717 46.8297 46.6715 48.8912 42.9654C49.0889 42.6109 49.4646 42.8231 49.7672 42.9547ZM49.8729 39.9191C48.5152 39.6437 47.0538 40.2927 46.3528 41.5531C45.3964 43.2724 42.9357 43.2724 41.9793 41.5531C41.2763 40.2892 39.8071 39.6397 38.4478 39.9216C38.4399 39.9233 38.4331 39.925 38.4254 39.9278L37.7223 40.164C37.7155 40.1664 37.7099 40.1685 37.7036 40.1715C35.919 40.9869 33.9382 39.5491 34.175 37.5963C34.3823 35.887 33.228 34.2983 31.5384 33.9674C29.608 33.5891 28.8474 31.2488 30.187 29.808C31.3594 28.5469 31.3594 26.5835 30.187 25.3224C28.8474 23.8817 29.6078 21.5413 31.5384 21.163C33.2282 20.8319 34.3823 19.2434 34.175 17.5341C33.9384 15.583 35.9309 14.1355 37.7133 14.9634C39.2751 15.6887 41.1426 15.0821 41.9795 13.5773C42.9359 11.858 45.3968 11.858 46.353 13.5773C47.1899 15.0821 49.0574 15.6889 50.6192 14.9636C52.4016 14.1357 54.394 15.5835 54.1575 17.5343C53.9502 19.2436 55.1043 20.8324 56.7941 21.1632C58.7245 21.5415 59.4851 23.8819 58.1455 25.3226C56.9731 26.5837 56.9731 28.5473 58.1455 29.8082C59.4851 31.249 58.7247 33.5894 56.7941 33.9676C55.1043 34.2987 53.9502 35.8872 54.1575 37.5965C54.3859 39.4804 52.5056 41.0164 50.5928 40.1551C50.5862 40.1521 50.5805 40.1498 50.5737 40.1476L49.8952 39.9254C49.8871 39.9223 49.8805 39.9206 49.8729 39.9191ZM81.9011 30.957C82.2513 29.5558 83.4707 28.6039 84.9151 28.6039H85.0861C86.9138 28.6039 88.3339 30.1469 88.1821 31.9685C87.4011 41.3396 87.5978 56.8214 83.1458 64.7805C79.9254 70.5374 75.5744 72.5282 71.2559 77.2211C66.5014 82.3877 65.8635 84.7126 65.778 90.1038C65.7536 91.6421 64.4952 92.8811 62.9565 92.8811C57.1877 92.8811 51.4187 92.8811 45.6497 92.8811C45.5429 92.8811 45.456 92.7941 45.456 92.6874C45.456 88.6041 45.456 84.5206 45.456 80.4373C45.456 76.4841 47.0792 73.0819 50.1516 70.5944L63.3583 59.9033C64.8578 58.6894 67.0627 58.8926 68.3185 60.3385C68.3198 60.34 68.321 60.3413 68.3223 60.343C68.7059 60.8125 68.8652 61.3512 68.8035 61.9356C68.7308 62.6268 68.4342 63.0063 67.9438 63.4369C67.9417 63.4386 67.94 63.4403 67.9379 63.4418L56.4637 72.7304C55.8432 73.235 55.749 74.1472 56.2538 74.7676C56.7584 75.3881 57.6705 75.4823 58.291 74.9775L69.8551 65.6159C72.005 63.8749 72.341 60.6921 70.5945 58.5395C70.5628 58.5006 70.5296 58.4638 70.4949 58.4289L70.4979 58.4257L70.475 58.4032L73.7603 55.1906C75.6437 53.3488 76.8123 51.3118 77.4512 48.7561L81.9011 30.957ZM6.29214 30.9715L10.7422 48.7712C11.3812 51.3269 12.5498 53.3639 14.4332 55.2057L17.7185 58.4183L17.6953 58.4408L17.6983 58.4438C17.6637 58.4784 17.6305 58.5154 17.5988 58.5544C15.8523 60.7068 16.1882 63.8898 18.3381 65.6308L29.9023 74.9923C30.5227 75.4969 31.4349 75.4029 31.9395 74.7825C32.444 74.162 32.35 73.2499 31.7296 72.7453L20.2554 63.4567C20.2532 63.455 20.2513 63.4535 20.2494 63.4518C19.7591 63.0212 19.4625 62.6417 19.3898 61.9504C19.3283 61.3661 19.4876 60.8271 19.8709 60.3579C19.8722 60.3564 19.8733 60.3549 19.8748 60.3534C21.1305 58.9075 23.3355 58.7043 24.8349 59.9181L38.0416 70.6093C41.1141 73.0966 42.7373 76.499 42.7373 80.4522V92.7023C42.7373 92.809 42.6503 92.896 42.5436 92.896C36.7748 92.896 31.0058 92.896 25.2368 92.896C23.6982 92.896 22.4397 91.657 22.4152 90.1187C22.3298 84.7273 21.6919 82.4026 16.9373 77.236C12.6187 72.5431 8.26787 70.5523 5.04742 64.7954C0.595219 56.8365 0.791899 41.3547 0.0111313 31.9834C-0.140685 30.162 1.27945 28.6188 3.1072 28.6188H3.27815C4.72253 28.6184 5.94173 29.5705 6.29214 30.9715Z" fill="#192A56"/>
</svg>
