<svg width="107" height="93" viewBox="0 0 107 93" fill="none" xmlns="http://www.w3.org/2000/svg">
<path d="M55.3076 51.2568H14.1306C13.1468 51.2568 12.3516 52.0538 12.3516 53.0358C12.3516 54.0179 13.1468 54.8149 14.1306 54.8149H55.3076C56.2914 54.8149 57.0866 54.0179 57.0866 53.0358C57.0866 52.0538 56.2914 51.2568 55.3076 51.2568Z" fill="#192A56"/>
<path d="M44.0909 62.8135H14.1306C13.1468 62.8135 12.3516 63.6105 12.3516 64.5925C12.3516 65.5745 13.1468 66.3715 14.1306 66.3715H44.0909C45.0747 66.3715 45.8699 65.5745 45.8699 64.5925C45.8699 63.6105 45.0747 62.8135 44.0909 62.8135Z" fill="#192A56"/>
<path d="M55.3076 39.699H14.1306C13.1468 39.699 12.3516 40.496 12.3516 41.478C12.3516 42.46 13.1468 43.257 14.1306 43.257H55.3076C56.2914 43.257 57.0866 42.46 57.0866 41.478C57.0866 40.496 56.2914 39.699 55.3076 39.699Z" fill="#192A56"/>
<path d="M98.753 0H45.0624C40.7216 0 37.1813 3.54023 37.1813 7.88102V25.6534H7.88102C3.52244 25.6534 0 29.1936 0 33.5344V72.5303C0 76.8711 3.52244 80.4113 7.88102 80.4113H12.3463V91.121C12.3463 91.8148 12.7555 92.4552 13.396 92.7399C13.6272 92.8466 13.8763 92.9 14.1254 92.9C14.5523 92.9 14.9793 92.7399 15.2995 92.4552L29.0691 80.4113H61.5716C65.9124 80.4113 69.4348 76.8711 69.4348 72.5303V54.7402H77.5471L91.3167 66.7841C91.6547 67.0865 92.0817 67.2289 92.4908 67.2289C92.7399 67.2289 92.989 67.1755 93.238 67.0687C93.8607 66.7841 94.2698 66.1437 94.2698 65.4498V54.7402H98.753C103.076 54.7402 106.616 51.2178 106.616 46.877V7.88102C106.616 3.54023 103.076 0 98.753 0ZM71.3562 38.9248C71.3562 37.9463 72.1567 37.1458 73.1352 37.1458H92.4908C93.4871 37.1458 94.2698 37.9463 94.2698 38.9248C94.2698 39.9032 93.4871 40.7038 92.4908 40.7038H73.1352C72.1567 40.7038 71.3562 39.9032 71.3562 38.9248ZM71.3562 27.379C71.3562 26.4005 72.1567 25.6 73.1352 25.6H92.4908C93.4871 25.6 94.2698 26.4005 94.2698 27.379C94.2698 28.3575 93.4871 29.158 92.4908 29.158H73.1352C72.1567 29.158 71.3562 28.3575 71.3562 27.379ZM92.4908 17.5944H51.3245C50.3282 17.5944 49.5455 16.7939 49.5455 15.8154C49.5455 14.837 50.3282 14.0364 51.3245 14.0364H92.4908C93.4693 14.0364 94.2698 14.837 94.2698 15.8154C94.2698 16.7939 93.4693 17.5944 92.4908 17.5944ZM65.8768 72.5303C65.8768 74.9142 63.9377 76.8533 61.5716 76.8533H28.4108C27.9661 76.8533 27.5569 77.0134 27.2367 77.2981L15.9044 87.2072V78.6323C15.9044 77.6539 15.1216 76.8533 14.1254 76.8533H7.88102C5.49715 76.8533 3.55802 74.9142 3.55802 72.5303V33.5344C3.55802 31.1505 5.49715 29.2114 7.88102 29.2114H38.7825C38.8358 29.2292 38.907 29.2292 38.9604 29.2292C39.0137 29.2292 39.0849 29.2292 39.1383 29.2114H61.5716C63.9377 29.2114 65.8768 31.1505 65.8768 33.5344V72.5303Z" fill="#192A56"/>
</svg>
