<svg width="109" height="93" viewBox="0 0 109 93" fill="none" xmlns="http://www.w3.org/2000/svg">
<path fill-rule="evenodd" clip-rule="evenodd" d="M0.0586176 67.056C1.18336 64.5765 3.46563 62.8436 7.02861 61.755C9.28338 61.1479 11.1388 60.6102 12.5554 60.1905L19.1972 71.6961C19.3556 71.9707 19.5836 72.1988 19.8582 72.3573C20.1328 72.5159 20.4442 72.5994 20.7613 72.5994C21.0784 72.5994 21.3899 72.5159 21.6644 72.3573C21.939 72.1988 22.167 71.9707 22.3255 71.6961L28.9683 60.191C30.3827 60.6125 32.2393 61.1483 34.4972 61.7554C38.0568 62.844 40.3393 64.579 41.464 67.0564L41.4883 71.9367C40.859 72.1136 40.188 72.2988 39.4702 72.4905C39.452 72.4947 39.434 72.5011 39.4158 72.5055C35.3449 73.7431 32.4426 75.8201 30.7535 78.6872H0L0.0586176 67.056ZM43.0913 11.4457C43.0914 9.18189 43.7628 6.96896 45.0205 5.08672C46.2783 3.20449 48.0659 1.73748 50.1574 0.871205C52.2489 0.0049305 54.5503 -0.221704 56.7706 0.219959C58.9908 0.661623 61.0303 1.75175 62.631 3.35249C64.2318 4.95323 65.3219 6.99269 65.7636 9.21297C66.2052 11.4333 65.9786 13.7346 65.1123 15.8261C64.246 17.9176 62.779 19.7053 60.8968 20.963C59.0146 22.2207 56.8016 22.8921 54.5379 22.8922C51.503 22.8892 48.5933 21.6822 46.4473 19.5362C44.3013 17.3903 43.0944 14.4805 43.0913 11.4457ZM54.4538 48.2637C52.584 48.2638 50.74 48.6997 49.0681 49.5368C47.3962 50.374 45.9424 51.5893 44.8221 53.0864H30.8365C31.7837 51.7636 32.4525 50.2623 32.8025 48.6734C33.1524 47.0845 33.1761 45.4412 32.8722 43.8428C32.5683 42.2445 31.943 40.7245 31.0343 39.375C30.1257 38.0254 28.9525 36.8744 27.5858 35.9916C29.2633 33.3119 32.1061 31.3852 36.246 30.1242C39.3796 29.2794 41.8633 28.5595 43.8028 27.979L52.609 43.2365C52.7678 43.5108 52.996 43.7386 53.2706 43.8969C53.5452 44.0552 53.8567 44.1386 54.1737 44.1386C54.4907 44.1386 54.8021 44.0552 55.0767 43.8969C55.3513 43.7386 55.5795 43.5108 55.7383 43.2365L64.5477 27.979C66.484 28.5595 68.9677 29.2794 72.1013 30.1242C76.3777 31.4267 79.2736 33.4419 80.9257 36.261C79.6281 37.1741 78.5241 38.335 77.6774 39.6769C76.8307 41.0187 76.2581 42.5149 75.9925 44.0792C75.7269 45.6434 75.7736 47.2448 76.13 48.7909C76.4864 50.337 77.1454 51.7973 78.0689 53.0874H64.0832C62.9632 51.5904 61.5097 50.3751 59.838 49.5379C58.1662 48.7008 56.3224 48.2648 54.4528 48.2647L54.4538 48.2637ZM54.4538 68.7377C56.1214 68.7379 57.7515 68.2436 59.1381 67.3174C60.5248 66.3911 61.6056 65.0745 62.2439 63.534C62.8822 61.9934 63.0494 60.2982 62.7243 58.6627C62.3992 57.0272 61.5964 55.5248 60.4174 54.3455C59.2384 53.1662 57.7362 52.363 56.1008 52.0375C54.4653 51.712 52.7701 51.8787 51.2294 52.5167C49.6887 53.1546 48.3718 54.2351 47.4452 55.6215C46.5186 57.0079 46.0239 58.6379 46.0237 60.3054C46.0255 62.5409 46.9142 64.6843 48.4947 66.2652C50.0752 67.8461 52.2184 68.7353 54.4538 68.7377ZM12.6106 46.0918C12.6106 47.7592 13.105 49.3892 14.0313 50.7756C14.9576 52.1619 16.2742 53.2425 17.8147 53.8806C19.3551 54.5187 21.0502 54.6857 22.6855 54.3604C24.3209 54.0352 25.823 53.2323 27.0021 52.0533C28.1811 50.8743 28.984 49.3721 29.3093 47.7368C29.6346 46.1015 29.4677 44.4064 28.8296 42.8659C28.1915 41.3255 27.111 40.0088 25.7246 39.0825C24.3383 38.1561 22.7083 37.6617 21.041 37.6617C18.8059 37.6643 16.6632 38.5533 15.0828 40.1337C13.5024 41.7141 12.6133 43.8568 12.6106 46.0918ZM96.2958 46.0918C96.2957 44.4246 95.8013 42.7949 94.875 41.4087C93.9487 40.0225 92.6321 38.9421 91.0918 38.3041C89.5515 37.6662 87.8566 37.4993 86.2214 37.8245C84.5863 38.1498 83.0843 38.9527 81.9054 40.1316C80.7265 41.3104 79.9236 42.8124 79.5984 44.4476C79.2731 46.0828 79.44 47.7777 80.0779 49.318C80.7159 50.8583 81.7963 52.1748 83.1825 53.1011C84.5687 54.0274 86.1985 54.5219 87.8657 54.522C90.1008 54.5197 92.2437 53.6308 93.8241 52.0503C95.4046 50.4699 96.2935 48.327 96.2958 46.0918ZM77.5938 78.6868C75.9058 75.8196 73.0018 73.7426 68.9315 72.5051C68.9136 72.5007 68.8954 72.4943 68.8772 72.4901C68.1594 72.2984 67.4894 72.1132 66.859 71.9363L66.8844 67.056C68.008 64.5765 70.2914 62.8436 73.8512 61.755C76.1134 61.1447 77.9326 60.6218 79.3801 60.1905L86.0219 71.6961C86.1805 71.9707 86.4086 72.1987 86.6832 72.3572C86.9579 72.5158 87.2694 72.5992 87.5865 72.5992C87.9037 72.5992 88.2152 72.5158 88.4898 72.3572C88.7645 72.1987 88.9926 71.9707 89.1512 71.6961L95.7932 60.191C97.2076 60.6106 99.0639 61.1483 101.322 61.7554C104.881 62.844 107.164 64.579 108.289 67.0564L108.347 78.6868H77.5938ZM33.4129 92.9H74.9344L74.8758 81.2692C73.7511 78.7933 71.4688 77.0567 67.909 75.9703C65.6511 75.3611 63.7956 74.8255 62.3801 74.4044L55.7383 85.9095C55.5795 86.1838 55.3513 86.4116 55.0767 86.5699C54.8021 86.7282 54.4907 86.8116 54.1737 86.8116C53.8567 86.8116 53.5452 86.7282 53.2706 86.5699C52.996 86.4116 52.7678 86.1838 52.609 85.9095L45.9672 74.4048C44.5517 74.8265 42.6962 75.3621 40.4383 75.9707C36.8777 77.0572 34.5952 78.7933 33.4715 81.2696L33.4129 92.9Z" fill="#192A56"/>
</svg>
