<svg width="33" height="33" viewBox="0 0 33 33" fill="none" xmlns="http://www.w3.org/2000/svg">
<path fill-rule="evenodd" clip-rule="evenodd" d="M8.65286 7.53056V8.55227C8.65286 8.64551 8.61578 8.73493 8.54984 8.80087C8.48391 8.86687 8.39449 8.90388 8.30118 8.90388H3.4254C3.33216 8.90388 3.24273 8.86687 3.1768 8.80087C3.11086 8.73493 3.07379 8.64551 3.07379 8.55227V7.53056C3.07379 7.43732 3.11086 7.3479 3.1768 7.2819C3.24273 7.21596 3.33216 7.17895 3.4254 7.17895H8.30118C8.39449 7.17895 8.48391 7.21596 8.54984 7.2819C8.61578 7.3479 8.65286 7.43732 8.65286 7.53056ZM7.62112 6.14366H4.10546V4.76626C4.10552 4.00571 4.72204 3.38919 5.48253 3.38919H6.24405C7.0046 3.38919 7.62112 4.00571 7.62112 4.76626V6.14366ZM5.34567 1.22944C5.34567 0.943763 5.57764 0.711792 5.86332 0.711792C6.149 0.711792 6.38097 0.943763 6.38097 1.22944V2.05444C6.38097 2.34012 6.149 2.57209 5.86332 2.57209C5.57764 2.57209 5.34567 2.34012 5.34567 2.05444V1.22944ZM8.74661 2.20935C8.94863 2.00733 9.27669 2.00733 9.4787 2.20935C9.68071 2.41136 9.68071 2.73935 9.4787 2.94136L8.89531 3.52475C8.6933 3.72676 8.3653 3.72676 8.16323 3.52475C7.96121 3.32274 7.96121 2.99475 8.16323 2.79267L8.74661 2.20935ZM2.24794 2.94136C2.04593 2.73935 2.04593 2.41136 2.24794 2.20935C2.44996 2.00733 2.77801 2.00733 2.98003 2.20935L3.56335 2.79267C3.76536 2.99475 3.76536 3.32274 3.56335 3.52475C3.36134 3.72676 3.03334 3.72676 2.83133 3.52475L2.24794 2.94136ZM25.114 32.2883C21.9247 32.2883 19.3228 29.6881 19.3228 26.4988C19.3228 23.3094 21.9247 20.7075 25.114 20.7075C28.3034 20.7075 30.9036 23.3094 30.9036 26.4988C30.9036 29.6881 28.3034 32.2883 25.114 32.2883ZM24.3539 27.0084L23.0598 25.7144C22.7246 25.3792 22.1804 25.3792 21.8453 25.7144C21.5101 26.0513 21.5101 26.5938 21.8453 26.9289L23.7474 28.8328C24.0826 29.168 24.6269 29.168 24.962 28.8328C26.1092 27.6857 27.2426 26.5264 28.3846 25.3741C28.718 25.0371 28.7163 24.4946 28.3812 24.1612C28.046 23.8277 27.5017 23.8295 27.1683 24.1646L24.3539 27.0084ZM21.8024 5.8814C21.856 5.90541 21.9039 5.9386 21.9482 5.98293L24.7392 8.77389C24.7834 8.81821 24.8167 8.86616 24.8407 8.91973H22.0516C21.915 8.91973 21.8024 8.80708 21.8024 8.67049V5.8814ZM19.5825 30.4905H6.36169C6.08669 30.4905 5.86332 30.2672 5.86332 29.994V9.93917H8.30118C8.66903 9.93917 9.02181 9.79307 9.28193 9.53295C9.54198 9.27283 9.68815 8.92012 9.68815 8.55227V7.53056C9.68815 7.16271 9.54198 6.80993 9.28193 6.54988C9.10735 6.3753 8.89104 6.25204 8.65641 6.18992V5.83708H20.7681C20.7674 5.85183 20.7671 5.86659 20.7671 5.8814V8.67049C20.7671 9.37462 21.3475 9.95503 22.0516 9.95503H24.8407C24.8555 9.95503 24.8703 9.9547 24.885 9.95406V19.6761C21.2308 19.7976 18.2875 22.8159 18.2875 26.4988C18.2875 27.9873 18.7683 29.3669 19.5825 30.4905ZM8.85506 27.8569H17.3225C17.6081 27.8569 17.8401 27.6249 17.8401 27.3392C17.8401 27.0536 17.6081 26.8216 17.3225 26.8216H8.85506C8.56939 26.8216 8.33741 27.0536 8.33741 27.3392C8.33741 27.6249 8.56939 27.8569 8.85506 27.8569ZM8.85506 14.6144H21.8932C22.179 14.6144 22.4109 14.3824 22.4109 14.0967C22.4109 13.811 22.179 13.5791 21.8932 13.5791H8.85506C8.56939 13.5791 8.33741 13.811 8.33741 14.0967C8.33741 14.3824 8.56939 14.6144 8.85506 14.6144ZM8.85506 24.5463H17.3225C17.6081 24.5463 17.8401 24.3143 17.8401 24.0286C17.8401 23.7429 17.6081 23.511 17.3225 23.511H8.85506C8.56939 23.511 8.33741 23.7429 8.33741 24.0286C8.33741 24.3143 8.56939 24.5463 8.85506 24.5463ZM10.0061 11.3037H21.8932C22.179 11.3037 22.4109 11.0718 22.4109 10.786C22.4109 10.5004 22.179 10.2684 21.8932 10.2684H10.0061C9.72031 10.2684 9.4884 10.5004 9.4884 10.786C9.4884 11.0718 9.72031 11.3037 10.0061 11.3037ZM8.85506 17.925H21.8932C22.179 17.925 22.4109 17.693 22.4109 17.4073C22.4109 17.1217 22.179 16.8897 21.8932 16.8897H8.85506C8.56939 16.8897 8.33741 17.1217 8.33741 17.4073C8.33741 17.693 8.56939 17.925 8.85506 17.925ZM8.85506 21.2356H20.0952C20.3809 21.2356 20.6129 21.0037 20.6129 20.7179C20.6129 20.4323 20.3809 20.2003 20.0952 20.2003H8.85506C8.56939 20.2003 8.33741 20.4323 8.33741 20.7179C8.33741 21.0037 8.56939 21.2356 8.85506 21.2356Z" fill="#192A56"/>
</svg>
