<svg width="28" height="33" viewBox="0 0 28 33" fill="none" xmlns="http://www.w3.org/2000/svg">
<path fill-rule="evenodd" clip-rule="evenodd" d="M27.264 0.690944C26.8378 0.259673 26.2625 0.0119833 25.659 7.06556e-06H6.76743C6.45985 -0.00075357 6.15517 0.0599071 5.87093 0.178492C5.5867 0.297077 5.32855 0.471241 5.11136 0.690944L0.684922 5.15626C0.467586 5.3757 0.295235 5.63618 0.177714 5.92283C0.0601934 6.20948 -0.000194342 6.51668 4.6985e-07 6.82688V30.6384C-0.000145453 31.2559 0.239466 31.8489 0.667495 32.2903C1.09552 32.7318 1.67792 32.9865 2.28989 33H25.659C26.2799 33 26.8753 32.7512 27.3143 32.3083C27.7534 31.8654 28 31.2648 28 30.6384V2.36157C27.9941 2.04763 27.9259 1.73807 27.7995 1.45114C27.6731 1.16421 27.491 0.905725 27.264 0.690944ZM9.30267 25.9256H6.96167V23.5744H9.30267V25.9256ZM9.30267 18.8513H6.96167V16.5H9.30267V18.8513ZM8.86309 13.1072C8.75473 13.2176 8.62576 13.3052 8.48363 13.365C8.34151 13.4248 8.18904 13.4556 8.03505 13.4556C7.88106 13.4556 7.72859 13.4248 7.58647 13.365C7.44434 13.3052 7.31537 13.2176 7.20701 13.1072L4.96824 10.8797L6.62432 9.20907L8.00438 10.6013L10.4885 8.09532L12.1446 9.76594L8.86309 13.1072ZM22.1526 25.9256H13.9744V23.5744H22.1526V25.9256ZM22.1526 18.8513H13.9744V16.5H22.1526V18.8513ZM22.1526 11.7769H13.9744V9.42563H22.1526V11.7769Z" fill="#192A56"/>
</svg>
