<svg width="32" height="33" viewBox="0 0 32 33" fill="none" xmlns="http://www.w3.org/2000/svg">
<path d="M30.7158 11.8825C30.6804 11.8412 28.7537 10.0972 28.7537 10.0972C28.7536 10.9407 28.7538 12.6663 28.7537 13.5146C29.241 13.1078 30.2311 12.2858 30.7158 11.8825Z" fill="#192A56"/>
<path d="M2.78106 13.6325V10.0559C2.78106 10.0559 0.712909 11.8589 0.665771 11.9119C0.906502 12.0849 2.78106 13.6325 2.78106 13.6325Z" fill="#192A56"/>
<path d="M16.4862 20.8445C16.2627 20.6589 15.9813 20.5573 15.6908 20.5573C15.4003 20.5573 15.1189 20.6589 14.8954 20.8445C12.9743 22.4478 0.883789 32.4698 0.883789 32.4698C1.31384 32.8131 1.84779 33.0001 2.39808 33.0001H28.9835C29.5246 32.9996 30.0497 32.8169 30.4742 32.4815C30.2558 32.2914 16.4862 20.8445 16.4862 20.8445Z" fill="#192A56"/>
<path d="M31.305 12.9254C28.2317 15.4763 23.1825 19.689 20.0627 22.2822L31.1931 31.5505C31.3187 31.2604 31.3829 30.9475 31.3816 30.6314V13.5205C31.3838 13.3196 31.358 13.1193 31.305 12.9254Z" fill="#192A56"/>
<path d="M11.3248 22.2822C8.23982 19.7276 3.44497 15.7104 0.412482 13.1965L0.0766287 12.9431C0.0247472 13.1372 -0.00101276 13.3373 3.04575e-05 13.5382V30.6314C-0.00114592 30.9387 0.0589466 31.2432 0.176796 31.527L11.3248 22.2822Z" fill="#192A56"/>
<path d="M21.2355 3.30349L18.7844 1.09393C18.0126 0.398937 17.0135 0.00995496 15.975 0.000188462C14.9365 -0.00957804 13.9302 0.360544 13.1456 1.0409L10.5471 3.30349H21.2355Z" fill="#192A56"/>
<path d="M12.25 21.5162L14.1413 19.943C14.5763 19.5809 15.124 19.3821 15.6899 19.381C16.2558 19.3799 16.8043 19.5766 17.2406 19.9371L19.1379 21.5162C19.1379 21.5162 27.0174 14.959 27.5755 14.4927V6.84463C27.5692 6.21279 27.3126 5.60923 26.8619 5.1663C26.4113 4.72338 25.8033 4.47725 25.1715 4.48188H6.36369C5.73183 4.47725 5.12393 4.72339 4.67328 5.16631C4.22263 5.60924 3.96602 6.21279 3.95972 6.84463C3.95972 6.84463 3.96008 13.5311 3.95972 14.6164C4.52954 15.0787 12.25 21.5162 12.25 21.5162ZM12.4385 13.821C12.438 14.1568 12.3044 14.4788 12.067 14.7163C11.8295 14.9537 11.5075 15.0873 11.1717 15.0878H9.85185C9.69558 15.0878 9.54571 15.0257 9.43521 14.9152C9.32471 14.8047 9.26264 14.6549 9.26264 14.4986C9.26264 14.3423 9.32471 14.1925 9.43521 14.082C9.54571 13.9715 9.69558 13.9094 9.85185 13.9094H11.1717C11.195 13.9088 11.2171 13.8993 11.2336 13.8829C11.25 13.8664 11.2595 13.8443 11.2601 13.821V11.2343C11.2595 11.2111 11.25 11.1889 11.2336 11.1725C11.2171 11.156 11.195 11.1465 11.1717 11.1459H9.85185C9.69558 11.1459 9.54571 11.0839 9.43521 10.9734C9.32471 10.8629 9.26264 10.713 9.26264 10.5567C9.26264 10.4005 9.32471 10.2506 9.43521 10.1401C9.54571 10.0296 9.69558 9.96752 9.85185 9.96752H11.1717C11.3381 9.96726 11.503 9.99985 11.6568 10.0634C11.8106 10.127 11.9504 10.2203 12.068 10.338C12.1857 10.4557 12.279 10.5954 12.3426 10.7492C12.4062 10.9031 12.4388 11.0679 12.4385 11.2343V13.821ZM15.4671 15.0878C12.7863 15.0429 12.7814 10.0138 15.4672 9.96752C18.1606 10.0167 18.1545 15.041 15.4671 15.0878ZM22.1076 14.2276C21.9745 14.4915 21.7694 14.7125 21.516 14.8647C21.2626 15.0169 20.9713 15.0943 20.6758 15.0878H18.9435C18.7873 15.0874 18.6377 15.0251 18.5273 14.9147C18.4169 14.8043 18.3547 14.6547 18.3542 14.4986V10.5567C18.3547 10.4006 18.4169 10.251 18.5273 10.1406C18.6377 10.0302 18.7873 9.96797 18.9435 9.96752H20.5108C20.7917 9.97956 21.0647 10.0637 21.3036 10.2119C21.5425 10.3601 21.7392 10.5674 21.8748 10.8136C22.0104 11.0599 22.0802 11.337 22.0776 11.6181C22.075 11.8992 22.0001 12.175 21.86 12.4187C22.0696 12.6652 22.2042 12.9664 22.2481 13.287C22.292 13.6075 22.2432 13.9339 22.1076 14.2276Z" fill="#192A56"/>
<path d="M20.8936 13.114H19.5325V13.9095H20.6755C21.1656 13.9345 21.1922 13.3162 20.8936 13.114Z" fill="#192A56"/>
<path d="M20.8877 11.5408C20.8891 11.49 20.8805 11.4395 20.8623 11.3921C20.8441 11.3447 20.8166 11.3014 20.7815 11.2647C20.7465 11.2279 20.7045 11.1985 20.6579 11.1782C20.6114 11.1578 20.5613 11.1469 20.5106 11.146H19.5325V11.9355H20.7816C20.8503 11.8152 20.8868 11.6793 20.8877 11.5408Z" fill="#192A56"/>
<path d="M15.4669 11.146C14.3423 11.2275 14.3484 13.8313 15.4669 13.9094C16.5936 13.8273 16.5981 11.2299 15.4669 11.146Z" fill="#192A56"/>
</svg>
