<svg width="33" height="33" viewBox="0 0 33 33" fill="none" xmlns="http://www.w3.org/2000/svg">
<path d="M10.6072 4.125C10.6072 1.85073 8.75645 0 6.48218 0C4.2079 0 2.35718 1.85073 2.35718 4.125C2.35718 6.39927 4.2079 8.25 6.48218 8.25C8.75645 8.25 10.6072 6.39927 10.6072 4.125Z" fill="#192A56"/>
<path d="M1.17857 15.3214H11.7857C12.4366 15.3214 12.9643 14.7937 12.9643 14.1429V12.9643C12.9643 10.3649 10.8494 8.25 8.25 8.25H6.48214H4.71429C2.11487 8.25 0 10.3649 0 12.9643V14.1429C0 14.7937 0.52771 15.3214 1.17857 15.3214Z" fill="#192A56"/>
<path d="M8.25 25.9286H6.48214H4.71429C2.11487 25.9286 0 28.0435 0 30.6429V31.8214C0 32.4723 0.52771 33 1.17857 33H11.7857C12.4366 33 12.9643 32.4723 12.9643 31.8214V30.6429C12.9643 28.0435 10.8494 25.9286 8.25 25.9286Z" fill="#192A56"/>
<path d="M10.6072 21.8036C10.6072 19.5293 8.75645 17.6786 6.48218 17.6786C4.2079 17.6786 2.35718 19.5293 2.35718 21.8036C2.35718 24.0779 4.2079 25.9286 6.48218 25.9286C8.75645 25.9286 10.6072 24.0779 10.6072 21.8036Z" fill="#192A56"/>
<path d="M22.9822 15.3214H15.9108C14.2862 15.3214 12.9644 16.6433 12.9644 18.2678V21.8036C12.9644 23.4281 14.2862 24.75 15.9108 24.75H16.5001V27.6964C16.5001 27.9347 16.6434 28.1499 16.8638 28.2408C16.9369 28.2713 17.0134 28.2857 17.0894 28.2857C17.2424 28.2857 17.3932 28.2258 17.506 28.1131L20.8691 24.75H22.9822C24.6068 24.75 25.9286 23.4281 25.9286 21.8036V18.2678C25.9286 16.6433 24.6068 15.3214 22.9822 15.3214Z" fill="#192A56"/>
<path d="M29.4642 5.89291H15.8094L16.1546 5.54762C16.615 5.08725 16.615 4.34143 16.1546 3.88105C15.6943 3.42067 14.9485 3.42067 14.4881 3.88105L12.1309 6.23819C11.6705 6.69857 11.6705 7.44439 12.1309 7.90477L14.4881 10.2619C14.7183 10.4921 15.0198 10.6072 15.3214 10.6072C15.6229 10.6072 15.9245 10.4921 16.1546 10.2619C16.615 9.80153 16.615 9.05572 16.1546 8.59534L15.8094 8.25005H29.4642C30.1139 8.25005 30.6428 8.77891 30.6428 9.42862V17.6786C30.6428 18.3283 30.1139 18.8572 29.4642 18.8572H27.1071V21.2143H29.4642C31.4139 21.2143 32.9999 19.6283 32.9999 17.6786V9.42862C32.9999 7.47892 31.4139 5.89291 29.4642 5.89291Z" fill="#192A56"/>
</svg>
