<svg width="35" height="33" viewBox="0 0 35 33" fill="none" xmlns="http://www.w3.org/2000/svg">
<path d="M33.6829 29.5059L28.4886 24.3116C30.7376 20.7773 30.3092 16.0114 27.2034 12.9591C23.6155 9.37123 17.8322 9.37123 14.2443 12.9591C10.6565 16.5469 10.6565 22.3303 14.2443 25.9181C17.1896 28.8633 21.8484 29.5595 25.5969 27.2033L30.7912 32.3976C31.5944 33.2008 32.8796 33.2008 33.6829 32.3976C34.4861 31.5944 34.4861 30.3092 33.6829 29.5059ZM14.994 25.1684C11.8346 22.009 11.8346 16.8682 14.994 13.7088C18.0999 10.6029 23.2407 10.4958 26.4537 13.7088C29.6131 16.8682 29.6131 22.009 26.4537 25.1684C23.2942 28.3278 18.1535 28.3814 14.994 25.1684Z" fill="#192A56"/>
<path d="M20.7237 19.867C22.116 19.867 23.2941 18.7424 23.2941 17.2966C23.2941 15.9043 22.1695 14.7262 20.7237 14.7262C19.3314 14.7262 18.1533 15.8507 18.1533 17.2966C18.1533 18.6889 19.3314 19.8134 20.7237 19.867C18.0998 19.867 15.9578 21.7412 15.4758 24.2045C18.0462 27.0962 22.8121 27.5246 25.918 24.2045C25.4896 21.6877 23.3476 19.867 20.7237 19.867Z" fill="#192A56"/>
<path d="M6.85435 0.321289C1.60648 5.51561 0.696137 6.4795 0.374839 6.8008L0.321289 6.85435H6.85435V0.321289Z" fill="#192A56"/>
<path d="M20.7237 29.7201C17.9927 29.7201 15.4223 28.6491 13.4945 26.7213C9.4783 22.7051 9.4783 16.2256 13.4945 12.2093C15.4223 10.2815 17.9927 9.21055 20.7237 9.21055C21.8483 9.21055 22.9728 9.3712 23.9903 9.74604V1.60649C23.9903 0.696146 23.2941 0 22.3838 0H7.92535V7.38986C7.92535 7.71116 7.71116 7.92535 7.38986 7.92535H0V31.3801C0 32.2905 0.749696 32.9866 1.60649 32.9866H22.3838C23.2941 32.9866 23.9903 32.2905 23.9903 31.3801V29.1846C23.1335 29.4523 21.9554 29.7201 20.7237 29.7201ZM11.6738 3.21298H19.1708C19.4921 3.21298 19.7063 3.42718 19.7063 3.74848C19.7063 4.06978 19.4921 4.28398 19.1708 4.28398H11.6738C11.3525 4.28398 11.1383 4.06978 11.1383 3.74848C11.1383 3.48073 11.3525 3.21298 11.6738 3.21298ZM11.6738 7.01501H19.1708C19.4921 7.01501 19.7063 7.22921 19.7063 7.55051C19.7063 7.8718 19.4921 8.086 19.1708 8.086H11.6738C11.3525 8.086 11.1383 7.8718 11.1383 7.55051C11.1383 7.28276 11.3525 7.01501 11.6738 7.01501ZM4.44462 13.4945H10.8706C11.1919 13.4945 11.4061 13.7087 11.4061 14.03C11.4061 14.3513 11.1919 14.5655 10.8706 14.5655H4.44462C4.12333 14.5655 3.90913 14.3513 3.90913 14.03C3.90913 13.7623 4.12333 13.4945 4.44462 13.4945ZM4.44462 18.3675H8.56795C8.88925 18.3675 9.10345 18.5817 9.10345 18.903C9.10345 19.2243 8.88925 19.4385 8.56795 19.4385H4.44462C4.12333 19.4385 3.90913 19.2243 3.90913 18.903C3.90913 18.6353 4.12333 18.3675 4.44462 18.3675ZM4.44462 23.2406H8.56795C8.88925 23.2406 9.10345 23.4548 9.10345 23.7761C9.10345 24.0974 8.88925 24.3116 8.56795 24.3116H4.44462C4.12333 24.3116 3.90913 24.0974 3.90913 23.7761C3.90913 23.4548 4.12333 23.2406 4.44462 23.2406ZM10.8706 29.1846H4.44462C4.12333 29.1846 3.90913 28.9704 3.90913 28.6491C3.90913 28.3278 4.12333 28.1136 4.44462 28.1136H10.8706C11.1919 28.1136 11.4061 28.3278 11.4061 28.6491C11.4061 28.9168 11.1383 29.1846 10.8706 29.1846Z" fill="#192A56"/>
</svg>
