<svg width="34" height="33" viewBox="0 0 34 33" fill="none" xmlns="http://www.w3.org/2000/svg">
<path fill-rule="evenodd" clip-rule="evenodd" d="M32.0491 22.9364H0.967275C0.433081 22.9364 0 23.3695 0 23.9037V28.2287C0 28.7629 0.433081 29.196 0.967275 29.196H3.48219V32.0328C3.48219 32.567 3.91527 33.0001 4.44946 33.0001H28.5669C29.1011 33.0001 29.5342 32.567 29.5342 32.0328V29.196H32.0491C32.5833 29.196 33.0164 28.7629 33.0164 28.2287V23.9037C33.0164 23.3695 32.5833 22.9364 32.0491 22.9364Z" fill="#192A56"/>
<path fill-rule="evenodd" clip-rule="evenodd" d="M15.2004 15.4541L16.6458 21.0062H24.3699C23.6074 16.3058 20.3734 15.6692 17.7046 15.1441C17.0217 15.0098 16.4471 14.6857 15.2004 15.4541Z" fill="#192A56"/>
<path fill-rule="evenodd" clip-rule="evenodd" d="M10.9756 15.4541C10.2702 15.0469 9.93121 14.8569 8.47146 15.1441C5.80275 15.6693 2.56862 16.3059 1.80615 21.0062H9.53024L10.9756 15.4541Z" fill="#192A56"/>
<path fill-rule="evenodd" clip-rule="evenodd" d="M11.5227 21.0063H14.6534L13.4835 16.5125H12.6926L11.5227 21.0063Z" fill="#192A56"/>
<path fill-rule="evenodd" clip-rule="evenodd" d="M13.1178 13.982C16.4891 13.982 19.2439 11.2273 19.2439 7.85593V6.21601C17.1633 7.02336 14.8088 6.50981 13.2495 4.92102C11.6331 6.5788 9.14782 7.08114 6.9917 6.12218V7.85593C6.9917 11.2273 9.74644 13.982 13.1178 13.982Z" fill="#192A56"/>
<path fill-rule="evenodd" clip-rule="evenodd" d="M18.9459 4.23171C18.3161 2.29445 16.743 0.773958 14.7744 0.217773C14.9289 1.26604 14.7793 2.3265 14.3643 3.27024C15.4579 4.66073 17.3954 5.05996 18.9459 4.23171Z" fill="#192A56"/>
<path fill-rule="evenodd" clip-rule="evenodd" d="M12.7526 0C10.2375 0.149605 8.1202 1.83176 7.3269 4.12066C7.9005 4.47817 8.56263 4.67046 9.25598 4.67046C11.6936 4.6704 13.4329 2.32553 12.7526 0Z" fill="#192A56"/>
<path fill-rule="evenodd" clip-rule="evenodd" d="M27.9178 17.68L29.3298 18.625V21.0063H31.2643V18.1122C31.2643 17.7487 31.0637 17.432 30.7671 17.2668L28.903 16.0192C29.0825 14.5736 27.9566 13.3003 26.5034 13.3003C25.168 13.3003 24.0852 14.3831 24.0852 15.7185C24.0852 17.6913 26.3279 18.8285 27.9178 17.68Z" fill="#192A56"/>
</svg>
