<svg width="34" height="33" viewBox="0 0 34 33" fill="none" xmlns="http://www.w3.org/2000/svg">
<path fill-rule="evenodd" clip-rule="evenodd" d="M15.1316 0H18.0283C18.441 0 18.7786 0.337623 18.7786 0.750363V2.11689C18.7786 2.94346 19.2502 3.64922 20.0138 3.96553C20.7774 4.28183 21.6099 4.11624 22.1944 3.53181L23.1607 2.5655C23.4525 2.27369 23.93 2.27369 24.2218 2.5655L26.2701 4.61377C26.5619 4.90558 26.5619 5.38308 26.2701 5.67489L25.3038 6.6412C24.7193 7.22563 24.5538 8.05814 24.87 8.82177C25.1864 9.5854 25.8921 10.0569 26.7187 10.0569H28.0852C28.4979 10.0569 28.8356 10.3946 28.8356 10.8073V10.8873C27.2393 11.052 25.6688 11.4715 24.1299 12.1217C23.6052 12.3434 23.3417 12.9351 23.5281 13.4734L23.6596 13.8533C22.9846 13.7797 22.3598 13.6296 21.7456 13.4515C21.8343 13.0672 21.8811 12.6668 21.8811 12.2557C21.8811 9.3279 19.5077 6.95446 16.5799 6.95446C13.6522 6.95446 11.2788 9.3279 11.2788 12.2557C11.2788 13.0838 11.4688 13.8675 11.8074 14.5658C11.4108 14.5757 11.0216 14.5612 10.6319 14.5201C10.2108 14.4757 9.78646 14.4 9.34868 14.2909L9.63175 13.4734C9.81813 12.9351 9.55467 12.3434 9.02993 12.1217C7.49104 11.4715 5.92054 11.052 4.3242 10.8873V10.8073C4.3242 10.3946 4.66189 10.0569 5.07456 10.0569H6.44109C7.26765 10.0569 7.97342 9.5854 8.28972 8.82177C8.60603 8.05814 8.44043 7.22563 7.85594 6.6412L6.88983 5.67482C6.59802 5.38301 6.59802 4.90551 6.88983 4.6137L8.9381 2.56543C9.22991 2.27362 9.70741 2.27362 9.99922 2.56543L10.9655 3.53174C11.55 4.11617 12.3824 4.28176 13.146 3.96553C13.9097 3.64922 14.3812 2.94346 14.3812 2.11689V0.750295C14.3813 0.337623 14.719 0 15.1316 0ZM13.3804 28.4227C13.1855 28.2223 13.19 27.9019 13.3903 27.707C13.5906 27.5121 13.9111 27.5166 14.106 27.7169C15.3841 29.0265 16.6541 30.3394 17.9471 31.6323C18.3831 32.0683 19.0949 32.0682 19.5309 31.6323C19.9658 31.1974 19.9657 30.4835 19.5308 30.0486C19.5327 30.0467 16.6919 27.1378 16.4331 26.8726C16.2382 26.6722 16.2426 26.3518 16.443 26.1569C16.6434 25.962 16.9638 25.9664 17.1587 26.1667C18.336 27.373 19.5056 28.5879 20.6963 29.7787C21.1312 30.2136 21.8451 30.2135 22.2799 29.7787C22.7158 29.3428 22.7161 28.631 22.2801 28.1949C22.2819 28.193 19.4411 25.2841 19.1823 25.0189C18.9874 24.8185 18.9919 24.498 19.1922 24.3031C19.3926 24.1082 19.7131 24.1127 19.908 24.3131C21.0372 25.4702 22.1595 26.639 23.3015 27.781C23.734 28.2135 24.4528 28.2135 24.8853 27.781C25.328 27.3383 25.3025 26.6318 24.8774 26.1872C24.6398 25.9379 24.4023 25.6886 24.1642 25.4397C23.8159 25.2978 23.4919 25.0842 23.21 24.8026L17.3121 18.9084C16.8152 19.3135 16.0958 19.9528 16.0958 20.828C16.0958 21.9829 15.5486 22.9292 14.7159 23.6032C13.8266 24.3231 12.6073 24.7259 11.4 24.7259C11.1197 24.7259 10.8924 24.4987 10.8924 24.2184V18.8005C10.8924 17.991 11.2061 17.2685 11.7956 16.7142L13.1137 15.4748C12.217 15.5941 11.3787 15.6169 10.5289 15.5273C10.0304 15.4747 9.53079 15.3838 9.0162 15.2513L5.98335 24.0088C7.53097 24.7861 8.58627 25.862 9.76825 27.0732C10.2317 27.5482 15.3198 32.7793 15.3294 32.7696C15.6425 33.0828 16.1588 33.072 16.4726 32.7658C16.7949 32.4492 16.7977 31.9184 16.4781 31.5987L13.3804 28.4227ZM24.0273 14.9149C22.7358 14.8373 21.6291 14.4872 20.4913 14.127C18.549 13.5123 17.0094 13.2016 15.3439 14.7676L12.4895 17.4515C12.0963 17.8213 11.9075 18.2607 11.9075 18.8002V23.6824C12.7164 23.5928 13.4921 23.2916 14.0775 22.8178C14.6828 22.3278 15.0807 21.6481 15.0807 20.8278C15.0807 19.4077 16.1457 18.548 16.7812 18.0351C16.7999 18.0201 17.0082 17.847 17.0083 17.8472C17.2066 17.6704 17.5108 17.6766 17.7017 17.8664L23.9238 24.0846C24.4679 24.6285 25.2219 24.7794 25.9339 24.4888C26.366 24.3125 26.7625 24.121 27.1487 23.9285L24.0273 14.9149ZM33.16 12.1051C30.2816 11.5235 27.4033 11.8407 24.5249 13.0566C24.492 13.0705 24.4756 13.1074 24.4873 13.1411L28.5883 24.9833C28.5979 25.0111 28.6229 25.0289 28.6522 25.0289H33.16V12.1051ZM0 12.1051V25.0289H4.50773C4.5371 25.0289 4.56207 25.0111 4.57168 24.9833L8.67269 13.1411C8.68439 13.1073 8.66795 13.0705 8.63506 13.0566C5.75671 11.8407 2.87835 11.5235 0 12.1051Z" fill="#192A56"/>
</svg>
