<svg width="28" height="33" viewBox="0 0 28 33" fill="none" xmlns="http://www.w3.org/2000/svg">
<path d="M13.8574 10.957C16.8831 10.957 19.3359 8.50422 19.3359 5.47852C19.3359 2.45282 16.8831 0 13.8574 0C10.8317 0 8.37891 2.45282 8.37891 5.47852C8.37891 8.50422 10.8317 10.957 13.8574 10.957Z" fill="#192A56"/>
<path d="M17.8831 11.6992C16.7231 12.4525 15.3406 12.8906 13.8574 12.8906C12.3743 12.8906 10.9917 12.4525 9.83174 11.6992C8.54945 12.1893 7.36055 12.9122 6.32678 13.8401L13.8574 16.6641L21.3881 13.8401C20.3543 12.9122 19.1654 12.1892 17.8831 11.6992Z" fill="#192A56"/>
<path d="M25.459 19.9805H24.8145C24.2805 19.9805 23.8477 20.4133 23.8477 20.9473V23.5254C23.8477 24.0593 24.2805 24.4922 24.8145 24.4922H25.459C26.7049 24.4922 27.7148 23.4822 27.7148 22.2363C27.7148 20.9904 26.7049 19.9805 25.459 19.9805Z" fill="#192A56"/>
<path d="M2.99423 15.0999C2.73359 15.2805 2.57812 15.5774 2.57812 15.8945V18.0469H2.90039C4.49967 18.0469 5.80078 19.348 5.80078 20.9473V23.5254C5.80078 25.1247 4.49967 26.4258 2.90039 26.4258H2.57812V28.4629C2.57812 28.8659 2.82814 29.2266 3.20545 29.3681L12.8906 33V18.3666L3.8844 14.9893C3.58746 14.8778 3.25482 14.9191 2.99423 15.0999Z" fill="#192A56"/>
<path d="M21.9141 23.5254V20.9473C21.9141 19.348 23.2152 18.0469 24.8145 18.0469H25.1367V15.8945C25.1367 15.5774 24.9813 15.2805 24.7206 15.0999C24.46 14.9191 24.1273 14.8778 23.8304 14.9893L14.8242 18.3666V33L24.5094 29.3681C24.8867 29.2266 25.1367 28.8659 25.1367 28.4629V26.4258H24.8145C23.2152 26.4258 21.9141 25.1247 21.9141 23.5254Z" fill="#192A56"/>
<path d="M3.86719 23.5254V20.9473C3.86719 20.4133 3.43432 19.9805 2.90039 19.9805H2.25586C1.00998 19.9805 0 20.9904 0 22.2363C0 23.4822 1.00998 24.4922 2.25586 24.4922H2.90039C3.43432 24.4922 3.86719 24.0593 3.86719 23.5254Z" fill="#192A56"/>
</svg>
