<svg width="38" height="33" viewBox="0 0 38 33" fill="none" xmlns="http://www.w3.org/2000/svg">
<path d="M34.2628 0H17.6837C15.7651 0 14.2101 1.55526 14.2101 3.47358V11.64C15.0865 12.0756 16.0334 12.5466 16.9173 12.986L18.2696 10.2802C19.0884 8.64407 21.0845 7.9793 22.7201 8.79666C24.3591 9.6169 25.0233 11.6075 24.2028 13.2468L21.7921 18.0692C21.856 18.7075 21.7993 19.351 21.6194 19.9737H23.2109L19.0133 31.5164C18.7642 32.2011 19.2456 33 20.0526 33C20.5038 33 20.9281 32.7216 21.0911 32.2719L25.5634 19.9737H26.3382L30.856 32.2756C31.0204 32.723 31.4436 33 31.8944 33C32.6485 33 33.2012 32.2468 32.9315 31.5135L28.6935 19.9737H34.2628C36.1811 19.9737 37.7363 18.4185 37.7363 16.5001V3.47358C37.7363 1.55526 36.1811 0 34.2628 0ZM31.8939 15.2374H26.9335C26.3232 15.2374 25.828 14.7422 25.828 14.1318C25.828 13.5209 26.3232 13.0263 26.9335 13.0263H31.8939C32.5048 13.0263 32.9994 13.5209 32.9994 14.1318C32.9994 14.7422 32.5048 15.2374 31.8939 15.2374ZM31.8939 11.0924H26.9335C26.3232 11.0924 25.828 10.5978 25.828 9.98686C25.828 9.3765 26.3232 8.8813 26.9335 8.8813H31.8939C32.5048 8.8813 32.9994 9.3765 32.9994 9.98686C32.9994 10.5978 32.5048 11.0924 31.8939 11.0924ZM31.8939 6.94802H20.0526C19.4417 6.94802 18.9471 6.45282 18.9471 5.84246C18.9471 5.2321 19.4417 4.73691 20.0526 4.73691H31.8939C32.5048 4.73691 32.9994 5.2321 32.9994 5.84246C32.9994 6.45282 32.5048 6.94802 31.8939 6.94802Z" fill="#192A56"/>
<path d="M19.452 19.4995C19.6518 18.9142 19.6504 18.3027 19.4817 17.7447L22.2254 12.2578C22.4984 11.7116 22.2773 11.0475 21.7311 10.7745C21.1852 10.5013 20.521 10.7227 20.2478 11.2689L17.9077 15.9485C16.5091 15.252 14.384 14.1954 12.6722 13.3441C11.0795 12.552 9.94281 11.8418 8.00348 11.8418H7.02662C8.53668 11.8418 9.88437 11.1468 10.7665 10.0591C11.4396 9.23134 11.8421 8.17646 11.8421 7.02685C11.8421 4.36689 9.68629 2.21106 7.02604 2.21106C4.36695 2.21106 2.21111 4.36689 2.21111 7.02685C2.21111 8.30429 2.70861 9.46512 3.52022 10.3265C4.39775 11.2596 5.6441 11.8418 7.02575 11.8421C5.17337 11.8421 3.36245 12.5926 2.05967 13.8989C0.731568 15.2235 0 16.9884 0 18.8684V22.4209C0 23.9502 0.992986 25.2516 2.36831 25.7145V31.8941C2.36831 32.5047 2.86322 32.9997 3.47387 32.9997H10.5788C11.1894 32.9997 11.6844 32.5047 11.6844 31.8941V19.4724C12.7326 19.9964 14.1097 20.6848 15.2239 21.2422C16.0049 21.6326 16.9176 21.6677 17.7315 21.3366C18.5431 21.0026 19.1687 20.3379 19.4477 19.5124C19.4492 19.5081 19.4506 19.5038 19.452 19.4995Z" fill="#192A56"/>
</svg>
