<svg width="33" height="33" viewBox="0 0 33 33" fill="none" xmlns="http://www.w3.org/2000/svg">
<path d="M5.80078 11.7305C3.66796 11.7305 1.93359 9.9961 1.93359 7.86328C1.93359 5.73046 3.66796 3.99609 5.80078 3.99609C7.9336 3.99609 9.66797 5.73046 9.66797 7.86328C9.66797 9.9961 7.9336 11.7305 5.80078 11.7305Z" fill="#192A56"/>
<path d="M27.1992 11.7305C25.0664 11.7305 23.332 9.9961 23.332 7.86328C23.332 5.73046 25.0664 3.99609 27.1992 3.99609C29.332 3.99609 31.0664 5.73046 31.0664 7.86328C31.0664 9.9961 29.332 11.7305 27.1992 11.7305Z" fill="#192A56"/>
<path d="M16.5 9.66797C13.8347 9.66797 11.666 7.49931 11.666 4.83398C11.666 2.16865 13.8347 0 16.5 0C19.1653 0 21.334 2.16865 21.334 4.83398C21.334 7.49931 19.1653 9.66797 16.5 9.66797Z" fill="#192A56"/>
<path d="M17.4668 9.76575V16.4356C17.4668 16.97 17.0344 17.4024 16.5 17.4024C15.9656 17.4024 15.5332 16.97 15.5332 16.4356V9.76575C12.2622 10.2399 9.73242 13.0354 9.73242 16.4356V22.2364C9.73242 22.7708 10.1648 23.2032 10.6992 23.2032H12.8651L13.6034 32.1145C13.6449 32.6148 14.0641 33.0001 14.5664 33.0001H18.4336C18.9359 33.0001 19.3551 32.6148 19.3966 32.1145L20.1349 23.2032H22.3008C22.8352 23.2032 23.2676 22.7708 23.2676 22.2364V16.4356C23.2676 13.0354 20.7378 10.2399 17.4668 9.76575Z" fill="#192A56"/>
<path d="M7.73438 22.3652V16.5645C7.73438 15.1153 8.12432 13.7686 8.75344 12.5657C7.88532 12.0474 6.88321 11.7305 5.80078 11.7305C2.60204 11.7305 0 14.3325 0 17.5312V22.3652C0 22.8996 0.432416 23.332 0.966797 23.332H2.02518L2.9051 32.1295C2.95421 32.6233 3.37058 33 3.86719 33H7.73438C8.23099 33 8.64735 32.6233 8.69647 32.1295L9.41106 24.9853C8.42396 24.5221 7.73438 23.5258 7.73438 22.3652Z" fill="#192A56"/>
<path d="M33 17.5312C33 14.3325 30.398 11.7305 27.1992 11.7305C26.1168 11.7305 25.1147 12.0474 24.2465 12.5657C24.8757 13.7686 25.2656 15.1153 25.2656 16.5645V22.3652C25.2656 23.5258 24.576 24.5221 23.5889 24.9853L24.3035 32.1295C24.3526 32.6233 24.769 33 25.2656 33H29.1328C29.6294 33 30.0458 32.6233 30.0949 32.1295L30.9748 23.332H32.0332C32.5676 23.332 33 22.8996 33 22.3652V17.5312Z" fill="#192A56"/>
</svg>
