<svg width="34" height="33" viewBox="0 0 34 33" fill="none" xmlns="http://www.w3.org/2000/svg">
<path fill-rule="evenodd" clip-rule="evenodd" d="M26.6466 2.25247H24.7403V1.81788C24.7403 0.818013 23.9223 0 22.9225 0C21.9226 0 21.1047 0.817946 21.1047 1.81788V2.25247H19.1983V4.82627H26.6466V2.25247ZM22.9225 2.45174C22.5733 2.45174 22.2885 2.16695 22.2885 1.81781C22.2885 1.46868 22.5733 1.18388 22.9225 1.18388C23.2716 1.18388 23.5564 1.46868 23.5564 1.81781C23.5564 2.16695 23.2716 2.45174 22.9225 2.45174ZM2.66566 13.4943C2.66566 13.196 2.42387 12.9542 2.12563 12.9542C1.8274 12.9542 1.5856 13.196 1.5856 13.4943V21.0368C1.50372 21.0527 1.4192 21.0611 1.3328 21.0611C0.599773 21.0611 0 20.4613 0 19.7282V12.9205C0 11.2017 1.40186 9.79989 3.12064 9.79989H3.82363L5.38749 12.5085H5.34679C4.90889 12.5085 4.5526 12.8646 4.5526 13.3025V16.1343C4.5526 16.572 4.90889 16.9284 5.34679 16.9284H7.27079C7.70869 16.9284 8.06497 16.572 8.06497 16.1343V13.3025C8.06497 12.8646 7.70869 12.5085 7.27079 12.5085H7.2583L8.93604 9.6021C9.88434 9.34761 10.7328 8.84795 11.4751 8.10561L14.0427 5.53803C14.1992 5.38149 14.3842 5.27051 14.5809 5.20186V3.29966C14.5809 2.72372 15.0521 2.25247 15.6281 2.25247H18.2533V3.64663H15.9751V5.45162C16.0078 5.47896 16.04 5.50731 16.0708 5.53803C16.6285 6.09575 16.6285 7.0084 16.0708 7.56612L15.9751 7.66184V20.0947H29.8698V3.64663H27.5916V2.25247H30.2167C30.7927 2.25247 31.2639 2.72372 31.2639 3.29966V20.4417C31.2639 21.0176 30.7927 21.4889 30.2167 21.4889H15.6281C15.0522 21.4889 14.5809 21.0177 14.5809 20.4417V9.056L13.3842 10.2528C12.243 11.3939 11.4853 11.8482 10.6634 12.196C10.1169 12.4273 9.78092 12.9343 9.78092 13.5277V19.469H2.66566V13.4942V13.4943ZM7.57645 9.79699L6.32276 11.9685L5.0709 9.79989H7.38487C7.44913 9.79989 7.51299 9.79888 7.57651 9.79706L7.57645 9.79699ZM6.32276 13.5884H6.98491V15.8485H5.63267V13.5884H6.32276ZM8.40269 29.8702V32.1654C8.40269 32.4303 8.46102 32.6819 8.56524 32.908C8.38805 32.9676 8.1987 33 8.00206 33C7.52163 33 7.08421 32.8069 6.76329 32.4946V24.7835C6.76329 24.4852 6.52149 24.2435 6.22326 24.2435C5.92503 24.2435 5.68323 24.4852 5.68323 24.7835V32.4946C5.36231 32.8069 4.92489 33 4.44446 33C3.46613 33 2.66566 32.1993 2.66566 31.2213V20.4563H9.78092V27.4757C8.93078 27.9626 8.40276 28.858 8.40276 29.8702L8.40269 29.8702ZM3.70624 5.67391C3.70624 4.28758 4.83693 3.15689 6.22333 3.15689C7.60972 3.15689 8.74035 4.28758 8.74035 5.67391C8.74035 7.06024 7.60966 8.19093 6.22333 8.19093C4.837 8.19093 3.70624 7.06024 3.70624 5.67391ZM21.7546 7.15765C21.7546 6.85942 21.9964 6.61762 22.2947 6.61762H24.8482C25.1465 6.61762 25.3883 6.85942 25.3883 7.15765C25.3883 7.45588 25.1465 7.69768 24.8482 7.69768H22.2947C21.9964 7.69768 21.7546 7.45588 21.7546 7.15765ZM27.9077 8.78483C27.9077 9.08307 27.6659 9.32487 27.3677 9.32487H22.2946C21.9964 9.32487 21.7546 9.08307 21.7546 8.78483C21.7546 8.4866 21.9964 8.2448 22.2946 8.2448H27.3677C27.6659 8.2448 27.9077 8.4866 27.9077 8.78483ZM20.8533 9.18061C20.8533 9.32271 20.737 9.43895 20.5949 9.43895H18.1761C18.034 9.43895 17.9177 9.32271 17.9177 9.18061V6.76187C17.9177 6.61978 18.034 6.50354 18.1761 6.50354H20.5949C20.737 6.50354 20.8533 6.61978 20.8533 6.76187V9.18061ZM20.8533 13.6496C20.8533 13.7917 20.737 13.908 20.5949 13.908H18.1761C18.034 13.908 17.9177 13.7917 17.9177 13.6496V11.2309C17.9177 11.0888 18.034 10.9726 18.1761 10.9726H20.5949C20.737 10.9726 20.8533 11.0888 20.8533 11.2309V13.6496ZM20.8533 15.6999V18.1187C20.8533 18.2608 20.737 18.377 20.5949 18.377H18.1761C18.034 18.377 17.9177 18.2608 17.9177 18.1187V15.6999C17.9177 15.5578 18.034 15.4416 18.1761 15.4416H20.5949C20.737 15.4416 20.8533 15.5578 20.8533 15.6999ZM27.9077 13.2539C27.9077 13.5521 27.6659 13.7939 27.3677 13.7939H22.2946C21.9964 13.7939 21.7546 13.5521 21.7546 13.2539C21.7546 12.9556 21.9964 12.7138 22.2946 12.7138H27.3677C27.6659 12.7138 27.9077 12.9556 27.9077 13.2539ZM21.7546 11.6267C21.7546 11.3285 21.9964 11.0867 22.2947 11.0867H24.8482C25.1465 11.0867 25.3883 11.3285 25.3883 11.6267C25.3883 11.9249 25.1465 12.1667 24.8482 12.1667H22.2947C21.9964 12.1667 21.7546 11.9249 21.7546 11.6267ZM21.7546 16.0957C21.7546 15.7975 21.9964 15.5557 22.2947 15.5557H24.8482C25.1465 15.5557 25.3883 15.7975 25.3883 16.0957C25.3883 16.394 25.1465 16.6357 24.8482 16.6357H22.2947C21.9964 16.6357 21.7546 16.394 21.7546 16.0957ZM21.7546 17.7229C21.7546 17.4247 21.9964 17.1829 22.2947 17.1829H27.3677C27.666 17.1829 27.9078 17.4247 27.9078 17.7229C27.9078 18.0211 27.666 18.2629 27.3677 18.2629H22.2947C21.9964 18.2629 21.7546 18.0211 21.7546 17.7229ZM31.427 25.1382C31.427 26.2485 30.5269 27.1486 29.4165 27.1486C28.3061 27.1486 27.4061 26.2485 27.4061 25.1382C27.4061 24.0279 28.3062 23.1277 29.4165 23.1277C30.5268 23.1277 31.427 24.0278 31.427 25.1382ZM25.9192 29.8702V32.1654C25.9192 32.6251 25.5443 33 25.0845 33H18.8005C18.9334 32.7509 19.0088 32.4668 19.0088 32.1654V29.8702C19.0088 29.2251 18.7943 28.6274 18.4187 28.1527C20.3495 27.4667 22.7794 27.4673 24.7092 28.1547C25.4482 28.418 25.9192 29.0857 25.9192 29.8702ZM21.5611 23.1277C22.6715 23.1277 23.5716 24.0278 23.5716 25.1382C23.5716 26.2486 22.6715 27.1486 21.5611 27.1486C20.4507 27.1486 19.5507 26.2485 19.5507 25.1382C19.5507 24.0279 20.4508 23.1277 21.5611 23.1277ZM18.0638 29.8702V32.1654C18.0638 32.6251 17.6889 33 17.2292 33H10.1824C9.72274 33 9.34782 32.6251 9.34782 32.1654V29.8702C9.34782 29.0857 9.81879 28.418 10.5578 28.1547C12.4895 27.4666 14.9222 27.4666 16.8539 28.1547C17.593 28.418 18.0639 29.0857 18.0639 29.8702H18.0638ZM15.7162 25.1382C15.7162 26.2485 14.8161 27.1486 13.7057 27.1486C12.5954 27.1486 11.6953 26.2485 11.6953 25.1382C11.6953 24.0279 12.5954 23.1277 13.7057 23.1277C14.816 23.1277 15.7162 24.0278 15.7162 25.1382ZM33.7745 29.8702V32.1654C33.7745 32.6251 33.3996 33 32.9399 33H26.6559C26.7888 32.7509 26.8642 32.4668 26.8642 32.1654V29.8702C26.8642 29.2251 26.6497 28.6274 26.2741 28.1527C28.2049 27.4667 30.6348 27.4673 32.5646 28.1547C33.3036 28.418 33.7745 29.0857 33.7745 29.8702Z" fill="#192A56"/>
</svg>
