<svg width="27" height="33" viewBox="0 0 27 33" fill="none" xmlns="http://www.w3.org/2000/svg">
<path d="M20.6242 14.437C17.4971 14.437 14.9526 16.9815 14.9526 20.1086C14.9526 23.2358 17.4971 25.7803 20.6242 25.7803C23.7514 25.7803 26.2959 23.2358 26.2959 20.1086C26.2959 16.9815 23.7514 14.437 20.6242 14.437ZM23.0289 19.1986C21.3802 21.672 21.8477 20.9708 20.9665 22.2922C20.6499 22.767 20.0091 22.8929 19.5363 22.5777L17.9895 21.5465C17.5158 21.2307 17.3882 20.5907 17.704 20.1164C18.0198 19.6426 18.6598 19.515 19.1341 19.8308L19.8225 20.2897C21.4671 17.8231 21.3787 17.8914 21.6554 17.7336C22.5947 17.1903 23.6325 18.292 23.0289 19.1986ZM15.9838 26.292V31.9675C15.9838 32.7576 16.8396 33.2556 17.5267 32.8628L20.6242 31.0929L23.7217 32.8628C24.4061 33.255 25.2647 32.7598 25.2647 31.9675V26.292C22.5173 28.3591 18.7351 28.362 15.9838 26.292ZM22.6866 12.6542V2.23966C22.6866 1.00479 21.6819 0 20.447 0H2.23966C1.00479 0 0 1.00479 0 2.23966V26.1186C0 27.3535 1.00479 28.3583 2.23966 28.3583H13.9214C13.9214 23.9207 13.9145 24.1954 13.9375 23.9911C10.4854 18.0728 15.9823 10.7924 22.6866 12.6542ZM6.18727 5.15606H14.9526C15.5223 5.15606 15.9838 5.61752 15.9838 6.18727C15.9838 6.75701 15.5223 7.21848 14.9526 7.21848H6.18727C5.61752 7.21848 5.15606 6.75701 5.15606 6.18727C5.15606 5.61752 5.61752 5.15606 6.18727 5.15606ZM11.3433 15.4682H6.18727C5.61752 15.4682 5.15606 15.0067 5.15606 14.437C5.15606 13.8672 5.61752 13.4057 6.18727 13.4057H11.3433C11.9131 13.4057 12.3745 13.8672 12.3745 14.437C12.3745 15.0067 11.9131 15.4682 11.3433 15.4682ZM6.18727 11.3433C5.61752 11.3433 5.15606 10.8819 5.15606 10.3121C5.15606 9.74237 5.61752 9.2809 6.18727 9.2809H14.9526C15.5223 9.2809 15.9838 9.74237 15.9838 10.3121C15.9838 10.8819 15.5223 11.3433 14.9526 11.3433H6.18727Z" fill="#192A56"/>
</svg>
