<svg width="33" height="33" viewBox="0 0 33 33" fill="none" xmlns="http://www.w3.org/2000/svg">
<path fill-rule="evenodd" clip-rule="evenodd" d="M2.931 26.6804L1.46314 25.3514C0.68691 24.6481 0.27684 23.757 0.251008 22.7114L0.00044579 12.7845C-0.0195734 11.9605 0.637185 11.2689 1.4612 11.2488C2.28651 11.2288 2.97685 11.8856 2.9988 12.7096L3.09954 16.7296C2.61779 16.8465 2.16575 17.1028 1.80928 17.4968C0.862562 18.5423 0.945222 20.1709 1.99074 21.1176L4.61971 23.4954C4.81021 23.6672 5.10469 23.653 5.27711 23.4625L5.36688 23.3656C5.53865 23.1751 5.52445 22.8787 5.33394 22.7069L2.70497 20.3292C2.09342 19.7744 2.04628 18.8225 2.59906 18.211C2.75082 18.0424 2.93229 17.9178 3.12796 17.8358C3.64975 17.6182 4.27228 17.7041 4.71658 18.1051C6.05463 19.3172 7.39463 20.5287 8.73268 21.7408C9.80532 22.7108 10.371 23.9429 10.4059 25.3875L10.4957 28.9006L4.11084 28.9058C3.99847 28.0365 3.60325 27.2881 2.931 26.6804ZM11.7323 29.9622L2.96006 29.9713C2.74436 29.9713 2.56807 30.1469 2.56807 30.3613L2.57194 32.6093C2.57194 32.8237 2.74759 32.9994 2.96393 32.9994L11.7362 32.9903C11.9519 32.9903 12.1282 32.8147 12.1282 32.5983L12.1243 30.3523C12.1243 30.1366 11.9487 29.961 11.7323 29.9622ZM26.4206 11.6421C26.4206 11.4826 26.3489 11.3476 26.2191 11.2559C26.0893 11.1642 25.9369 11.1442 25.7871 11.1972L16.8501 14.4132V15.5717L26.4206 13.2559V11.6421ZM6.41627 11.2559C6.28647 11.3476 6.21672 11.4833 6.21672 11.6421V13.2566L15.7852 15.5723V14.4138L6.8483 11.1978C6.69847 11.1442 6.54672 11.1642 6.41627 11.2559ZM28.0118 14.9337C27.8891 14.43 27.3822 14.1206 26.8785 14.2414L16.318 16.7974L5.75757 14.2414C5.25387 14.1206 4.74693 14.43 4.62617 14.9337C4.50347 15.4374 4.8128 15.9443 5.31651 16.067L16.0823 18.6721C16.227 18.7089 16.3845 18.7121 16.5402 18.674L27.3202 16.067C27.8232 15.9443 28.1326 15.4367 28.0118 14.9337ZM22.1739 10.4946V6.77294L16.5395 8.76452C16.391 8.81748 16.2463 8.81748 16.0965 8.76452L10.4621 6.77294V10.4946C14.3723 11.719 18.2767 11.7099 22.1739 10.4946ZM7.06463 7.58404C6.88511 7.7358 6.77145 7.96311 6.77145 8.21367V9.34121H8.42077V8.21367C8.42077 7.96311 8.30711 7.7358 8.12759 7.58404V4.8201L16.318 7.71578L27.2485 3.84949L16.318 0L5.38754 3.84949L7.06463 4.44232V7.58404ZM31.1748 11.2488C30.3495 11.2288 29.6592 11.8856 29.6372 12.7096L29.5365 16.7296C30.0182 16.8465 30.4722 17.1028 30.8267 17.4968C31.7735 18.5423 31.6927 20.1709 30.6453 21.1176L28.0183 23.4954C27.8277 23.6672 27.5313 23.653 27.3596 23.4625L27.2717 23.3656C27.098 23.1751 27.1122 22.8787 27.3027 22.7069L29.9317 20.3292C30.5433 19.7744 30.5904 18.8225 30.0376 18.211C29.8858 18.0424 29.7044 17.9178 29.5087 17.8358C28.9889 17.6182 28.3644 17.7041 27.9201 18.1051C26.582 19.3172 25.242 20.5287 23.904 21.7408C22.8313 22.7108 22.2676 23.9429 22.2308 25.3875L22.141 28.9006L28.5258 28.9058C28.6376 28.0378 29.0328 27.2894 29.705 26.6817L31.1729 25.3527C31.9491 24.6494 32.3592 23.7582 32.385 22.7127L32.6356 12.7858C32.6556 11.9611 31.9988 11.2689 31.1748 11.2488ZM29.6753 29.9719L20.903 29.9629C20.6874 29.961 20.5111 30.1366 20.5111 30.3529L20.5091 32.599C20.5072 32.8147 20.6828 32.991 20.8992 32.991L29.6727 33C29.8871 33 30.0628 32.8243 30.0628 32.6099L30.0667 30.362C30.0673 30.1476 29.8917 29.9719 29.6753 29.9719Z" fill="#192A56"/>
</svg>
