<svg width="261" height="74" viewBox="0 0 261 74" fill="none" xmlns="http://www.w3.org/2000/svg">
<path d="M168.491 3.31643C168.028 3.28443 167.572 3.43648 167.222 3.73945C166.968 4.04047 166.828 4.42041 166.824 4.8139C166.799 5.2623 166.786 5.78684 166.786 6.38752V16.9967C166.786 17.4451 166.786 17.8428 166.786 18.1558C166.782 18.4276 166.761 18.6988 166.722 18.968L167.624 18.9172L168.52 18.8664V19.9663H162.86V19.1203C163.33 19.1513 163.794 18.9998 164.155 18.6972C164.405 18.3951 164.543 18.0152 164.544 17.6228C164.569 17.1659 164.582 16.6456 164.582 16.0619V5.28768C164.582 4.9535 164.582 4.63624 164.607 4.32744C164.633 4.01864 164.637 3.73945 164.654 3.48141L163.757 3.53217L162.86 3.59139V2.49155H168.474L168.491 3.31643Z" fill="white"/>
<path d="M175.758 20.3682C174.789 20.3816 173.836 20.1174 173.012 19.6067C172.174 19.074 171.503 18.3161 171.075 17.4197C170.58 16.3752 170.337 15.2292 170.364 14.0737C170.34 12.8188 170.623 11.577 171.189 10.4569C171.708 9.42363 172.509 8.55786 173.498 7.95919C174.487 7.36052 175.625 7.05328 176.782 7.0728C177.333 7.07383 177.881 7.1449 178.414 7.28431C178.856 7.39278 179.282 7.55621 179.683 7.77078V4.36551C179.683 4.0976 179.683 3.84379 179.683 3.60408C179.683 3.36437 179.705 3.08236 179.747 2.75805L178.859 2.80881L177.974 2.85958V1.79358C178.54 1.80419 179.106 1.77025 179.667 1.69206C179.997 1.65649 180.321 1.57239 180.627 1.44248C180.807 1.36299 180.971 1.25277 181.113 1.11676H181.837V17.3436C181.837 17.6101 181.837 17.8766 181.811 18.1389C181.786 18.4011 181.769 18.7057 181.735 19.0399L182.623 18.9891L183.507 18.9384V19.9663H179.937C179.891 19.7167 179.853 19.4883 179.827 19.281C179.802 19.0737 179.781 18.858 179.764 18.6676C179.283 19.1959 178.697 19.6168 178.042 19.9028C177.323 20.2204 176.544 20.3791 175.758 20.3682ZM176.655 19.1414C177.241 19.132 177.814 18.9686 178.317 18.6676C178.851 18.3722 179.321 17.9739 179.7 17.4959C179.7 17.2971 179.675 17.0729 179.675 16.8571V16.1211L179.7 8.92984C179.306 8.63257 178.862 8.4077 178.389 8.2657C177.915 8.12542 177.424 8.05418 176.93 8.0542C176.144 8.03788 175.378 8.29343 174.76 8.77755C174.111 9.30585 173.626 10.0069 173.359 10.7996C173.027 11.7788 172.883 12.8124 172.936 13.8453C172.957 14.7754 173.126 15.6964 173.436 16.5737C173.679 17.2997 174.11 17.9488 174.683 18.4561C175.236 18.9162 175.936 19.1598 176.655 19.1414Z" fill="white"/>
<path d="M191.384 20.3682C190.293 20.3827 189.219 20.1021 188.275 19.556C187.347 19.0088 186.591 18.2132 186.092 17.259C185.533 16.1762 185.254 14.9706 185.28 13.7522C185.273 12.6146 185.543 11.4923 186.067 10.4823C186.582 9.48837 187.348 8.64574 188.288 8.03728C189.269 7.40576 190.416 7.08035 191.583 7.10241C192.252 7.09556 192.917 7.21022 193.546 7.44083C194.149 7.66222 194.697 8.01143 195.153 8.46452C195.639 8.95286 196.014 9.54004 196.253 10.1862C196.534 10.9656 196.669 11.7902 196.651 12.6185L187.865 12.7708C187.85 13.8948 187.992 15.0153 188.288 16.0999C188.501 16.9587 188.966 17.7338 189.624 18.325C190.293 18.8675 191.137 19.1472 191.997 19.1118C192.536 19.1073 193.071 19.0144 193.58 18.8368C194.115 18.6536 194.624 18.4019 195.094 18.0881C195.523 17.8033 195.902 17.4487 196.215 17.039L196.816 17.5382C196.399 18.2042 195.845 18.7739 195.191 19.2091C194.594 19.6099 193.937 19.9139 193.245 20.1101C192.639 20.2786 192.013 20.3654 191.384 20.3682ZM187.941 11.7048H194.286C194.287 11.1167 194.199 10.5319 194.024 9.97045C193.87 9.44477 193.578 8.97002 193.178 8.59566C192.746 8.22772 192.192 8.0359 191.625 8.05843C190.744 8.02399 189.884 8.32654 189.218 8.90446C188.558 9.49245 188.14 10.4231 187.941 11.7048Z" fill="white"/>
<path d="M206.431 19.9663C206.38 19.6843 206.347 19.4347 206.33 19.2176C206.33 19.0018 206.287 18.7945 206.258 18.545C205.719 19.0906 205.093 19.5424 204.405 19.8817C203.757 20.2052 203.043 20.3733 202.319 20.3724C201.056 20.3724 200.116 20.0904 199.498 19.5264C199.201 19.2609 198.965 18.9346 198.806 18.5695C198.647 18.2045 198.568 17.8094 198.576 17.4113C198.561 16.6852 198.814 15.9791 199.286 15.4273C199.796 14.8423 200.427 14.3747 201.135 14.0568C201.922 13.6872 202.752 13.4186 203.605 13.2573C204.456 13.0845 205.322 13.0051 206.19 13.0204V11.4552C206.193 10.9017 206.142 10.3492 206.038 9.80548C205.957 9.32608 205.731 8.88302 205.391 8.53643C204.944 8.16485 204.372 7.97731 203.792 8.01189C203.283 8.00042 202.778 8.09403 202.307 8.28685C201.817 8.46884 201.418 8.83459 201.194 9.30632C201.323 9.43234 201.414 9.59213 201.457 9.7674C201.496 9.92655 201.518 10.0898 201.52 10.2539C201.503 10.5026 201.417 10.7416 201.27 10.9434C201.172 11.0776 201.039 11.1821 200.885 11.2455C200.731 11.309 200.563 11.3288 200.399 11.3029C200.247 11.3126 200.094 11.2848 199.955 11.2222C199.815 11.1595 199.693 11.0638 199.599 10.9434C199.416 10.6999 199.319 10.4021 199.325 10.0974C199.326 9.52581 199.555 8.97827 199.959 8.5745C200.453 8.08303 201.056 7.71492 201.719 7.50005C202.536 7.2239 203.394 7.08942 204.257 7.10241C205.667 7.10241 206.699 7.47325 207.353 8.21494C208.008 8.95663 208.332 10.1256 208.326 11.7217V13.5788C208.326 14.2048 208.326 14.8267 208.326 15.4527C208.326 16.0788 208.326 16.7218 208.326 17.3394C208.326 17.6059 208.326 17.8724 208.301 18.1346C208.276 18.3969 208.263 18.7015 208.229 19.0357L209.113 18.9849L210.001 18.9341V19.9663H206.431ZM206.207 13.8495C205.607 13.8709 205.01 13.9416 204.422 14.061C203.827 14.1767 203.249 14.3657 202.7 14.6236C202.207 14.8502 201.773 15.1875 201.431 15.6092C201.101 16.0313 200.936 16.559 200.966 17.094C200.962 17.3558 201.016 17.6152 201.121 17.8546C201.227 18.094 201.383 18.3078 201.579 18.4815C201.955 18.7904 202.429 18.954 202.916 18.9426C203.533 18.9575 204.145 18.8256 204.701 18.5576C205.253 18.2675 205.761 17.9015 206.211 17.4705C206.211 17.2886 206.186 17.0898 206.186 16.8698V16.1972C206.186 16.1126 206.186 15.8461 206.186 15.3977C206.186 14.9493 206.187 14.4333 206.19 13.8495H206.207Z" fill="white"/>
<path d="M211.457 19.2176C211.653 19.2401 211.852 19.2171 212.039 19.1504C212.225 19.0836 212.394 18.9749 212.531 18.8326C212.749 18.5158 212.869 18.1424 212.878 17.7582C212.912 17.3013 212.929 16.7725 212.929 16.1718V4.36551C212.929 4.0976 212.929 3.84379 212.929 3.60408C212.929 3.36437 212.95 3.08236 212.992 2.75805L212.104 2.80881L211.22 2.85958V1.79358C211.786 1.80315 212.351 1.76921 212.912 1.69206C213.229 1.65289 213.54 1.56886 213.834 1.44248C214.015 1.36485 214.18 1.25442 214.32 1.11676H215.048L215.103 17.3436C215.103 17.6735 215.103 17.9697 215.078 18.2277C215.059 18.4987 215.025 18.7684 214.976 19.0357L215.763 18.9976L216.55 18.9595V19.9663H211.474L211.457 19.2176Z" fill="white"/>
<path d="M175.974 59.8396C175.871 58.6024 175.352 57.4365 174.502 56.5317C174.095 56.1497 173.616 55.8527 173.093 55.658C172.57 55.4634 172.014 55.375 171.456 55.398C170.632 55.3829 169.818 55.5842 169.096 55.9817C168.402 56.3785 167.805 56.9247 167.349 57.5807C166.855 58.2953 166.487 59.0894 166.262 59.9285C166.007 60.8587 165.882 61.8195 165.889 62.7838C165.863 64.1252 166.105 65.4583 166.6 66.7052C167.013 67.7585 167.703 68.6807 168.597 69.3744C169.461 70.028 170.521 70.3722 171.604 70.3516C172.732 70.3352 173.839 70.0527 174.837 69.5271C175.834 69.0015 176.694 68.2477 177.345 67.327L178.368 68.2534C177.696 69.2132 176.849 70.0382 175.873 70.6857C175.08 71.2063 174.207 71.5909 173.288 71.8236C172.541 72.0116 171.774 72.1124 171.004 72.124C169.808 72.1397 168.622 71.9048 167.522 71.4345C166.504 70.9936 165.587 70.3486 164.828 69.5394C164.065 68.7234 163.471 67.7645 163.081 66.7179C162.664 65.6049 162.456 64.4248 162.467 63.2365C162.468 62.0873 162.65 60.9454 163.004 59.8523C163.353 58.753 163.904 57.7285 164.629 56.832C165.369 55.9181 166.302 55.1798 167.362 54.6704C169.279 53.7911 171.448 53.6231 173.478 54.1966C174.27 54.4179 175.026 54.7497 175.725 55.1823L175.623 54.0359H177.345V59.8523L175.974 59.8396Z" fill="white"/>
<path d="M185.966 72.124C184.844 72.1383 183.736 71.8676 182.747 71.3372C181.793 70.8233 181.001 70.0525 180.463 69.1121C179.884 68.0904 179.592 66.9315 179.617 65.7576C179.592 64.507 179.883 63.2704 180.463 62.162C180.991 61.1557 181.78 60.3098 182.747 59.7127C183.699 59.1337 184.793 58.8319 185.907 58.8413C187.023 58.825 188.124 59.1006 189.101 59.6408C190.039 60.165 190.82 60.9321 191.36 61.8616C191.943 62.892 192.236 64.0619 192.206 65.2458C192.231 66.4966 191.953 67.7349 191.393 68.8541C190.893 69.8602 190.116 70.7031 189.154 71.2843C188.193 71.8656 187.085 72.1612 185.962 72.1367L185.966 72.124ZM186.093 70.6011C186.415 70.623 186.737 70.5711 187.035 70.4494C187.334 70.3277 187.6 70.1394 187.815 69.8989C188.242 69.3843 188.533 68.7704 188.661 68.1138C188.819 67.3799 188.899 66.6311 188.898 65.8803C188.896 65.22 188.842 64.5609 188.737 63.909C188.64 63.2871 188.468 62.6792 188.225 62.0985C188.021 61.5999 187.704 61.1554 187.299 60.7999C186.909 60.4717 186.412 60.2985 185.903 60.3134C185.577 60.3063 185.254 60.3669 184.953 60.4914C184.652 60.616 184.381 60.8017 184.156 61.0368C183.7 61.5402 183.377 62.1494 183.217 62.8092C183.022 63.5507 182.926 64.3143 182.929 65.0808C182.928 65.9693 183.038 66.8545 183.255 67.7162C183.425 68.4919 183.776 69.2165 184.278 69.8312C184.501 70.0906 184.781 70.295 185.096 70.4286C185.41 70.5621 185.752 70.6212 186.093 70.6011Z" fill="white"/>
<path d="M194.105 71.7221V70.3981C194.287 70.4171 194.472 70.3996 194.648 70.3466C194.823 70.2936 194.987 70.2061 195.128 70.0893C195.345 69.8408 195.477 69.5296 195.505 69.2009C195.557 68.7701 195.581 68.3363 195.577 67.9023V63.2111C195.577 62.9121 195.585 62.5949 195.602 62.2593C195.602 61.9293 195.645 61.5867 195.678 61.2356L194.769 61.2863L193.923 61.3371V59.7127C194.541 59.7225 195.159 59.6857 195.771 59.6027C196.156 59.5539 196.532 59.4573 196.892 59.3151C197.099 59.2347 197.293 59.125 197.468 58.9894H198.517C198.547 59.1385 198.564 59.2899 198.568 59.442C198.568 59.5623 198.576 59.6824 198.593 59.8016C198.593 59.9285 198.631 60.1061 198.665 60.3388C199.021 60.0399 199.412 59.7843 199.828 59.5774C200.255 59.3589 200.701 59.1791 201.161 59.0401C201.572 58.9138 201.999 58.8468 202.43 58.8413C203.927 58.8413 204.997 59.2643 205.649 60.1654C206.3 61.0664 206.622 62.4539 206.622 64.3955V68.1646C206.622 68.4311 206.622 68.7526 206.622 69.1248C206.614 69.4887 206.585 69.8517 206.533 70.212C206.815 70.1781 207.107 70.157 207.409 70.1485H208.157V71.7475H202.07V70.4235C202.443 70.4597 202.815 70.3489 203.107 70.1147C203.329 69.8692 203.465 69.5568 203.491 69.2263C203.545 68.7956 203.571 68.3618 203.568 67.9277L203.542 64.3828C203.542 63.1857 203.365 62.2889 203.005 61.7009C202.822 61.4053 202.56 61.166 202.25 61.0093C201.94 60.8526 201.592 60.7845 201.245 60.8126C200.753 60.8328 200.269 60.9522 199.824 61.1637C199.383 61.3615 198.984 61.6415 198.648 61.9885C198.665 62.1888 198.673 62.3961 198.673 62.6104V63.2618L198.648 68.1773C198.648 68.4438 198.648 68.7652 198.648 69.1375C198.642 69.5013 198.614 69.8643 198.563 70.2246C198.83 70.1908 199.117 70.1697 199.409 70.1612H200.171V71.7602L194.105 71.7221Z" fill="white"/>
<path d="M209.735 71.7221V70.3981C209.918 70.4166 210.102 70.3989 210.278 70.3459C210.453 70.2929 210.617 70.2057 210.759 70.0893C210.974 69.8403 211.104 69.5291 211.131 69.2009C211.185 68.7702 211.21 68.3364 211.207 67.9023V63.2111C211.207 62.9121 211.216 62.5949 211.232 62.2593C211.232 61.9293 211.27 61.5867 211.304 61.2356L210.395 61.2863L209.549 61.3371V59.7127C210.167 59.7225 210.785 59.6857 211.397 59.6027C211.783 59.5537 212.161 59.4571 212.523 59.3151C212.728 59.2348 212.92 59.1251 213.094 58.9894H214.143C214.173 59.1385 214.19 59.2899 214.194 59.442C214.194 59.5623 214.202 59.6824 214.219 59.8016C214.219 59.9285 214.261 60.1061 214.295 60.3388C214.65 60.0399 215.039 59.7843 215.454 59.5774C215.883 59.3589 216.33 59.1791 216.791 59.0401C217.202 58.9131 217.629 58.8461 218.06 58.8413C219.557 58.8413 220.63 59.2827 221.279 60.1654C221.928 61.048 222.252 62.4581 222.252 64.3955V68.1646C222.252 68.4311 222.252 68.7526 222.252 69.1248C222.246 69.4886 222.218 69.8516 222.167 70.212C222.451 70.1781 222.738 70.157 223.039 70.1485H223.788V71.7475H217.696V70.4235C218.069 70.4597 218.441 70.3489 218.732 70.1147C218.957 69.8696 219.093 69.5573 219.122 69.2263C219.172 68.7953 219.196 68.3616 219.194 67.9277L219.168 64.3828C219.168 63.1857 218.991 62.2889 218.635 61.7009C218.451 61.4056 218.188 61.1667 217.877 61.0101C217.566 60.8534 217.218 60.7851 216.871 60.8126C216.379 60.8328 215.895 60.9522 215.45 61.1637C215.01 61.3605 214.612 61.6406 214.278 61.9885C214.295 62.1888 214.304 62.3961 214.304 62.6104V63.2618L214.278 68.1773C214.278 68.4438 214.278 68.7652 214.278 69.1375C214.271 69.5014 214.241 69.8644 214.189 70.2246C214.454 70.1908 214.736 70.1697 215.035 70.1612H215.797V71.7602L209.735 71.7221Z" fill="white"/>
<path d="M231.326 72.124C230.208 72.1446 229.104 71.864 228.132 71.3118C227.202 70.7714 226.449 69.9737 225.962 69.0148C225.424 67.9259 225.158 66.7224 225.188 65.508C225.181 64.3719 225.446 63.2506 225.962 62.2381C226.462 61.241 227.215 60.3922 228.145 59.7762C229.121 59.1431 230.264 58.8174 231.427 58.8413C232.113 58.8399 232.794 58.9412 233.449 59.1417C234.098 59.3407 234.695 59.6817 235.196 60.14C235.744 60.6537 236.167 61.286 236.432 61.9886C236.754 62.8839 236.898 63.8339 236.855 64.7847L228.466 64.9327C228.457 65.8633 228.587 66.79 228.851 67.6823C229.052 68.4112 229.466 69.0635 230.04 69.5563C230.658 70.0365 231.428 70.2796 232.21 70.2416C232.641 70.2332 233.068 70.1619 233.479 70.0301C233.961 69.8766 234.419 69.6574 234.841 69.3786C235.295 69.0838 235.699 68.7182 236.038 68.2957L236.986 69.1671C236.506 69.8979 235.887 70.5262 235.162 71.0157C234.552 71.4228 233.877 71.7232 233.166 71.904C232.563 72.0474 231.946 72.1212 231.326 72.124ZM228.606 63.4522H233.8C233.799 62.8761 233.702 62.3043 233.513 61.7601C233.369 61.3438 233.103 60.98 232.751 60.7153C232.393 60.4659 231.965 60.3383 231.529 60.3515C231.162 60.337 230.797 60.4022 230.458 60.5424C230.12 60.6826 229.815 60.8945 229.566 61.1637C229.028 61.8158 228.694 62.6116 228.606 63.4522Z" fill="white"/>
<path d="M244.735 72.124C243.661 72.1344 242.601 71.877 241.651 71.3752C240.709 70.8757 239.929 70.1168 239.405 69.1883C238.82 68.1323 238.528 66.9391 238.559 65.7322C238.554 64.8404 238.714 63.9553 239.033 63.1222C239.339 62.3142 239.792 61.5698 240.369 60.9268C240.944 60.2825 241.645 59.764 242.429 59.4039C243.258 59.0213 244.161 58.8291 245.073 58.8413C245.953 58.8149 246.829 58.9719 247.645 59.3024C248.278 59.5591 248.831 59.9813 249.244 60.5249C249.595 60.9896 249.788 61.5544 249.794 62.1366C249.802 62.5602 249.665 62.9738 249.405 63.3084C249.274 63.4734 249.108 63.6064 248.918 63.6973C248.728 63.7882 248.52 63.8346 248.309 63.8329C248.087 63.8641 247.859 63.8355 247.651 63.75C247.443 63.6645 247.262 63.5252 247.125 63.3464C246.92 63.0666 246.803 62.7326 246.787 62.3862C246.789 62.2046 246.814 62.024 246.863 61.849C246.915 61.6571 247 61.4755 247.112 61.3117C247.01 61.0272 246.805 60.7916 246.537 60.6518C246.281 60.5125 246.004 60.4154 245.716 60.3642C245.494 60.3174 245.266 60.3004 245.039 60.3134C244.59 60.3292 244.15 60.4503 243.755 60.667C243.361 60.8838 243.022 61.1901 242.768 61.5613C242.171 62.3608 241.871 63.5283 241.871 65.0554C241.861 65.9167 241.991 66.7739 242.256 67.5935C242.478 68.3128 242.889 68.9597 243.445 69.4674C244.014 69.9551 244.743 70.217 245.492 70.2035C246.233 70.2178 246.963 70.0322 247.607 69.6663C248.274 69.3138 248.853 68.8148 249.299 68.2069L250.298 69.129C249.82 69.8376 249.22 70.4551 248.525 70.9522C247.944 71.3618 247.297 71.6707 246.613 71.8659C246.001 72.0355 245.37 72.1223 244.735 72.124Z" fill="white"/>
<path d="M256.643 72.124C256.183 72.1252 255.725 72.0654 255.281 71.9463C254.836 71.8301 254.425 71.608 254.084 71.2991C253.685 70.9086 253.394 70.422 253.238 69.8862C252.996 69.0816 252.886 68.243 252.912 67.4031L252.963 60.9649H251.19V59.222C251.713 59.198 252.216 59.0199 252.637 58.7102C253.124 58.3706 253.541 57.9396 253.864 57.4411C254.204 56.9278 254.441 56.353 254.562 55.7491H256.085L256.059 59.2432H259.579V60.8422L256.059 60.9183L256.034 67.3312C256.031 67.7972 256.076 68.2621 256.169 68.7187C256.238 69.0967 256.412 69.4474 256.673 69.7297C256.802 69.8577 256.956 69.9574 257.126 70.0222C257.295 70.087 257.477 70.1156 257.658 70.1062C258.037 70.0883 258.407 69.9856 258.741 69.8059C259.247 69.5155 259.672 69.1024 259.976 68.6045L261 69.5309C260.656 70.0845 260.228 70.5812 259.731 71.003C259.346 71.3192 258.919 71.5798 258.462 71.7771C258.115 71.9261 257.749 72.0271 257.375 72.0774C257.036 72.1085 256.793 72.124 256.643 72.124Z" fill="white"/>
<path d="M22.8001 14.2302V58.8836C20.7697 58.8836 17.6774 59.0528 13.5234 59.3912V58.6298C14.516 58.4162 15.4442 57.9711 16.2322 57.3308C17.0202 56.6906 17.6458 55.8732 18.0582 54.9454C18.9042 53.0813 19.3272 49.7056 19.3272 44.8184V25.88C19.3272 22.2139 18.8901 19.5165 18.0159 17.7878C17.1416 16.059 15.6484 14.9578 13.5361 14.484V13.7226C16.9738 14.0074 20.0618 14.1766 22.8001 14.2302ZM25.977 58.8836V14.2302C29.0866 14.2514 32.1945 14.0819 35.2833 13.7226V14.484C33.5968 14.8085 32.1051 15.7822 31.1293 17.1955C30.0013 18.7494 29.4372 21.9545 29.4372 26.8107V47.0223C29.4372 51.3709 30.0295 54.2939 31.2139 55.7914C32.2175 57.1632 33.6493 58.1619 35.2833 58.6298V59.3912C32.1948 59.0286 29.0866 58.8591 25.977 58.8836Z" fill="white"/>
<path d="M103 20.2032C99.7797 24.3572 98.1708 29.8789 98.1736 36.7684C98.1736 44.848 100.165 50.9211 104.147 54.9877C101.123 53.713 98.7263 51.4104 96.9553 48.0798C95.1424 44.6342 94.2246 40.7883 94.2861 36.8953C94.2572 34.2041 94.7321 31.5312 95.6863 29.0146C96.5633 26.64 97.6082 24.7901 98.8208 23.4646C100.014 22.1432 101.428 21.0396 103 20.2032ZM138.25 49.6915H139.096L137.738 56.8489C135.281 57.8183 132.743 58.5699 130.154 59.0951C127.839 59.5644 125.484 59.8053 123.123 59.8143C116.287 59.8143 110.929 57.8233 107.048 53.8413C103.168 49.8593 101.24 44.112 101.266 36.5992C101.266 29.0865 103.341 23.3391 107.493 19.3571C111.644 15.3752 117.095 13.4011 123.846 13.4349C128.93 13.4625 133.97 14.3625 138.749 16.0957C138.526 19.6547 138.414 21.7585 138.411 22.4071C138.411 22.9993 138.411 23.5788 138.453 24.1414V25.1609C138.458 26.5611 138.387 27.9604 138.242 29.353H137.522C135.771 20.825 130.885 16.561 122.865 16.561C117.442 16.561 113.12 18.3264 109.9 21.8572C106.679 25.3879 105.072 30.4429 105.077 37.0222C105.077 42.8119 106.561 47.5144 109.527 51.1298C112.494 54.7451 116.929 56.5528 122.831 56.5528C125.933 56.5913 129.004 55.926 131.812 54.6069C134.316 53.4996 136.522 51.8152 138.25 49.6915Z" fill="white"/>
<path d="M175.758 33.8877C175.781 33.1029 175.662 32.3205 175.407 31.578C175.216 31.0249 174.853 30.5475 174.371 30.2159C173.85 29.8999 173.244 29.7521 172.636 29.7929H171.113V42.1238C171.113 42.5764 171.113 42.9698 171.088 43.3928C171.078 43.6943 171.053 43.9951 171.012 44.2939L172.099 44.2431C172.522 44.2431 172.818 44.2177 173.034 44.2177V45.8675H166.219V44.4927C166.592 44.498 166.961 44.4123 167.294 44.2431C167.56 44.0717 167.748 43.8029 167.818 43.4944C167.933 43.0124 167.982 42.5174 167.966 42.0223L167.992 29.8394H166.371C165.948 29.8186 165.525 29.896 165.136 30.0655C164.747 30.235 164.403 30.492 164.129 30.8166C163.613 31.4652 163.355 32.4889 163.355 33.8877H161.955L162.082 28.3885H177.031L177.179 33.8877H175.758Z" fill="#F6B93B"/>
<path d="M185.145 45.8463C185.1 45.6359 185.07 45.4224 185.056 45.2076C185.056 45.0327 185.043 44.8297 185.018 44.5984C184.502 45.1287 183.887 45.5526 183.208 45.8463C182.579 46.1097 181.905 46.2449 181.224 46.2439C180.749 46.2746 180.273 46.2087 179.824 46.0502C179.376 45.8917 178.964 45.6439 178.614 45.3218C178.317 45.0238 178.084 44.669 177.927 44.2787C177.771 43.8883 177.695 43.4705 177.704 43.0502C177.686 42.3239 177.914 41.6128 178.351 41.0324C178.808 40.4563 179.386 39.9871 180.043 39.6576C180.781 39.2882 181.561 39.0112 182.366 38.8327C183.199 38.6442 184.05 38.5408 184.904 38.5239V37.1322C184.908 36.6813 184.852 36.2319 184.739 35.7955C184.651 35.4181 184.447 35.0778 184.155 34.8226C183.795 34.5588 183.353 34.4314 182.907 34.463C182.526 34.4791 182.15 34.5592 181.795 34.6999C181.439 34.8256 181.129 35.0556 180.906 35.3598C181.035 35.4943 181.122 35.6633 181.156 35.8462C181.187 35.998 181.204 36.1524 181.207 36.3073C181.193 36.6491 181.071 36.9777 180.86 37.2464C180.726 37.4113 180.553 37.54 180.356 37.6205C180.159 37.7011 179.946 37.731 179.735 37.7075C179.535 37.7103 179.338 37.6685 179.157 37.585C178.977 37.5015 178.817 37.3786 178.69 37.2253C178.448 36.9203 178.321 36.54 178.33 36.1508C178.328 35.8421 178.388 35.5361 178.506 35.2507C178.623 34.9653 178.797 34.7062 179.015 34.4884C179.54 33.9743 180.177 33.5904 180.877 33.3674C181.719 33.0786 182.605 32.9355 183.495 32.9444C184.929 32.9444 186.033 33.3209 186.79 34.0696C187.548 34.8183 187.933 36.0155 187.916 37.6652V39.2515C187.916 39.7253 187.916 40.1991 187.916 40.6728C187.916 41.1466 187.916 41.6754 187.916 42.2592C187.916 42.5087 187.916 42.8218 187.89 43.194C187.865 43.5663 187.848 43.9385 187.814 44.3065C188.113 44.2727 188.418 44.2515 188.728 44.2431C189.038 44.2346 189.292 44.2219 189.489 44.205V45.8294L185.145 45.8463ZM184.857 39.9791C184.36 40.0112 183.867 40.0905 183.385 40.216C182.931 40.3275 182.494 40.4996 182.087 40.7278C181.723 40.9242 181.41 41.2023 181.173 41.54C180.949 41.8646 180.84 42.2548 180.864 42.6483C180.853 42.8637 180.892 43.0787 180.979 43.2763C181.066 43.4738 181.197 43.6484 181.363 43.7862C181.677 44.0266 182.063 44.1534 182.459 44.1458C182.913 44.1532 183.363 44.0517 183.77 43.8497C184.17 43.639 184.537 43.3695 184.857 43.0502V39.9791Z" fill="#F6B93B"/>
<path d="M190.635 44.5223C191.008 44.5574 191.38 44.445 191.672 44.2093C191.895 43.9672 192.027 43.6543 192.044 43.3252C192.089 42.8937 192.11 42.4602 192.107 42.0265V31.2396C192.107 30.9562 192.107 30.6474 192.133 30.3048C192.158 29.9621 192.175 29.611 192.209 29.243L191.283 29.2938L190.437 29.3445V27.7201C191.066 27.7279 191.695 27.6911 192.319 27.6102C192.712 27.5586 193.098 27.4621 193.47 27.3225C193.68 27.2419 193.878 27.1322 194.058 26.9968H195.179L195.204 42.2761C195.204 42.5426 195.204 42.8598 195.179 43.2363C195.153 43.6128 195.128 43.9724 195.081 44.3235C195.36 44.2896 195.652 44.2685 195.953 44.26H196.701V45.859H190.635V44.5223Z" fill="#F6B93B"/>
<path d="M204.418 46.244C203.298 46.2645 202.194 45.984 201.22 45.4318C200.29 44.8914 199.537 44.0937 199.05 43.1348C198.511 42.046 198.245 40.8424 198.276 39.628C198.273 38.499 198.538 37.3855 199.05 36.3793C199.549 35.3825 200.302 34.5348 201.233 33.9215C202.207 33.2852 203.351 32.9579 204.515 32.9824C205.2 32.9807 205.882 33.082 206.537 33.2828C207.185 33.4769 207.782 33.812 208.284 34.2642C208.832 34.7784 209.256 35.4105 209.524 36.1128C209.847 37.0081 209.99 37.9581 209.947 38.9089L201.558 39.0569C201.543 39.9819 201.664 40.9042 201.918 41.7938C202.12 42.5211 202.534 43.1719 203.107 43.6636C203.724 44.1463 204.494 44.391 205.277 44.3531C205.708 44.3455 206.136 44.2727 206.546 44.1373C207.028 43.9865 207.486 43.7686 207.908 43.4901C208.362 43.1937 208.766 42.8267 209.105 42.403L210.053 43.2786C209.573 44.0082 208.955 44.6364 208.234 45.1272C207.622 45.5349 206.946 45.834 206.233 46.0113C205.638 46.1571 205.03 46.2351 204.418 46.244ZM201.694 37.5552H206.888C206.888 36.9791 206.791 36.4071 206.601 35.8632C206.457 35.4457 206.192 35.0805 205.839 34.8141C205.481 34.5662 205.052 34.4401 204.617 34.4545C204.251 34.4402 203.887 34.5049 203.549 34.6444C203.211 34.7838 202.907 34.9947 202.658 35.2625C202.118 35.9152 201.783 36.7128 201.694 37.5552Z" fill="#F6B93B"/>
<path d="M211.905 45.8463V44.5223C212.088 44.5407 212.272 44.5226 212.448 44.4688C212.624 44.4151 212.787 44.3268 212.929 44.2093C213.145 43.9624 213.277 43.6525 213.305 43.3252C213.355 42.8941 213.379 42.4604 213.377 42.0265V37.331C213.377 37.0307 213.377 36.7177 213.402 36.3835C213.428 36.0493 213.445 35.7109 213.478 35.3598L212.565 35.4106L211.719 35.4613V33.8412C212.336 33.8498 212.952 33.8116 213.563 33.727C213.949 33.6798 214.327 33.5846 214.688 33.4435C214.893 33.3597 215.086 33.2503 215.264 33.1178H216.313C216.342 33.2656 216.357 33.4156 216.359 33.5662C216.36 33.6879 216.368 33.8094 216.385 33.93L216.461 34.4672C216.816 34.1693 217.205 33.9137 217.62 33.7058C218.047 33.4845 218.495 33.3046 218.957 33.1686C219.367 33.0385 219.795 32.97 220.226 32.9655C221.723 32.9655 222.797 33.3885 223.449 34.2896C224.1 35.1906 224.422 36.5781 224.422 38.5197V42.2888C224.422 42.5553 224.422 42.8725 224.422 43.249C224.414 43.6129 224.385 43.9759 224.333 44.3362C224.615 44.3023 224.907 44.2812 225.209 44.2727H225.957V45.8717H219.87V44.5477C220.243 44.5823 220.615 44.47 220.907 44.2346C221.129 43.9908 221.265 43.6798 221.292 43.3505C221.345 42.9198 221.371 42.486 221.368 42.0519L221.342 38.4943C221.342 37.293 221.165 36.3793 220.805 35.8082C220.62 35.5144 220.359 35.2767 220.048 35.1209C219.738 34.9651 219.391 34.897 219.045 34.9241C218.553 34.9427 218.07 35.0607 217.624 35.271C217.182 35.4756 216.783 35.7628 216.448 36.117C216.448 36.3158 216.473 36.54 216.473 36.743V37.3903L216.448 42.3099C216.448 42.5764 216.448 42.8937 216.448 43.2702C216.44 43.6338 216.411 43.9967 216.363 44.3573C216.644 44.3222 216.927 44.3011 217.209 44.2939H217.971V45.8929L211.905 45.8463Z" fill="#F6B93B"/>
<path d="M232.235 46.2439C231.775 46.2439 231.317 46.1856 230.872 46.0705C230.428 45.9494 230.018 45.7263 229.675 45.4191C229.278 45.0291 228.987 44.5443 228.829 44.0104C228.589 43.2054 228.481 42.3669 228.508 41.5273L228.559 35.0848L226.786 35.1102V33.3632C227.308 33.3391 227.812 33.161 228.233 32.8513C229.218 32.1366 229.903 31.0813 230.153 29.8902H231.676L231.651 33.3843H235.17V34.9833L231.651 35.0552L231.6 41.4554C231.597 41.9216 231.644 42.3868 231.74 42.8429C231.809 43.2198 231.981 43.57 232.239 43.8539C232.368 43.981 232.523 44.0797 232.692 44.1437C232.862 44.2078 233.043 44.2359 233.224 44.2262C233.605 44.2089 233.976 44.1062 234.312 43.9258C234.817 43.6361 235.241 43.2246 235.547 42.7287L236.57 43.6509C236.227 44.2065 235.799 44.7047 235.301 45.1272C234.916 45.4416 234.489 45.7007 234.032 45.8971C233.686 46.0485 233.32 46.1496 232.945 46.1974C232.615 46.2284 232.378 46.2439 232.235 46.2439Z" fill="#F6B93B"/>
<path d="M50.5926 14.2302H64.5774V58.8836H63.3084C61.4725 58.8836 58.7328 59.0528 55.0892 59.3912V58.6298C57.4327 58.0376 59.043 56.8376 59.92 55.03C60.7971 53.2223 61.2201 50.2612 61.1891 46.1467V17.1955H50.3811C47.6456 17.1955 45.711 17.7596 44.5773 18.8876C43.4436 20.0156 42.4975 22.149 41.7389 25.2878H40.7659C40.7363 24.9198 40.7236 24.5264 40.7236 24.0991C40.7349 23.3772 40.7914 22.6566 40.8928 21.9418C41.2135 19.2135 41.3829 16.4696 41.4005 13.7226C43.2569 13.9446 45.1234 14.0716 46.9927 14.1033L50.5926 14.2302ZM68.8118 58.8836H67.712V14.2302H82.9616C85.7233 14.2323 88.4825 14.0628 91.2231 13.7226C91.2231 14.2612 91.1808 15.2356 91.0962 16.6456C91.0116 17.9429 90.9693 19.5672 90.9693 21.5188C90.9675 22.778 90.8969 24.0362 90.7578 25.2878H89.7426C89.6833 22.9697 89.1038 21.0492 88.004 19.5264C86.9041 18.0035 84.5169 17.2266 80.8423 17.1955H71.2272V47.5299C71.2272 51.0015 71.7207 53.6143 72.7078 55.3684C73.1781 56.2197 73.8335 56.9547 74.6257 57.5192C75.4178 58.0836 76.3265 58.4632 77.2848 58.6298V59.3912C72.2932 59.0528 69.4689 58.8836 68.8118 58.8836Z" fill="#F6B93B"/>
<path d="M2.43656 28.6635H0V0H93.2324V2.43656H2.43656V28.6635Z" fill="#F6B93B"/>
<path d="M152.624 73.2407H59.3916V70.8042H150.187V44.5773H152.624V73.2407Z" fill="#F6B93B"/>
</svg>
