<svg width="26" height="26" viewBox="0 0 26 26" fill="none" xmlns="http://www.w3.org/2000/svg">
<circle cx="13" cy="13" r="13" fill="#F6B93B"/>
<path d="M14.7337 10.1399C14.4467 10.1399 14.2137 9.90698 14.2137 9.61994V8.83993H12.1337V9.61994C12.1337 9.90698 11.9008 10.1399 11.6137 10.1399C11.3267 10.1399 11.0938 9.90698 11.0938 9.61994V8.83993C11.0938 8.26637 11.5602 7.79993 12.1337 7.79993H14.2137C14.7873 7.79993 15.2537 8.26637 15.2537 8.83993V9.61994C15.2537 9.90698 15.0208 10.1399 14.7337 10.1399Z" fill="#192A56"/>
<path d="M13.5423 14.7575C13.4487 14.7939 13.3135 14.8199 13.1731 14.8199C13.0327 14.8199 12.8975 14.7939 12.7727 14.7471L6.93311 12.8023V16.7699C6.93311 17.5603 7.57271 18.1999 8.36311 18.1999H17.9831C18.7735 18.1999 19.4131 17.5603 19.4131 16.7699V12.8023L13.5423 14.7575Z" fill="#192A56"/>
<path d="M19.4131 10.7899V11.9807L13.2979 14.0191C13.2563 14.0347 13.2147 14.0399 13.1731 14.0399C13.1315 14.0399 13.0899 14.0347 13.0483 14.0191L6.93311 11.9807V10.7899C6.93311 9.99947 7.57271 9.35986 8.36311 9.35986H17.9831C18.7735 9.35986 19.4131 9.99947 19.4131 10.7899Z" fill="#192A56"/>
</svg>
