<svg width="26" height="26" viewBox="0 0 26 26" fill="none" xmlns="http://www.w3.org/2000/svg">
<circle cx="13" cy="13" r="13" fill="#F6B93B"/>
<path d="M12.9998 5.82092C10.1325 5.82092 7.7998 8.15363 7.7998 11.0209C7.7998 14.5793 12.4533 19.8032 12.6514 20.0238C12.8375 20.2311 13.1624 20.2307 13.3482 20.0238C13.5463 19.8032 18.1998 14.5793 18.1998 11.0209C18.1997 8.15363 15.8671 5.82092 12.9998 5.82092ZM12.9998 13.6371C11.5572 13.6371 10.3836 12.4635 10.3836 11.0209C10.3836 9.57829 11.5572 8.40467 12.9998 8.40467C14.4424 8.40467 15.616 9.57832 15.616 11.0209C15.616 12.4635 14.4424 13.6371 12.9998 13.6371Z" fill="#192A56"/>
</svg>
