<svg width="26" height="26" viewBox="0 0 26 26" fill="none" xmlns="http://www.w3.org/2000/svg">
<circle cx="13" cy="13" r="13" fill="#F6B93B"/>
<path d="M13.0001 6.06665C9.17109 6.06665 6.06689 9.17084 6.06689 12.9999C6.06689 16.8291 9.17109 19.9333 13.0001 19.9333C16.8294 19.9333 19.9336 16.8291 19.9336 12.9999C19.9292 9.17238 16.8276 6.07087 13.0001 6.06665ZM14.6234 10.6692H15.7323C16.0033 10.6692 16.223 10.889 16.223 11.16C16.223 11.4309 16.0033 11.6507 15.7323 11.6507H14.6234C14.389 13.0064 13.2074 13.9928 11.8316 13.9813H11.5015L14.5131 16.8305C14.71 17.0178 14.7187 17.3292 14.5327 17.5275C14.4431 17.622 14.32 17.6775 14.1896 17.6807C14.0596 17.6844 13.9336 17.6362 13.8389 17.5467L9.93103 13.8523C9.78529 13.7134 9.73831 13.5 9.81233 13.3126C9.88635 13.1255 10.0666 13.0016 10.268 12.9999H11.8316C12.6653 13.0097 13.3999 12.4549 13.6189 11.6507H10.268C9.99699 11.6507 9.77743 11.4309 9.77743 11.16C9.77743 10.889 9.99699 10.6692 10.268 10.6692H13.6189C13.3999 9.86482 12.6653 9.31025 11.8316 9.32003H10.268C9.99699 9.32003 9.77743 9.10028 9.77743 8.82932C9.77743 8.55837 9.99699 8.3388 10.268 8.3388H15.7323C16.0033 8.3388 16.223 8.55837 16.223 8.82932C16.223 9.10028 16.0033 9.32003 15.7323 9.32003H13.9739C14.3185 9.69588 14.5446 10.1653 14.6234 10.6692Z" fill="#192A56"/>
</svg>
