<svg width="261" height="74" viewBox="0 0 261 74" fill="none" xmlns="http://www.w3.org/2000/svg">
<path d="M168.491 3.31658C168.028 3.28457 167.572 3.43663 167.222 3.73959C166.968 4.04061 166.828 4.42056 166.824 4.81405C166.799 5.26244 166.786 5.78698 166.786 6.38766V16.9969C166.786 17.4453 166.786 17.8429 166.786 18.1559C166.782 18.4277 166.761 18.699 166.722 18.9681L167.624 18.9174L168.52 18.8666V19.9664H162.86V19.1204C163.33 19.1514 163.794 18.9999 164.155 18.6974C164.405 18.3952 164.543 18.0154 164.544 17.6229C164.569 17.1661 164.582 16.6458 164.582 16.062V5.28783C164.582 4.95364 164.582 4.63638 164.607 4.32758C164.633 4.01878 164.637 3.73959 164.654 3.48155L163.757 3.53232L162.86 3.59154V2.4917H168.474L168.491 3.31658Z" fill="white"/>
<path d="M175.758 20.3681C174.789 20.3816 173.836 20.1173 173.012 19.6067C172.174 19.0739 171.503 18.316 171.075 17.4197C170.58 16.3751 170.337 15.2292 170.364 14.0736C170.34 12.8187 170.623 11.5769 171.189 10.4569C171.708 9.42358 172.509 8.5578 173.498 7.95914C174.487 7.36047 175.625 7.05322 176.782 7.07274C177.333 7.07377 177.881 7.14484 178.414 7.28425C178.856 7.39272 179.282 7.55615 179.683 7.77072V4.36545C179.683 4.09754 179.683 3.84373 179.683 3.60403C179.683 3.36432 179.705 3.08231 179.747 2.758L178.859 2.80876L177.974 2.85952V1.79352C178.54 1.80414 179.106 1.77019 179.667 1.692C179.997 1.65643 180.321 1.57234 180.627 1.44242C180.807 1.36294 180.971 1.25271 181.113 1.1167H181.837V17.3435C181.837 17.61 181.837 17.8765 181.811 18.1388C181.786 18.4011 181.769 18.7056 181.735 19.0398L182.623 18.9891L183.507 18.9383V19.9662H179.937C179.891 19.7167 179.853 19.4882 179.827 19.2809C179.802 19.0737 179.781 18.8579 179.764 18.6676C179.283 19.1958 178.697 19.6167 178.042 19.9028C177.323 20.2204 176.544 20.3791 175.758 20.3681ZM176.655 19.1414C177.241 19.132 177.814 18.9686 178.317 18.6676C178.851 18.3721 179.321 17.9739 179.7 17.4958C179.7 17.297 179.675 17.0728 179.675 16.8571V16.121L179.7 8.92978C179.306 8.63252 178.862 8.40765 178.389 8.26565C177.915 8.12536 177.424 8.05412 176.93 8.05414C176.144 8.03782 175.378 8.29337 174.76 8.77749C174.111 9.30579 173.626 10.0068 173.359 10.7995C173.027 11.7787 172.883 12.8123 172.936 13.8452C172.957 14.7754 173.126 15.6964 173.436 16.5737C173.679 17.2996 174.11 17.9488 174.683 18.4561C175.236 18.9162 175.936 19.1597 176.655 19.1414Z" fill="white"/>
<path d="M191.384 20.3684C190.293 20.3829 189.219 20.1023 188.275 19.5562C187.347 19.009 186.591 18.2134 186.092 17.2592C185.533 16.1764 185.254 14.9708 185.28 13.7524C185.273 12.6148 185.543 11.4925 186.067 10.4825C186.582 9.48857 187.348 8.64594 188.288 8.03748C189.269 7.40596 190.416 7.08055 191.583 7.10261C192.252 7.09576 192.917 7.21042 193.546 7.44103C194.149 7.66242 194.697 8.01163 195.153 8.46472C195.639 8.95306 196.014 9.54024 196.253 10.1864C196.534 10.9658 196.669 11.7904 196.651 12.6187L187.865 12.771C187.85 13.895 187.992 15.0155 188.288 16.1001C188.501 16.9589 188.966 17.734 189.624 18.3252C190.293 18.8677 191.137 19.1474 191.997 19.112C192.536 19.1075 193.071 19.0146 193.58 18.837C194.115 18.6538 194.624 18.4021 195.094 18.0883C195.523 17.8035 195.902 17.4489 196.215 17.0392L196.816 17.5384C196.399 18.2044 195.845 18.7741 195.191 19.2093C194.594 19.6101 193.937 19.9141 193.245 20.1103C192.639 20.2788 192.013 20.3656 191.384 20.3684ZM187.941 11.705H194.286C194.287 11.1169 194.199 10.5321 194.024 9.97065C193.87 9.44497 193.578 8.97022 193.178 8.59586C192.746 8.22792 192.192 8.0361 191.625 8.05863C190.744 8.02419 189.884 8.32674 189.218 8.90466C188.558 9.49265 188.14 10.4233 187.941 11.705Z" fill="white"/>
<path d="M206.431 19.9663C206.38 19.6843 206.347 19.4347 206.33 19.2176C206.33 19.0018 206.287 18.7945 206.258 18.545C205.719 19.0907 205.093 19.5425 204.405 19.8817C203.757 20.2052 203.043 20.3733 202.319 20.3724C201.056 20.3724 200.116 20.0904 199.498 19.5264C199.201 19.261 198.965 18.9346 198.806 18.5696C198.647 18.2045 198.568 17.8094 198.576 17.4113C198.561 16.6852 198.814 15.9791 199.286 15.4273C199.796 14.8423 200.427 14.3748 201.135 14.0568C201.922 13.6872 202.752 13.4186 203.605 13.2573C204.456 13.0845 205.322 13.0051 206.19 13.0204V11.4552C206.193 10.9017 206.142 10.3492 206.038 9.80548C205.957 9.32608 205.731 8.88303 205.391 8.53644C204.944 8.16486 204.372 7.97732 203.792 8.0119C203.283 8.00043 202.778 8.09404 202.307 8.28686C201.817 8.46885 201.418 8.8346 201.194 9.30633C201.323 9.43235 201.414 9.59214 201.457 9.76741C201.496 9.92656 201.518 10.0898 201.52 10.2539C201.503 10.5026 201.417 10.7416 201.27 10.9434C201.172 11.0776 201.039 11.1821 200.885 11.2456C200.731 11.309 200.563 11.3288 200.399 11.303C200.247 11.3126 200.094 11.2848 199.955 11.2222C199.815 11.1595 199.693 11.0638 199.599 10.9434C199.416 10.7 199.319 10.4022 199.325 10.0974C199.326 9.52582 199.555 8.97828 199.959 8.57451C200.453 8.08304 201.056 7.71493 201.719 7.50005C202.536 7.22391 203.394 7.08943 204.257 7.10242C205.667 7.10242 206.699 7.47326 207.353 8.21495C208.008 8.95664 208.332 10.1256 208.326 11.7217V13.5788C208.326 14.2048 208.326 14.8267 208.326 15.4527C208.326 16.0788 208.326 16.7218 208.326 17.3394C208.326 17.6059 208.326 17.8724 208.301 18.1346C208.276 18.3969 208.263 18.7015 208.229 19.0357L209.113 18.9849L210.001 18.9341V19.9663H206.431ZM206.207 13.8495C205.607 13.8709 205.01 13.9417 204.422 14.061C203.827 14.1767 203.249 14.3657 202.7 14.6236C202.207 14.8502 201.773 15.1875 201.431 15.6092C201.101 16.0313 200.936 16.559 200.966 17.094C200.962 17.3558 201.016 17.6152 201.121 17.8546C201.227 18.094 201.383 18.3078 201.579 18.4815C201.955 18.7904 202.429 18.954 202.916 18.9426C203.533 18.9575 204.145 18.8256 204.701 18.5577C205.253 18.2675 205.761 17.9015 206.211 17.4705C206.211 17.2886 206.186 17.0898 206.186 16.8698V16.1972C206.186 16.1126 206.186 15.8461 206.186 15.3977C206.186 14.9493 206.187 14.4333 206.19 13.8495H206.207Z" fill="white"/>
<path d="M211.457 19.2175C211.653 19.24 211.852 19.217 212.039 19.1503C212.225 19.0835 212.394 18.9748 212.531 18.8326C212.749 18.5158 212.869 18.1424 212.878 17.7581C212.912 17.3012 212.929 16.7725 212.929 16.1718V4.36545C212.929 4.09754 212.929 3.84373 212.929 3.60403C212.929 3.36432 212.95 3.08231 212.992 2.758L212.104 2.80876L211.22 2.85952V1.79352C211.786 1.80309 212.351 1.76915 212.912 1.692C213.229 1.65283 213.54 1.5688 213.834 1.44242C214.015 1.3648 214.18 1.25436 214.32 1.1167H215.048L215.103 17.3435C215.103 17.6735 215.103 17.9696 215.078 18.2276C215.059 18.4986 215.025 18.7684 214.976 19.0356L215.763 18.9975L216.55 18.9595V19.9662H211.474L211.457 19.2175Z" fill="white"/>
<path d="M175.974 59.8398C175.871 58.6026 175.352 57.4367 174.502 56.5318C174.095 56.1498 173.616 55.8528 173.093 55.6581C172.57 55.4635 172.014 55.3751 171.456 55.3981C170.632 55.3831 169.818 55.5843 169.096 55.9819C168.402 56.3786 167.805 56.9248 167.349 57.5809C166.855 58.2955 166.487 59.0896 166.262 59.9286C166.007 60.8588 165.882 61.8196 165.889 62.784C165.863 64.1253 166.105 65.4584 166.6 66.7053C167.013 67.7586 167.703 68.6808 168.597 69.3745C169.461 70.0282 170.521 70.3723 171.604 70.3517C172.732 70.3353 173.839 70.0528 174.837 69.5272C175.834 69.0016 176.694 68.2478 177.345 67.3271L178.368 68.2535C177.696 69.2133 176.849 70.0384 175.873 70.6859C175.08 71.2065 174.207 71.5911 173.288 71.8238C172.541 72.0117 171.774 72.1125 171.004 72.1241C169.808 72.1398 168.622 71.905 167.522 71.4346C166.504 70.9937 165.587 70.3487 164.828 69.5395C164.065 68.7236 163.471 67.7646 163.081 66.718C162.664 65.6051 162.456 64.4249 162.467 63.2366C162.468 62.0874 162.65 60.9455 163.004 59.8525C163.353 58.7531 163.904 57.7287 164.629 56.8321C165.369 55.9183 166.302 55.18 167.362 54.6705C169.279 53.7912 171.448 53.6233 173.478 54.1968C174.27 54.4181 175.026 54.7499 175.725 55.1824L175.623 54.036H177.345V59.8525L175.974 59.8398Z" fill="white"/>
<path d="M185.966 72.1242C184.844 72.1385 183.736 71.8678 182.747 71.3374C181.793 70.8235 181.001 70.0527 180.463 69.1123C179.884 68.0906 179.592 66.9317 179.617 65.7578C179.592 64.5072 179.883 63.2705 180.463 62.1622C180.991 61.1559 181.78 60.31 182.747 59.7129C183.699 59.1339 184.793 58.8321 185.907 58.8415C187.023 58.8251 188.124 59.1008 189.101 59.641C190.039 60.1652 190.82 60.9323 191.36 61.8618C191.943 62.8922 192.236 64.062 192.206 65.2459C192.231 66.4968 191.953 67.7351 191.393 68.8543C190.893 69.8604 190.116 70.7033 189.154 71.2845C188.193 71.8658 187.085 72.1614 185.962 72.1369L185.966 72.1242ZM186.093 70.6013C186.415 70.6232 186.737 70.5712 187.035 70.4495C187.334 70.3278 187.6 70.1396 187.815 69.8991C188.242 69.3845 188.533 68.7706 188.661 68.114C188.819 67.3801 188.899 66.6313 188.898 65.8805C188.896 65.2202 188.842 64.5611 188.737 63.9092C188.64 63.2873 188.468 62.6794 188.225 62.0987C188.021 61.6001 187.704 61.1556 187.299 60.8001C186.909 60.4718 186.412 60.2987 185.903 60.3136C185.577 60.3065 185.254 60.3671 184.953 60.4916C184.652 60.6161 184.381 60.8018 184.156 61.0369C183.7 61.5404 183.377 62.1496 183.217 62.8094C183.022 63.5509 182.926 64.3145 182.929 65.081C182.928 65.9695 183.038 66.8547 183.255 67.7164C183.425 68.4921 183.776 69.2167 184.278 69.8314C184.501 70.0908 184.781 70.2952 185.096 70.4288C185.41 70.5623 185.752 70.6213 186.093 70.6013Z" fill="white"/>
<path d="M194.105 71.7221V70.3981C194.287 70.4171 194.472 70.3996 194.648 70.3466C194.823 70.2936 194.987 70.2061 195.128 70.0893C195.345 69.8408 195.477 69.5296 195.505 69.2009C195.557 68.7701 195.581 68.3363 195.577 67.9023V63.211C195.577 62.9121 195.585 62.5949 195.602 62.2593C195.602 61.9293 195.645 61.5867 195.678 61.2356L194.769 61.2863L193.923 61.3371V59.7127C194.541 59.7225 195.159 59.6857 195.771 59.6027C196.156 59.5539 196.532 59.4572 196.892 59.3151C197.099 59.2347 197.293 59.125 197.468 58.9894H198.517C198.547 59.1385 198.564 59.2899 198.568 59.442C198.568 59.5623 198.576 59.6824 198.593 59.8015C198.593 59.9285 198.631 60.1061 198.665 60.3388C199.021 60.0399 199.412 59.7843 199.828 59.5773C200.255 59.3589 200.701 59.1791 201.161 59.0401C201.572 58.9137 201.999 58.8468 202.43 58.8413C203.927 58.8413 204.997 59.2643 205.649 60.1653C206.3 61.0664 206.622 62.4538 206.622 64.3955V68.1645C206.622 68.431 206.622 68.7525 206.622 69.1248C206.614 69.4887 206.585 69.8517 206.533 70.2119C206.815 70.1781 207.107 70.1569 207.409 70.1485H208.157V71.7475H202.07V70.4234C202.443 70.4597 202.815 70.3489 203.107 70.1146C203.329 69.8692 203.465 69.5568 203.491 69.2263C203.545 68.7956 203.571 68.3617 203.568 67.9277L203.542 64.3828C203.542 63.1857 203.365 62.2889 203.005 61.7009C202.822 61.4053 202.56 61.166 202.25 61.0093C201.94 60.8525 201.592 60.7845 201.245 60.8126C200.753 60.8328 200.269 60.9522 199.824 61.1637C199.383 61.3615 198.984 61.6414 198.648 61.9885C198.665 62.1888 198.673 62.396 198.673 62.6104V63.2618L198.648 68.1772C198.648 68.4437 198.648 68.7652 198.648 69.1375C198.642 69.5013 198.614 69.8643 198.563 70.2246C198.83 70.1908 199.117 70.1696 199.409 70.1612H200.171V71.7602L194.105 71.7221Z" fill="white"/>
<path d="M209.735 71.7221V70.3981C209.918 70.4166 210.102 70.3989 210.278 70.3459C210.453 70.2929 210.617 70.2057 210.759 70.0893C210.974 69.8403 211.104 69.5291 211.131 69.2009C211.185 68.7702 211.21 68.3364 211.207 67.9023V63.211C211.207 62.9121 211.216 62.5949 211.232 62.2593C211.232 61.9293 211.27 61.5867 211.304 61.2356L210.395 61.2863L209.549 61.3371V59.7127C210.167 59.7225 210.785 59.6857 211.397 59.6027C211.783 59.5537 212.161 59.4571 212.523 59.3151C212.728 59.2348 212.92 59.1251 213.094 58.9894H214.143C214.173 59.1385 214.19 59.2899 214.194 59.442C214.194 59.5623 214.202 59.6824 214.219 59.8015C214.219 59.9285 214.261 60.1061 214.295 60.3388C214.65 60.0399 215.039 59.7843 215.454 59.5773C215.883 59.3589 216.33 59.1791 216.791 59.0401C217.202 58.9131 217.629 58.8461 218.06 58.8413C219.557 58.8413 220.63 59.2826 221.279 60.1653C221.928 61.048 222.252 62.4581 222.252 64.3955V68.1645C222.252 68.431 222.252 68.7525 222.252 69.1248C222.246 69.4886 222.218 69.8516 222.167 70.2119C222.451 70.1781 222.738 70.1569 223.039 70.1485H223.788V71.7475H217.696V70.4234C218.069 70.4597 218.441 70.3489 218.732 70.1146C218.957 69.8696 219.093 69.5572 219.122 69.2263C219.172 68.7953 219.196 68.3616 219.194 67.9277L219.168 64.3828C219.168 63.1857 218.991 62.2889 218.635 61.7009C218.451 61.4056 218.188 61.1667 217.877 61.0101C217.566 60.8534 217.218 60.7851 216.871 60.8126C216.379 60.8328 215.895 60.9522 215.45 61.1637C215.01 61.3605 214.612 61.6406 214.278 61.9885C214.295 62.1888 214.304 62.396 214.304 62.6104V63.2618L214.278 68.1772C214.278 68.4437 214.278 68.7652 214.278 69.1375C214.271 69.5013 214.241 69.8644 214.189 70.2246C214.454 70.1908 214.736 70.1696 215.035 70.1612H215.797V71.7602L209.735 71.7221Z" fill="white"/>
<path d="M231.326 72.1242C230.208 72.1448 229.104 71.8643 228.132 71.312C227.202 70.7717 226.449 69.974 225.962 69.0151C225.424 67.9261 225.158 66.7227 225.188 65.5083C225.181 64.3721 225.446 63.2508 225.962 62.2384C226.462 61.2412 227.215 60.3924 228.145 59.7764C229.121 59.1433 230.264 58.8176 231.427 58.8416C232.113 58.8401 232.794 58.9414 233.449 59.1419C234.098 59.341 234.695 59.682 235.196 60.1402C235.744 60.6539 236.167 61.2863 236.432 61.9888C236.754 62.8841 236.898 63.8341 236.855 64.7849L228.466 64.933C228.457 65.8635 228.587 66.7902 228.851 67.6826C229.052 68.4114 229.466 69.0638 230.04 69.5565C230.658 70.0367 231.428 70.2798 232.21 70.2418C232.641 70.2334 233.068 70.1621 233.479 70.0303C233.961 69.8768 234.419 69.6576 234.841 69.3788C235.295 69.084 235.699 68.7185 236.038 68.2959L236.986 69.1673C236.506 69.8981 235.887 70.5265 235.162 71.0159C234.552 71.4231 233.877 71.7235 233.166 71.9042C232.563 72.0476 231.946 72.1214 231.326 72.1242ZM228.606 63.4524H233.8C233.799 62.8763 233.702 62.3045 233.513 61.7604C233.369 61.344 233.103 60.9802 232.751 60.7155C232.393 60.4661 231.965 60.3385 231.529 60.3517C231.162 60.3373 230.797 60.4024 230.458 60.5426C230.12 60.6828 229.815 60.8948 229.566 61.1639C229.028 61.816 228.694 62.6119 228.606 63.4524Z" fill="white"/>
<path d="M244.735 72.1239C243.661 72.1343 242.601 71.8769 241.651 71.3751C240.709 70.8756 239.929 70.1167 239.405 69.1882C238.82 68.1322 238.528 66.939 238.559 65.7321C238.554 64.8403 238.714 63.9552 239.033 63.1221C239.339 62.3141 239.792 61.5697 240.369 60.9267C240.944 60.2824 241.645 59.7639 242.429 59.4038C243.258 59.0212 244.161 58.829 245.073 58.8412C245.953 58.8148 246.829 58.9719 247.645 59.3023C248.278 59.559 248.831 59.9813 249.244 60.5248C249.595 60.9895 249.788 61.5543 249.794 62.1365C249.802 62.5601 249.665 62.9737 249.405 63.3083C249.274 63.4733 249.108 63.6063 248.918 63.6972C248.728 63.7881 248.52 63.8345 248.309 63.8328C248.087 63.864 247.859 63.8354 247.651 63.7499C247.443 63.6644 247.262 63.5251 247.125 63.3463C246.92 63.0665 246.803 62.7325 246.787 62.3861C246.789 62.2045 246.814 62.0239 246.863 61.8489C246.915 61.6571 247 61.4754 247.112 61.3116C247.01 61.0271 246.805 60.7915 246.537 60.6517C246.281 60.5124 246.004 60.4153 245.716 60.3641C245.494 60.3173 245.266 60.3003 245.039 60.3133C244.59 60.3291 244.15 60.4502 243.755 60.6669C243.361 60.8837 243.022 61.19 242.768 61.5612C242.171 62.3607 241.871 63.5282 241.871 65.0553C241.861 65.9166 241.991 66.7738 242.256 67.5934C242.478 68.3127 242.889 68.9596 243.445 69.4674C244.014 69.955 244.743 70.2169 245.492 70.2034C246.233 70.2177 246.963 70.0321 247.607 69.6662C248.274 69.3137 248.853 68.8148 249.299 68.2068L250.298 69.1289C249.82 69.8375 249.22 70.455 248.525 70.9521C247.944 71.3617 247.297 71.6706 246.613 71.8658C246.001 72.0355 245.37 72.1222 244.735 72.1239Z" fill="white"/>
<path d="M256.643 72.1239C256.183 72.1251 255.725 72.0654 255.281 71.9463C254.836 71.83 254.425 71.608 254.084 71.299C253.685 70.9086 253.394 70.422 253.238 69.8862C252.996 69.0815 252.886 68.2429 252.912 67.4031L252.963 60.9648H251.19V59.222C251.713 59.1979 252.216 59.0198 252.637 58.7101C253.124 58.3705 253.541 57.9395 253.864 57.4411C254.204 56.9277 254.441 56.353 254.562 55.749H256.085L256.059 59.2431H259.579V60.8421L256.059 60.9183L256.034 67.3312C256.031 67.7971 256.076 68.2621 256.169 68.7187C256.238 69.0966 256.412 69.4473 256.673 69.7297C256.802 69.8577 256.956 69.9573 257.126 70.0221C257.295 70.087 257.477 70.1156 257.658 70.1061C258.037 70.0882 258.407 69.9856 258.741 69.8058C259.247 69.5155 259.672 69.1023 259.976 68.6044L261 69.5308C260.656 70.0844 260.228 70.5811 259.731 71.0029C259.346 71.3191 258.919 71.5797 258.462 71.777C258.115 71.926 257.749 72.0271 257.375 72.0774C257.036 72.1084 256.793 72.1239 256.643 72.1239Z" fill="white"/>
<path d="M22.8001 14.2303V58.8837C20.7697 58.8837 17.6774 59.0529 13.5234 59.3913V58.6299C14.516 58.4162 15.4442 57.9711 16.2322 57.3309C17.0202 56.6906 17.6458 55.8733 18.0582 54.9454C18.9042 53.0813 19.3272 49.7057 19.3272 44.8185V25.8801C19.3272 22.214 18.8901 19.5165 18.0159 17.7878C17.1416 16.0591 15.6484 14.9579 13.5361 14.4841V13.7227C16.9738 14.0075 20.0618 14.1767 22.8001 14.2303ZM25.977 58.8837V14.2303C29.0866 14.2514 32.1945 14.0819 35.2833 13.7227V14.4841C33.5968 14.8086 32.1051 15.7823 31.1293 17.1956C30.0013 18.7495 29.4372 21.9545 29.4372 26.8107V47.0224C29.4372 51.371 30.0295 54.294 31.2139 55.7915C32.2175 57.1633 33.6493 58.1619 35.2833 58.6299V59.3913C32.1948 59.0287 29.0866 58.8592 25.977 58.8837Z" fill="white"/>
<path d="M103 20.2032C99.7797 24.3572 98.1708 29.879 98.1736 36.7685C98.1736 44.8481 100.165 50.9211 104.147 54.9877C101.123 53.713 98.7263 51.4104 96.9553 48.0799C95.1424 44.6343 94.2246 40.7883 94.2861 36.8954C94.2572 34.2041 94.7321 31.5312 95.6863 29.0146C96.5633 26.6401 97.6082 24.7901 98.8208 23.4647C100.014 22.1433 101.428 21.0396 103 20.2032ZM138.25 49.6916H139.096L137.738 56.849C135.281 57.8183 132.743 58.57 130.154 59.0952C127.839 59.5645 125.484 59.8054 123.123 59.8143C116.287 59.8143 110.929 57.8233 107.048 53.8414C103.168 49.8594 101.24 44.112 101.266 36.5993C101.266 29.0865 103.341 23.3392 107.493 19.3572C111.644 15.3752 117.095 13.4012 123.846 13.435C128.93 13.4626 133.97 14.3626 138.749 16.0958C138.526 19.6547 138.414 21.7585 138.411 22.4071C138.411 22.9994 138.411 23.5789 138.453 24.1415V25.161C138.458 26.5611 138.387 27.9605 138.242 29.353H137.522C135.771 20.8251 130.885 16.5611 122.865 16.5611C117.442 16.5611 113.12 18.3265 109.9 21.8572C106.679 25.388 105.072 30.443 105.077 37.0223C105.077 42.812 106.561 47.5145 109.527 51.1298C112.494 54.7452 116.929 56.5529 122.831 56.5529C125.933 56.5913 129.004 55.926 131.812 54.607C134.316 53.4997 136.522 51.8153 138.25 49.6916Z" fill="white"/>
<path d="M175.758 33.8879C175.781 33.1031 175.662 32.3207 175.407 31.5782C175.216 31.025 174.853 30.5477 174.371 30.2161C173.85 29.9 173.244 29.7523 172.636 29.7931H171.113V42.124C171.113 42.5766 171.113 42.97 171.088 43.393C171.078 43.6945 171.053 43.9952 171.012 44.294L172.099 44.2433C172.522 44.2433 172.818 44.2179 173.034 44.2179V45.8676H166.219V44.4928C166.592 44.4982 166.961 44.4125 167.294 44.2433C167.56 44.0719 167.748 43.8031 167.818 43.4945C167.933 43.0126 167.982 42.5175 167.966 42.0224L167.992 29.8396H166.371C165.948 29.8188 165.525 29.8962 165.136 30.0657C164.747 30.2352 164.403 30.4922 164.129 30.8168C163.613 31.4654 163.355 32.4891 163.355 33.8879H161.955L162.082 28.3887H177.031L177.179 33.8879H175.758Z" fill="#F6B93B"/>
<path d="M185.145 45.8462C185.1 45.6357 185.07 45.4222 185.056 45.2074C185.056 45.0326 185.043 44.8295 185.018 44.5983C184.502 45.1285 183.887 45.5525 183.208 45.8462C182.579 46.1095 181.905 46.2447 181.224 46.2438C180.749 46.2745 180.273 46.2086 179.824 46.0501C179.376 45.8916 178.964 45.6438 178.614 45.3216C178.317 45.0236 178.084 44.6688 177.927 44.2785C177.771 43.8882 177.695 43.4704 177.704 43.0501C177.686 42.3237 177.914 41.6127 178.351 41.0323C178.808 40.4562 179.386 39.987 180.043 39.6575C180.781 39.2881 181.561 39.011 182.366 38.8326C183.199 38.6441 184.05 38.5406 184.904 38.5238V37.1321C184.908 36.6812 184.852 36.2318 184.739 35.7954C184.651 35.418 184.447 35.0777 184.155 34.8224C183.795 34.5587 183.353 34.4313 182.907 34.4629C182.526 34.479 182.15 34.559 181.795 34.6997C181.439 34.8255 181.129 35.0555 180.906 35.3596C181.035 35.4942 181.122 35.6632 181.156 35.8461C181.187 35.9979 181.204 36.1523 181.207 36.3072C181.193 36.6489 181.071 36.9776 180.86 37.2463C180.726 37.4112 180.553 37.5398 180.356 37.6204C180.159 37.7009 179.946 37.7309 179.735 37.7074C179.535 37.7102 179.338 37.6683 179.157 37.5849C178.977 37.5014 178.817 37.3785 178.69 37.2251C178.448 36.9201 178.321 36.5399 178.33 36.1507C178.328 35.842 178.388 35.536 178.506 35.2506C178.623 34.9652 178.797 34.706 179.015 34.4882C179.54 33.9742 180.177 33.5903 180.877 33.3672C181.719 33.0784 182.605 32.9354 183.495 32.9442C184.929 32.9442 186.033 33.3207 186.79 34.0695C187.548 34.8182 187.933 36.0153 187.916 37.6651V39.2514C187.916 39.7252 187.916 40.1989 187.916 40.6727C187.916 41.1465 187.916 41.6753 187.916 42.259C187.916 42.5086 187.916 42.8216 187.89 43.1939C187.865 43.5661 187.848 43.9384 187.814 44.3064C188.113 44.2726 188.418 44.2514 188.728 44.243C189.038 44.2345 189.292 44.2218 189.489 44.2049V45.8293L185.145 45.8462ZM184.857 39.979C184.36 40.0111 183.867 40.0904 183.385 40.2159C182.931 40.3273 182.494 40.4995 182.087 40.7277C181.723 40.9241 181.41 41.2021 181.173 41.5399C180.949 41.8644 180.84 42.2546 180.864 42.6482C180.853 42.8636 180.892 43.0786 180.979 43.2761C181.066 43.4737 181.197 43.6483 181.363 43.7861C181.677 44.0265 182.063 44.1533 182.459 44.1457C182.913 44.1531 183.363 44.0515 183.77 43.8496C184.17 43.6389 184.537 43.3694 184.857 43.0501V39.979Z" fill="#F6B93B"/>
<path d="M190.635 44.5221C191.008 44.5572 191.38 44.4448 191.672 44.209C191.895 43.967 192.027 43.6541 192.044 43.3249C192.089 42.8935 192.11 42.46 192.107 42.0263V31.2394C192.107 30.956 192.107 30.6472 192.133 30.3046C192.158 29.9619 192.175 29.6108 192.209 29.2428L191.283 29.2936L190.437 29.3443V27.7199C191.066 27.7277 191.695 27.6909 192.319 27.61C192.712 27.5584 193.098 27.4619 193.47 27.3223C193.68 27.2417 193.878 27.132 194.058 26.9966H195.179L195.204 42.2759C195.204 42.5424 195.204 42.8596 195.179 43.2361C195.153 43.6126 195.128 43.9722 195.081 44.3233C195.36 44.2894 195.652 44.2683 195.953 44.2598H196.701V45.8588H190.635V44.5221Z" fill="#F6B93B"/>
<path d="M204.418 46.2437C203.298 46.2643 202.194 45.9838 201.22 45.4316C200.29 44.8912 199.537 44.0935 199.05 43.1346C198.511 42.0458 198.245 40.8422 198.276 39.6278C198.273 38.4988 198.538 37.3853 199.05 36.379C199.549 35.3823 200.302 34.5346 201.233 33.9213C202.207 33.285 203.351 32.9577 204.515 32.9822C205.2 32.9805 205.882 33.0817 206.537 33.2826C207.185 33.4767 207.782 33.8118 208.284 34.264C208.832 34.7782 209.256 35.4103 209.524 36.1125C209.847 37.0079 209.99 37.9579 209.947 38.9087L201.558 39.0567C201.543 39.9817 201.664 40.904 201.918 41.7936C202.12 42.5209 202.534 43.1717 203.107 43.6634C203.724 44.1461 204.494 44.3908 205.277 44.3529C205.708 44.3453 206.136 44.2725 206.546 44.1371C207.028 43.9862 207.486 43.7684 207.908 43.4899C208.362 43.1935 208.766 42.8265 209.105 42.4028L210.053 43.2784C209.573 44.008 208.955 44.6361 208.234 45.127C207.622 45.5347 206.946 45.8338 206.233 46.0111C205.638 46.1569 205.03 46.2349 204.418 46.2437ZM201.694 37.555H206.888C206.888 36.9789 206.791 36.4069 206.601 35.863C206.457 35.4455 206.192 35.0803 205.839 34.8139C205.481 34.566 205.052 34.4399 204.617 34.4543C204.251 34.44 203.887 34.5047 203.549 34.6442C203.211 34.7836 202.907 34.9945 202.658 35.2623C202.118 35.915 201.783 36.7125 201.694 37.555Z" fill="#F6B93B"/>
<path d="M211.905 45.8461V44.5221C212.088 44.5405 212.272 44.5224 212.448 44.4686C212.624 44.4149 212.787 44.3266 212.929 44.2091C213.145 43.9622 213.277 43.6523 213.305 43.325C213.355 42.8939 213.379 42.4602 213.377 42.0263V37.3308C213.377 37.0305 213.377 36.7175 213.402 36.3833C213.428 36.0491 213.445 35.7107 213.478 35.3596L212.565 35.4104L211.719 35.4611V33.841C212.336 33.8496 212.952 33.8115 213.563 33.7268C213.949 33.6796 214.327 33.5844 214.688 33.4433C214.893 33.3595 215.086 33.2501 215.264 33.1176H216.313C216.342 33.2654 216.357 33.4155 216.359 33.566C216.36 33.6877 216.368 33.8092 216.385 33.9298L216.461 34.467C216.816 34.1691 217.205 33.9136 217.62 33.7056C218.047 33.4843 218.495 33.3044 218.957 33.1684C219.367 33.0383 219.795 32.9698 220.226 32.9653C221.723 32.9653 222.797 33.3883 223.449 34.2894C224.1 35.1904 224.422 36.5779 224.422 38.5195V42.2886C224.422 42.5551 224.422 42.8723 224.422 43.2488C224.414 43.6127 224.385 43.9757 224.333 44.336C224.615 44.3021 224.907 44.281 225.209 44.2725H225.957V45.8715H219.87V44.5475C220.243 44.5821 220.615 44.4698 220.907 44.2344C221.129 43.9906 221.265 43.6796 221.292 43.3503C221.345 42.9196 221.371 42.4858 221.368 42.0517L221.342 38.4941C221.342 37.2928 221.165 36.3791 220.805 35.808C220.62 35.5142 220.359 35.2765 220.048 35.1207C219.738 34.9649 219.391 34.8968 219.045 34.9239C218.553 34.9425 218.07 35.0605 217.624 35.2708C217.182 35.4754 216.783 35.7626 216.448 36.1168C216.448 36.3156 216.473 36.5398 216.473 36.7429V37.3901L216.448 42.3097C216.448 42.5762 216.448 42.8935 216.448 43.27C216.44 43.6336 216.411 43.9965 216.363 44.3571C216.644 44.322 216.927 44.3009 217.209 44.2937H217.971V45.8927L211.905 45.8461Z" fill="#F6B93B"/>
<path d="M232.235 46.2439C231.775 46.2438 231.317 46.1856 230.872 46.0704C230.428 45.9493 230.018 45.7263 229.675 45.419C229.278 45.029 228.987 44.5442 228.829 44.0104C228.589 43.2054 228.481 42.3669 228.508 41.5273L228.559 35.0848L226.786 35.1101V33.3631C227.308 33.339 227.812 33.1609 228.233 32.8512C229.218 32.1366 229.903 31.0812 230.153 29.8901H231.676L231.651 33.3842H235.17V34.9832L231.651 35.0551L231.6 41.4554C231.597 41.9215 231.644 42.3867 231.74 42.8428C231.809 43.2198 231.981 43.5699 232.239 43.8538C232.368 43.9809 232.523 44.0796 232.692 44.1437C232.862 44.2078 233.043 44.2358 233.224 44.2261C233.605 44.2088 233.976 44.1061 234.312 43.9258C234.817 43.636 235.241 43.2245 235.547 42.7286L236.57 43.6508C236.227 44.2064 235.799 44.7046 235.301 45.1271C234.916 45.4415 234.489 45.7006 234.032 45.897C233.686 46.0484 233.32 46.1496 232.945 46.1973C232.615 46.2284 232.378 46.2439 232.235 46.2439Z" fill="#F6B93B"/>
<path d="M50.5926 14.2303H64.5774V58.8837H63.3084C61.4725 58.8837 58.7328 59.0529 55.0892 59.3913V58.6299C57.4327 58.0377 59.043 56.8377 59.92 55.03C60.7971 53.2223 61.2201 50.2612 61.1891 46.1467V17.1956H50.3811C47.6456 17.1956 45.711 17.7596 44.5773 18.8877C43.4436 20.0157 42.4975 22.1491 41.7389 25.2879H40.7659C40.7363 24.9199 40.7236 24.5265 40.7236 24.0992C40.7349 23.3772 40.7914 22.6567 40.8928 21.9418C41.2135 19.2136 41.3829 16.4696 41.4005 13.7227C43.2569 13.9446 45.1234 14.0717 46.9927 14.1034L50.5926 14.2303ZM68.8118 58.8837H67.712V14.2303H82.9616C85.7233 14.2324 88.4825 14.0629 91.2231 13.7227C91.2231 14.2613 91.1808 15.2356 91.0962 16.6457C91.0116 17.9429 90.9693 19.5673 90.9693 21.5188C90.9675 22.7781 90.8969 24.0363 90.7578 25.2879H89.7426C89.6833 22.9698 89.1038 21.0493 88.004 19.5264C86.9041 18.0036 84.5169 17.2266 80.8423 17.1956H71.2272V47.53C71.2272 51.0015 71.7207 53.6143 72.7078 55.3684C73.1781 56.2198 73.8335 56.9548 74.6257 57.5193C75.4178 58.0837 76.3265 58.4632 77.2848 58.6299V59.3913C72.2932 59.0529 69.4689 58.8837 68.8118 58.8837Z" fill="#F6B93B"/>
<path d="M2.43656 28.6635H0V0H93.2324V2.43656H2.43656V28.6635Z" fill="#F6B93B"/>
<path d="M152.624 73.2406H59.3916V70.8041H150.187V44.5771H152.624V73.2406Z" fill="#F6B93B"/>
</svg>
