<svg width="29" height="24" viewBox="0 0 29 24" fill="none" xmlns="http://www.w3.org/2000/svg">
<path d="M11.1861 13.3333H7.2071V5.33333C7.2071 3.86666 8.40708 2.66666 9.87373 2.66666H16.3113C16.4602 2.66666 16.603 2.60752 16.7083 2.50223L18.2521 0.958375C18.6058 0.604711 18.3553 0 17.8552 0H9.87373C6.92977 0 4.54046 2.39644 4.54046 5.33333V13.3333H0.562522C0.0623711 13.3333 -0.188105 13.938 0.165555 14.2917L5.48016 19.6063C5.69948 19.8257 6.0551 19.8256 6.2743 19.6061L11.5832 14.2915C11.9366 13.9377 11.6861 13.3333 11.1861 13.3333Z" fill="#192A56"/>
<path d="M21.9013 4.39362L16.5867 9.70828C16.233 10.0619 16.4835 10.6667 16.9836 10.6667H20.9616V18.6666C20.9616 20.1457 19.7598 21.3333 18.2949 21.3333H11.8573C11.7084 21.3333 11.5657 21.3925 11.4604 21.4977L9.91653 23.0416C9.56287 23.3953 9.81335 24 10.3135 24H18.2949C21.2404 24 23.6282 21.6122 23.6282 18.6666V10.6667H27.6072C28.1072 10.6667 28.3577 10.0622 28.0044 9.70849L22.6954 4.39383C22.4762 4.17439 22.1206 4.17429 21.9013 4.39362Z" fill="#192A56"/>
</svg>
