<svg width="33" height="33" viewBox="0 0 33 33" fill="none" xmlns="http://www.w3.org/2000/svg">
<path fill-rule="evenodd" clip-rule="evenodd" d="M8.6531 7.53056V8.55227C8.6531 8.64551 8.61602 8.73493 8.55009 8.80087C8.48415 8.86687 8.39473 8.90388 8.30142 8.90388H3.42564C3.3324 8.90388 3.24298 8.86687 3.17704 8.80087C3.11111 8.73493 3.07403 8.64551 3.07403 8.55227V7.53056C3.07403 7.43732 3.11111 7.3479 3.17704 7.2819C3.24298 7.21596 3.3324 7.17895 3.42564 7.17895H8.30142C8.39473 7.17895 8.48415 7.21596 8.55009 7.2819C8.61602 7.3479 8.6531 7.43732 8.6531 7.53056ZM7.62136 6.14366H4.1057V4.76626C4.10576 4.00571 4.72228 3.38919 5.48277 3.38919H6.24429C7.00485 3.38919 7.62136 4.00571 7.62136 4.76626V6.14366ZM5.34592 1.22944C5.34592 0.943763 5.57789 0.711792 5.86356 0.711792C6.14924 0.711792 6.38121 0.943763 6.38121 1.22944V2.05444C6.38121 2.34012 6.14924 2.57209 5.86356 2.57209C5.57789 2.57209 5.34592 2.34012 5.34592 2.05444V1.22944ZM8.74686 2.20935C8.94887 2.00733 9.27693 2.00733 9.47894 2.20935C9.68095 2.41136 9.68095 2.73935 9.47894 2.94136L8.89555 3.52475C8.69354 3.72676 8.36555 3.72676 8.16347 3.52475C7.96146 3.32274 7.96146 2.99475 8.16347 2.79267L8.74686 2.20935ZM2.24819 2.94136C2.04618 2.73935 2.04618 2.41136 2.24819 2.20935C2.4502 2.00733 2.77826 2.00733 2.98027 2.20935L3.56359 2.79267C3.76561 2.99475 3.76561 3.32274 3.56359 3.52475C3.36158 3.72676 3.03359 3.72676 2.83158 3.52475L2.24819 2.94136ZM25.1143 32.2883C21.925 32.2883 19.323 29.6881 19.323 26.4988C19.323 23.3094 21.925 20.7075 25.1143 20.7075C28.3036 20.7075 30.9038 23.3094 30.9038 26.4988C30.9038 29.6881 28.3036 32.2883 25.1143 32.2883ZM24.3541 27.0084L23.0601 25.7144C22.7249 25.3792 22.1806 25.3792 21.8455 25.7144C21.5104 26.0513 21.5104 26.5938 21.8455 26.9289L23.7477 28.8328C24.0829 29.168 24.6271 29.168 24.9623 28.8328C26.1095 27.6857 27.2428 26.5264 28.3848 25.3741C28.7183 25.0371 28.7165 24.4946 28.3814 24.1612C28.0462 23.8277 27.502 23.8295 27.1686 24.1646L24.3541 27.0084ZM21.8026 5.8814C21.8562 5.90541 21.9042 5.9386 21.9485 5.98293L24.7394 8.77389C24.7837 8.81821 24.817 8.86616 24.841 8.91973H22.0518C21.9152 8.91973 21.8026 8.80708 21.8026 8.67049V5.8814ZM19.5827 30.4905H6.36193C6.08693 30.4905 5.86356 30.2672 5.86356 29.994V9.93917H8.30142C8.66928 9.93917 9.02205 9.79307 9.28217 9.53295C9.54222 9.27283 9.68839 8.92012 9.68839 8.55227V7.53056C9.68839 7.16271 9.54222 6.80993 9.28217 6.54988C9.10759 6.3753 8.89128 6.25204 8.65666 6.18992V5.83708H20.7683C20.7677 5.85183 20.7673 5.86659 20.7673 5.8814V8.67049C20.7673 9.37462 21.3477 9.95503 22.0518 9.95503H24.841C24.8558 9.95503 24.8705 9.9547 24.8852 9.95406V19.6761C21.231 19.7976 18.2877 22.8159 18.2877 26.4988C18.2877 27.9873 18.7685 29.3669 19.5827 30.4905ZM8.85531 27.8569H17.3227C17.6084 27.8569 17.8404 27.6249 17.8404 27.3392C17.8404 27.0536 17.6084 26.8216 17.3227 26.8216H8.85531C8.56963 26.8216 8.33766 27.0536 8.33766 27.3392C8.33766 27.6249 8.56963 27.8569 8.85531 27.8569ZM8.85531 14.6144H21.8935C22.1792 14.6144 22.4111 14.3824 22.4111 14.0967C22.4111 13.811 22.1792 13.5791 21.8935 13.5791H8.85531C8.56963 13.5791 8.33766 13.811 8.33766 14.0967C8.33766 14.3824 8.56963 14.6144 8.85531 14.6144ZM8.85531 24.5463H17.3227C17.6084 24.5463 17.8404 24.3143 17.8404 24.0286C17.8404 23.7429 17.6084 23.511 17.3227 23.511H8.85531C8.56963 23.511 8.33766 23.7429 8.33766 24.0286C8.33766 24.3143 8.56963 24.5463 8.85531 24.5463ZM10.0063 11.3037H21.8935C22.1792 11.3037 22.4111 11.0718 22.4111 10.786C22.4111 10.5004 22.1792 10.2684 21.8935 10.2684H10.0063C9.72055 10.2684 9.48865 10.5004 9.48865 10.786C9.48865 11.0718 9.72055 11.3037 10.0063 11.3037ZM8.85531 17.925H21.8935C22.1792 17.925 22.4111 17.693 22.4111 17.4073C22.4111 17.1217 22.1792 16.8897 21.8935 16.8897H8.85531C8.56963 16.8897 8.33766 17.1217 8.33766 17.4073C8.33766 17.693 8.56963 17.925 8.85531 17.925ZM8.85531 21.2356H20.0955C20.3812 21.2356 20.6131 21.0037 20.6131 20.7179C20.6131 20.4323 20.3812 20.2003 20.0955 20.2003H8.85531C8.56963 20.2003 8.33766 20.4323 8.33766 20.7179C8.33766 21.0037 8.56963 21.2356 8.85531 21.2356Z" fill="#192A56"/>
</svg>
