<svg width="33" height="33" viewBox="0 0 33 33" fill="none" xmlns="http://www.w3.org/2000/svg">
<path d="M16.5689 7.95308H17.5657V10.0739L20.4182 7.95308H25.8422C26.505 7.95308 27.0405 7.41758 27.0405 6.76012V1.19826C27.0405 0.535508 26.505 0 25.8422 0H16.5689C15.9115 0 15.376 0.535508 15.376 1.19826V6.76012C15.376 7.42288 15.9115 7.95308 16.5689 7.95308ZM18.7428 3.68493C18.9496 3.47815 19.2836 3.47815 19.4904 3.68493L20.3758 4.57037L22.6769 2.26928C22.8837 2.0625 23.2177 2.0625 23.4245 2.26928C23.6313 2.47606 23.6313 2.81009 23.4245 3.01687L20.747 5.69441C20.6462 5.79515 20.5137 5.84817 20.3705 5.84817C20.2274 5.84817 20.0948 5.78985 19.9941 5.69441L18.7322 4.43252C18.536 4.23104 18.536 3.89171 18.7428 3.68493Z" fill="#192A56"/>
<path d="M8.48329 29.1667V28.1487H1.7974V27.698C1.7974 26.1498 2.66693 24.8031 3.95003 24.1297C4.48554 24.5008 5.13239 24.7182 5.83226 24.7182C6.53213 24.7182 7.18429 24.5008 7.71449 24.1297C7.9902 24.2782 8.25 24.4531 8.48329 24.6599V16.85H1.7974C0.805913 16.85 0 17.6506 0 18.6421V31.2079C0 32.1941 0.805913 33 1.7974 33H9.87243C10.4397 33 10.9487 32.7349 11.2775 32.3214C9.70276 32.1358 8.48329 30.7891 8.48329 29.1667ZM5.83226 19.1723C7.07294 19.1723 8.07503 20.1797 8.07503 21.415C8.07503 22.6557 7.07294 23.6578 5.83226 23.6578C4.59688 23.6578 3.58949 22.6557 3.58949 21.415C3.58949 20.1797 4.59688 19.1723 5.83226 19.1723Z" fill="#192A56"/>
<path d="M31.0806 16.85H24.3894V24.6599C24.6227 24.4531 24.8825 24.2782 25.1582 24.1297C25.6937 24.5008 26.3406 24.7182 27.0404 24.7182C27.7403 24.7182 28.3925 24.5008 28.9227 24.1297C30.2058 24.8031 31.0806 26.1498 31.0806 27.698V28.1487H24.3894V29.1667C24.3894 30.7891 23.1699 32.1358 21.5952 32.3214C21.9292 32.7349 22.4382 33 23.0056 33H31.0806C32.0721 33 32.8727 32.1941 32.8727 31.2079V18.6421C32.8727 17.6506 32.0721 16.85 31.0806 16.85ZM27.0404 23.6578C25.805 23.6578 24.7977 22.6557 24.7977 21.415C24.7977 20.1797 25.805 19.1723 27.0404 19.1723C28.2811 19.1723 29.2832 20.1797 29.2832 21.415C29.2832 22.6557 28.2811 23.6578 27.0404 23.6578Z" fill="#192A56"/>
<path d="M23.3288 29.1613V14.3155C23.3288 13.1438 22.3797 12.1947 21.208 12.1947H11.6643C10.4925 12.1947 9.54346 13.1438 9.54346 14.3155V29.1613C9.54346 30.333 10.4925 31.2821 11.6643 31.2821H21.208C22.3797 31.2821 23.3288 30.333 23.3288 29.1613ZM16.4361 14.3155C17.8995 14.3155 19.0872 15.5032 19.0872 16.9666C19.0872 18.4299 17.8995 19.6176 16.4361 19.6176C14.9728 19.6176 13.7851 18.4299 13.7851 16.9666C13.7851 15.5032 14.9728 14.3155 16.4361 14.3155ZM11.6643 24.3894C11.6643 22.4807 12.7883 20.8371 14.4107 20.0736C14.994 20.4553 15.6885 20.678 16.4361 20.678C17.1837 20.678 17.8783 20.4553 18.4615 20.0736C20.0839 20.8371 21.208 22.4807 21.208 24.3894V24.9196H11.6643V24.3894ZM16.9663 29.6915H11.6643C11.3727 29.6915 11.1341 29.4529 11.1341 29.1613C11.1341 28.8697 11.3727 28.6311 11.6643 28.6311H16.9663C17.2579 28.6311 17.4965 28.8697 17.4965 29.1613C17.4965 29.4529 17.2579 29.6915 16.9663 29.6915ZM21.208 27.5707H11.6643C11.3727 27.5707 11.1341 27.3321 11.1341 27.0405C11.1341 26.7488 11.3727 26.5103 11.6643 26.5103H21.208C21.4996 26.5103 21.7382 26.7488 21.7382 27.0405C21.7382 27.3321 21.4996 27.5707 21.208 27.5707Z" fill="#192A56"/>
</svg>
