<svg width="33" height="33" viewBox="0 0 33 33" fill="none" xmlns="http://www.w3.org/2000/svg">
<g clip-path="url(#clip0_188_31)">
<path d="M29.3246 6.09332C29.3246 8.31494 27.5237 10.1159 25.3023 10.1159C23.0807 10.1159 21.2798 8.31494 21.2798 6.09332C21.2798 3.87196 23.0807 2.07104 25.3023 2.07104C27.5237 2.07104 29.3246 3.87196 29.3246 6.09332Z" fill="#192A56"/>
<path d="M18.3402 11.3037L16.431 8.44084V3.556C16.431 1.6068 14.859 0 12.8758 0H3.556C1.58288 0 0 1.59723 0 3.556V9.25104C0 11.2053 1.57709 12.8068 3.556 12.8068H17.5358C18.3059 12.8068 18.7682 11.9457 18.3402 11.3037ZM8.18857 9.18256H5.13611C4.61545 9.18256 4.16755 8.78199 4.14338 8.26183C4.11795 7.70643 4.55956 7.24896 5.10917 7.24896H8.21601C8.76462 7.24896 9.20723 7.70643 9.18155 8.26158C9.15763 8.78199 8.70948 9.18256 8.18857 9.18256ZM11.3226 5.55782H5.13661C4.6162 5.55782 4.16856 5.15826 4.14363 4.63861C4.11694 4.08321 4.55905 3.62423 5.10917 3.62423H11.2952C11.8161 3.62423 12.2642 4.0248 12.2881 4.5452C12.3138 5.10036 11.8712 5.55782 11.3226 5.55782Z" fill="#192A56"/>
<path d="M7.50778 23.9864C3.34376 24.0007 0 27.4384 0 31.6024V31.8144C0 32.4693 0.530731 33 1.18559 33H13.8831C14.538 33 15.0687 32.4693 15.0687 31.8144V31.5206C15.0687 27.3505 11.6811 23.9718 7.50778 23.9864Z" fill="#192A56"/>
<path d="M12.2787 19.242C12.2787 21.8622 10.1548 23.9864 7.53439 23.9864C4.91422 23.9864 2.79004 21.8622 2.79004 19.242C2.79004 16.6219 4.91422 14.4977 7.53439 14.4977C10.1548 14.4977 12.2787 16.6219 12.2787 19.242Z" fill="#192A56"/>
<path d="M31.4037 15.5332H19.2007C19.5605 12.4827 22.1547 10.1158 25.3026 10.1158C28.4497 10.1158 31.0439 12.4827 31.4037 15.5332Z" fill="#192A56"/>
<path d="M32.0331 17.5312C32.5671 17.5312 32.9999 17.964 32.9999 18.498V29.9624C32.9999 30.5115 32.5417 30.9544 31.9861 30.9279C31.4667 30.9033 31.0663 30.4554 31.0663 29.9347V28.8576H16.6205C15.9707 26.6456 14.5341 24.7661 12.6348 23.5473C13.6182 22.3839 14.2126 20.8808 14.2126 19.2418C14.2126 18.6509 14.1351 18.0778 13.99 17.5312H32.0331Z" fill="#192A56"/>
</g>
<defs>
<clipPath id="clip0_188_31">
<rect width="33" height="33" fill="white"/>
</clipPath>
</defs>
</svg>
