<svg width="33" height="33" viewBox="0 0 33 33" fill="none" xmlns="http://www.w3.org/2000/svg">
<path fill-rule="evenodd" clip-rule="evenodd" d="M22.4869 24.3071C20.9632 25.6103 18.9848 26.3972 16.8223 26.3972C12.0064 26.3972 8.10311 22.4939 8.10311 17.678C8.10311 12.8621 12.0064 8.95883 16.8223 8.95883C21.6382 8.95883 25.5415 12.8621 25.5415 17.678C25.5415 19.5382 24.9592 21.2621 23.967 22.6776L26.6999 25.3311L26.7988 25.2292C27.1014 24.9168 27.6073 24.9093 27.9197 25.2119L32.7084 29.8591C33.0209 30.1617 33.0283 30.6651 32.7233 30.9801L30.9948 32.7606C30.6922 33.0731 30.1888 33.0805 29.8739 32.778L25.0877 28.1307C24.7728 27.8282 24.7653 27.3223 25.0704 27.0098L25.1679 26.9093L22.4869 24.3071ZM11.7293 23.1695C13.0656 24.4094 14.8554 25.1674 16.8223 25.1674C18.7893 25.1674 20.579 24.4094 21.9153 23.1695C23.3894 21.8018 24.3117 19.8478 24.3117 17.678C24.3117 13.5413 20.959 10.1887 16.8223 10.1887C12.6856 10.1887 9.33293 13.5413 9.33293 17.678C9.33293 19.8478 10.2552 21.8018 11.7293 23.1695ZM21.777 21.7485C21.1082 20.193 19.7289 19.0151 18.0482 18.6239C19.0881 18.1534 19.8158 17.105 19.8158 15.8944C19.8158 15.4951 19.7366 15.1134 19.5932 14.7643L20.4652 13.957C20.6834 13.7549 20.6965 13.4138 20.4945 13.1956C20.2925 12.9774 19.9513 12.9643 19.7331 13.1663L18.9998 13.8452C18.4531 13.2647 17.6783 12.9009 16.8223 12.9009C15.1754 12.9009 13.8289 14.2474 13.8289 15.8944C13.8289 17.105 14.5566 18.1534 15.5964 18.6239C13.9157 19.0151 12.5365 20.193 11.8677 21.7485C10.9571 20.6414 10.4105 19.2236 10.4105 17.678C10.4105 14.1365 13.2808 11.2662 16.8223 11.2662C20.3639 11.2662 23.2341 14.1365 23.2341 17.678C23.2341 19.2236 22.6875 20.6414 21.777 21.7485ZM12.7032 22.5922C13.2496 20.8363 14.8876 19.5613 16.8223 19.5613C18.7571 19.5613 20.395 20.8363 20.9415 22.5922C19.8274 23.527 18.3907 24.0899 16.8223 24.0899C15.254 24.0899 13.8172 23.527 12.7032 22.5922ZM18.2101 14.5765L17.1139 15.5914L16.4947 14.9723C16.2845 14.762 15.943 14.762 15.7328 14.9723C15.5225 15.1826 15.5225 15.5239 15.7328 15.7342L16.7185 16.72C16.9233 16.9247 17.2531 16.931 17.4655 16.7344L18.7123 15.58C18.7293 15.6823 18.7382 15.7873 18.7382 15.8944C18.7382 16.9484 17.8764 17.8102 16.8223 17.8102C15.7683 17.8102 14.9064 16.9484 14.9064 15.8944C14.9064 14.8403 15.7683 13.9785 16.8223 13.9785C17.367 13.9785 17.8604 14.2087 18.2101 14.5765ZM0.00497241 28.5298C0.456466 26.0893 2.59514 24.2407 5.16537 24.2407C7.73694 24.2407 9.87575 26.0895 10.3276 28.5297C10.3447 28.6276 10.3175 28.728 10.2536 28.804C10.1896 28.8801 10.0952 28.924 9.99589 28.924C8.35384 28.924 1.9775 28.924 0.33504 28.9223C0.236107 28.9223 0.142293 28.8786 0.07865 28.8029C0.0149398 28.7272 -0.011999 28.6272 0.00497241 28.5298ZM5.16537 23.5673C3.70414 23.5673 2.51304 22.3747 2.51304 20.9135C2.51304 19.4523 3.70414 18.2598 5.16537 18.2598C6.62801 18.2598 7.8191 19.4523 7.8191 20.9135C7.8191 22.3747 6.62801 23.5673 5.16537 23.5673ZM27.7296 12.7153C26.2683 12.7153 25.0772 11.5228 25.0772 10.0616C25.0772 8.60027 26.2683 7.40783 27.7296 7.40783C29.1922 7.40783 30.3833 8.60027 30.3833 10.0616C30.3833 11.5228 29.1922 12.7153 27.7296 12.7153ZM12.7894 5.30748C11.3282 5.30748 10.1371 4.11497 10.1371 2.65374C10.1371 1.19251 11.3282 0 12.7894 0C14.2521 0 15.4432 1.19251 15.4432 2.65374C15.4432 4.11497 14.2521 5.30748 12.7894 5.30748ZM9.98289 10.6635C9.10503 10.6632 8.37808 10.6629 7.95912 10.6625C7.86025 10.6625 7.76637 10.6188 7.70273 10.5431C7.63909 10.4674 7.61208 10.3675 7.62905 10.27C8.08055 7.82956 10.2192 5.98095 12.7894 5.98095C14.4159 5.98095 15.8691 6.72042 16.832 7.88128C16.8288 7.88128 16.8255 7.88128 16.8223 7.88128C14.1613 7.88128 11.7483 8.94186 9.98289 10.6635ZM25.8019 13.7543C26.3986 13.5184 27.0489 13.3888 27.7296 13.3888C30.3011 13.3888 32.4399 15.2374 32.8918 17.6776C32.9089 17.7756 32.8817 17.876 32.8178 17.9521C32.7538 18.0281 32.6594 18.072 32.5601 18.072C31.5853 18.072 28.9421 18.072 26.6113 18.0716C26.6165 17.9411 26.6191 17.8098 26.6191 17.678C26.6191 16.2827 26.3275 14.9556 25.8019 13.7543Z" fill="#192A56"/>
</svg>
