<svg width="28" height="33" viewBox="0 0 28 33" fill="none" xmlns="http://www.w3.org/2000/svg">
<path d="M18.7173 3.55781C17.7376 2.16563 16.1908 1.39219 14.1283 1.18594C12.9423 0.876562 12.4267 0.567187 12.3751 0.4125C12.3236 0.154688 12.1173 0 11.9111 0C11.6533 0 11.447 0.154688 11.3954 0.4125C11.3954 0.515625 11.3439 0.670313 11.3954 0.876563C11.2923 0.773438 11.1892 0.670312 11.0345 0.670312C10.7767 0.670312 10.5704 0.825 10.5189 1.08281C10.5189 1.13437 10.4673 1.34062 10.5189 1.59844C6.60013 2.99062 6.65169 7.0125 6.80638 7.73438C6.80638 7.78594 6.85794 8.04375 7.11576 9.59062C7.11576 9.69375 7.16732 9.79688 7.16732 9.9C7.16732 10.0031 7.21888 10.0547 7.21888 10.1578C7.47669 11.6016 7.73451 12.1172 8.04388 12.3234C8.14701 13.7156 8.71419 14.9016 9.74544 15.8297C10.7767 16.7578 12.0142 17.1703 13.3033 17.1703C14.5923 17.1703 15.8298 16.7063 16.8611 15.8297C17.8923 14.9016 18.4595 13.7156 18.5626 12.3234C18.8204 12.1172 19.1298 11.6016 19.3876 10.1062C19.4392 9.9 19.4392 9.74531 19.4908 9.59062C19.4908 9.4875 19.5423 9.38437 19.5423 9.28125C19.5423 9.22969 19.5423 9.17813 19.5423 9.12656C19.7486 7.94063 19.8001 7.78594 19.8001 7.73438C19.8517 7.425 20.0064 5.31094 18.7173 3.55781ZM17.7892 11.6016C17.6345 11.7047 17.5829 11.8594 17.5829 12.0141C17.5829 13.2516 17.1189 14.2828 16.1908 15.1078C14.5408 16.6031 12.0658 16.6031 10.4158 15.1078C9.53919 14.3344 9.07513 13.2516 9.02357 12.0141C9.02357 11.8594 8.92044 11.7047 8.81732 11.6016C8.76576 11.55 8.71419 11.55 8.66263 11.55C8.61107 11.4469 8.50794 11.2922 8.40482 10.8281C8.50794 10.725 8.55951 10.6219 8.55951 10.4672C8.61107 6.1875 10.5189 5.41406 11.6017 5.3625C11.7564 5.3625 11.9111 5.41406 12.0658 5.46563C12.3236 5.62031 12.6329 5.62031 12.9939 5.62031H13.5095C13.8704 5.67188 14.1798 5.62031 14.4376 5.46563C14.5923 5.3625 14.747 5.3625 14.9017 5.3625C15.9845 5.41406 17.8923 6.1875 17.9439 10.4672C17.9439 10.6219 17.9954 10.725 18.0986 10.8281C17.9954 11.2406 17.8923 11.4469 17.8408 11.55C17.8923 11.55 17.8408 11.6016 17.7892 11.6016Z" fill="#192A56"/>
<path d="M26.3484 28.2047C25.575 30.9375 22.9969 33 20.0063 33H6.6C2.99063 33 0 30.061 0 26.4C0 22.5844 2.57812 19.1813 6.23906 18.15L8.76562 17.4281C9.02344 17.3766 9.28125 17.4797 9.38438 17.7375L13.5609 27.9469L17.4281 17.7375C17.4797 17.6344 17.5828 17.5313 17.6859 17.4797L17.7375 17.4281C17.8406 17.3766 17.9953 17.3766 18.0984 17.3766L20.4703 18.0985H20.5219C18.3562 19.0266 16.9125 21.1406 16.9125 23.5641C16.9125 26.761 19.5422 29.3906 22.7391 29.3906C24.1312 29.3906 25.3687 28.9781 26.3484 28.2047Z" fill="#192A56"/>
<path d="M22.739 18.6656C20.0577 18.6656 17.8921 20.8313 17.8921 23.5125C17.8921 26.1938 20.0577 28.3594 22.739 28.3594C25.4202 28.3594 27.5858 26.1938 27.5858 23.5125C27.6374 20.8828 25.4202 18.6656 22.739 18.6656ZM25.4718 23.3063L24.4921 24.2344L24.6983 25.575C24.7499 25.7813 24.6468 25.936 24.4921 26.0906C24.389 26.1422 24.2858 26.1938 24.1827 26.1938C24.0796 26.1938 24.028 26.1938 23.9765 26.1422L22.7905 25.5235L21.6046 26.1422C21.4499 26.2453 21.2437 26.1938 21.089 26.0906C20.9343 25.9875 20.8827 25.7813 20.8827 25.575L21.089 24.2344L20.1093 23.3063C19.9546 23.1516 19.903 22.9969 20.0062 22.7906C20.0577 22.636 20.2124 22.4813 20.4187 22.4297L21.7593 22.2235L22.378 21.0375C22.4812 20.8828 22.6358 20.7797 22.8421 20.7797C23.0483 20.7797 23.203 20.8828 23.3062 21.0375L23.9249 22.2235L25.2655 22.4297C25.4718 22.4813 25.6265 22.5844 25.678 22.7906C25.678 22.9969 25.6265 23.2031 25.4718 23.3063Z" fill="#192A56"/>
</svg>
