<svg width="33" height="33" viewBox="0 0 33 33" fill="none" xmlns="http://www.w3.org/2000/svg">
<path d="M5.80078 18.498C4.20144 18.498 2.90039 19.7991 2.90039 21.3984C2.90039 22.9978 4.20144 24.2988 5.80078 24.2988C7.40012 24.2988 8.70117 22.9978 8.70117 21.3984C8.70117 19.7991 7.40012 18.498 5.80078 18.498Z" fill="#192A56"/>
<path d="M7.73438 24.2988H5.80078H3.86719C1.73437 24.2988 0 26.0332 0 28.166V32.0332C0 32.5676 0.432416 33 0.966797 33H10.6348C11.1691 33 11.6016 32.5676 11.6016 32.0332V28.166C11.6016 26.0332 9.86719 24.2988 7.73438 24.2988Z" fill="#192A56"/>
<path d="M27.1992 18.498C25.5999 18.498 24.2988 19.7991 24.2988 21.3984C24.2988 22.9978 25.5999 24.2988 27.1992 24.2988C28.7986 24.2988 30.0996 22.9978 30.0996 21.3984C30.0996 19.7991 28.7986 18.498 27.1992 18.498Z" fill="#192A56"/>
<path d="M29.1328 24.2988H27.1992H25.2656C23.1328 24.2988 21.3984 26.0332 21.3984 28.166V32.0332C21.3984 32.5676 21.8309 33 22.3652 33H32.0332C32.5676 33 33 32.5676 33 32.0332V28.166C33 26.0332 31.2656 24.2988 29.1328 24.2988Z" fill="#192A56"/>
<path d="M16.5 0H8.76562C6.09591 0 3.93164 2.16427 3.93164 4.83398V10.6348C3.93164 12.9696 5.59524 14.9221 7.79883 15.3715V18.369C7.79883 19.2303 8.8402 19.6617 9.44928 19.0526L13.0331 15.4688H16.5C19.1697 15.4688 21.334 13.3045 21.334 10.6348V4.83398C21.334 2.16427 19.1697 0 16.5 0ZM16.2167 5.51751L12.3495 9.3847C11.972 9.7622 11.3599 9.7622 10.9824 9.3847L9.04883 7.4511C8.6712 7.07347 8.6712 6.46162 9.04883 6.08399C9.42646 5.70636 10.0383 5.70636 10.4159 6.08399L11.666 7.33406L14.8497 4.15039C15.2273 3.77276 15.8392 3.77276 16.2168 4.15039C16.5944 4.52803 16.5944 5.13988 16.2167 5.51751Z" fill="#192A56"/>
<path d="M24.2344 1.93359H22.5888C23.0112 2.81615 23.2676 3.7921 23.2676 4.83398V10.6348C23.2676 12.849 22.1832 14.8004 20.5341 16.0359L23.5507 19.0526C24.1598 19.6617 25.2012 19.2303 25.2012 18.369V15.3715C27.4048 14.9221 29.0684 12.9696 29.0684 10.6348V6.76758C29.0684 4.09787 26.9041 1.93359 24.2344 1.93359Z" fill="#192A56"/>
</svg>
