<svg width="32" height="33" viewBox="0 0 32 33" fill="none" xmlns="http://www.w3.org/2000/svg">
<path d="M11.0934 6.95869C11.1342 7.01979 11.1626 7.08833 11.1769 7.1604C11.1911 7.23247 11.1911 7.30664 11.1767 7.37868C11.1623 7.45073 11.1338 7.51922 11.0929 7.58025C11.052 7.64128 10.9995 7.69365 10.9383 7.73437L9.26021 8.85311C9.19911 8.89466 9.13038 8.92369 9.058 8.93853C8.98561 8.95337 8.91101 8.95372 8.83849 8.93956C8.76597 8.9254 8.69697 8.89702 8.63548 8.85605C8.57399 8.81508 8.52123 8.76233 8.48024 8.70085C8.43926 8.63937 8.41086 8.57038 8.39668 8.49787C8.3825 8.42535 8.38284 8.35074 8.39766 8.27836C8.41248 8.20597 8.44149 8.13724 8.48303 8.07613C8.52456 8.01502 8.57779 7.96274 8.63964 7.92232L10.3177 6.80358C10.3788 6.76273 10.4474 6.73434 10.5195 6.72003C10.5915 6.70572 10.6657 6.70577 10.7378 6.72017C10.8098 6.73458 10.8783 6.76307 10.9394 6.804C11.0004 6.84493 11.0528 6.89749 11.0934 6.95869ZM7.27181 5.03149H9.50929C9.65765 5.03149 9.79993 4.97256 9.90483 4.86766C10.0097 4.76275 10.0687 4.62048 10.0687 4.47212C10.0687 4.32377 10.0097 4.18149 9.90483 4.07659C9.79993 3.97168 9.65765 3.91275 9.50929 3.91275H7.27181C7.12346 3.91275 6.98118 3.97168 6.87628 4.07659C6.77138 4.18149 6.71244 4.32377 6.71244 4.47212C6.71244 4.62048 6.77138 4.76275 6.87628 4.86766C6.98118 4.97256 7.12346 5.03149 7.27181 5.03149ZM9.75838 2.14067C9.88182 2.22134 10.0321 2.25001 10.1766 2.22043C10.3211 2.19085 10.448 2.10542 10.5298 1.98272C10.6116 1.86003 10.6417 1.70999 10.6134 1.56525C10.5852 1.42052 10.5009 1.2928 10.3789 1.20987L8.70084 0.0911339C8.57739 0.0104581 8.42709 -0.0182088 8.28262 0.0113698C8.13815 0.0409484 8.0112 0.126379 7.9294 0.249077C7.8476 0.371774 7.81755 0.521811 7.84581 0.666545C7.87406 0.81128 7.95833 0.939002 8.08027 1.02193L9.75838 2.14067ZM13.4814 7.82834L15.6624 6.68163L17.8433 7.82834L17.4268 5.39978L19.1913 3.67983L16.7531 3.32541L15.6624 1.1159L14.5716 3.32541L12.1331 3.67977L13.8976 5.39972L13.4814 7.82834ZM21.2561 4.47212C21.2561 4.62048 21.315 4.76275 21.4199 4.86766C21.5248 4.97256 21.6671 5.03149 21.8154 5.03149H24.0529C24.2013 5.03149 24.3435 4.97256 24.4485 4.86766C24.5534 4.76275 24.6123 4.62048 24.6123 4.47212C24.6123 4.32377 24.5534 4.18149 24.4485 4.07659C24.3435 3.97168 24.2013 3.91275 24.0529 3.91275H21.8154C21.6671 3.91275 21.5248 3.97168 21.4199 4.07659C21.315 4.18149 21.2561 4.32377 21.2561 4.47212ZM22.0645 8.85311C22.1256 8.89466 22.1944 8.92369 22.2667 8.93853C22.3391 8.95337 22.4137 8.95372 22.4862 8.93956C22.5588 8.9254 22.6278 8.89702 22.6892 8.85605C22.7507 8.81508 22.8035 8.76233 22.8445 8.70085C22.8855 8.63937 22.9139 8.57038 22.9281 8.49787C22.9422 8.42535 22.9419 8.35074 22.9271 8.27836C22.9123 8.20597 22.8832 8.13724 22.8417 8.07613C22.8002 8.01502 22.7469 7.96274 22.6851 7.92232L21.007 6.80358C20.8835 6.7229 20.7332 6.69423 20.5888 6.72381C20.4443 6.75339 20.3173 6.83882 20.2355 6.96152C20.1537 7.08422 20.1237 7.23425 20.152 7.37899C20.1802 7.52372 20.2645 7.65144 20.3864 7.73437L22.0645 8.85311ZM20.6973 2.23464C20.8075 2.23468 20.9153 2.20197 21.007 2.14067L22.6851 1.02193C22.807 0.939002 22.8913 0.81128 22.9196 0.666545C22.9478 0.521811 22.9178 0.371774 22.836 0.249077C22.7542 0.126379 22.6272 0.0409484 22.4827 0.0113698C22.3383 -0.0182088 22.188 0.0104581 22.0645 0.0911339L20.3864 1.20987C20.2865 1.2765 20.2107 1.37351 20.1702 1.48657C20.1296 1.59962 20.1266 1.72271 20.1615 1.83764C20.1963 1.95256 20.2672 2.05322 20.3637 2.12471C20.4602 2.19621 20.5772 2.23475 20.6973 2.23464ZM27.9685 26.2876H23.4935C22.8563 26.2876 22.2321 26.469 21.6942 26.8108C21.1563 27.1526 20.7269 27.6405 20.4562 28.2174C21.3343 28.8258 21.9653 29.7288 22.235 30.7625H31.3247V29.6438C31.324 28.7539 30.9702 27.9006 30.3409 27.2714C29.7117 26.6421 28.8584 26.2883 27.9685 26.2876ZM17.8998 28.525H13.4249C12.5348 28.525 11.6811 28.8786 11.0517 29.5081C10.4223 30.1375 10.0687 30.9911 10.0687 31.8813V33H21.2561V31.8813C21.2561 30.9911 20.9025 30.1375 20.2731 29.5081C19.6436 28.8786 18.79 28.525 17.8998 28.525ZM22.9342 22.9313C22.9342 23.4845 23.0982 24.0252 23.4055 24.4852C23.7129 24.9451 24.1497 25.3036 24.6607 25.5153C25.1718 25.727 25.7341 25.7824 26.2767 25.6744C26.8192 25.5665 27.3176 25.3002 27.7087 24.909C28.0998 24.5179 28.3662 24.0195 28.4741 23.477C28.5821 22.9344 28.5267 22.3721 28.315 21.861C28.1033 21.35 27.7448 20.9132 27.2849 20.6058C26.8249 20.2985 26.2842 20.1345 25.731 20.1345C24.9893 20.1345 24.2779 20.4292 23.7534 20.9537C23.2288 21.4782 22.9342 22.1896 22.9342 22.9313ZM15.6624 22.372C15.1092 22.372 14.5685 22.536 14.1085 22.8433C13.6486 23.1506 13.2901 23.5875 13.0784 24.0985C12.8667 24.6096 12.8113 25.1719 12.9193 25.7145C13.0272 26.257 13.2935 26.7553 13.6847 27.1465C14.0758 27.5376 14.5742 27.804 15.1167 27.9119C15.6593 28.0198 16.2216 27.9645 16.7327 27.7528C17.2437 27.5411 17.6805 27.1826 17.9879 26.7227C18.2952 26.2627 18.4592 25.722 18.4592 25.1688C18.4592 24.427 18.1645 23.7157 17.64 23.1911C17.1155 22.6666 16.4041 22.372 15.6624 22.372ZM15.6624 9.50645C15.1092 9.50645 14.5685 9.67048 14.1085 9.97781C13.6486 10.2851 13.2901 10.7219 13.0784 11.233C12.8667 11.7441 12.8113 12.3064 12.9193 12.8489C13.0272 13.3915 13.2935 13.8898 13.6847 14.281C14.0758 14.6721 14.5742 14.9385 15.1167 15.0464C15.6593 15.1543 16.2216 15.0989 16.7327 14.8873C17.2437 14.6756 17.6805 14.3171 17.9879 13.8572C18.2952 13.3972 18.4592 12.8565 18.4592 12.3033C18.4592 11.5615 18.1645 10.8501 17.64 10.3256C17.1155 9.80112 16.4041 9.50645 15.6624 9.50645ZM5.5937 25.7282C6.14687 25.7282 6.68761 25.5642 7.14755 25.2568C7.60749 24.9495 7.96597 24.5127 8.17766 24.0016C8.38934 23.4906 8.44473 22.9282 8.33681 22.3857C8.2289 21.8432 7.96252 21.3448 7.57137 20.9537C7.18023 20.5625 6.68188 20.2961 6.13934 20.1882C5.5968 20.0803 5.03445 20.1357 4.52339 20.3474C4.01234 20.5591 3.57553 20.9175 3.26821 21.3775C2.96088 21.8374 2.79685 22.3782 2.79685 22.9313C2.79685 23.2986 2.86919 23.6623 3.00975 24.0016C3.1503 24.341 3.35632 24.6493 3.61603 24.909C3.87574 25.1687 4.18406 25.3747 4.52339 25.5153C4.86272 25.6558 5.22641 25.7282 5.5937 25.7282ZM10.8686 28.2174C10.5978 27.6405 10.1684 27.1526 9.63049 26.8108C9.09258 26.469 8.46847 26.2876 7.83118 26.2876H3.35622C2.46631 26.2883 1.61306 26.6421 0.9838 27.2714C0.35454 27.9006 0.000711073 28.7539 0 29.6438V30.7625H9.08977C9.35938 29.7288 9.99045 28.8258 10.8686 28.2174ZM11.1874 19.5751V26.699C11.4526 26.999 11.6764 27.3332 11.8531 27.6925L11.8628 27.6908C12.0768 27.6098 12.2968 27.5454 12.5207 27.4984C12.0876 26.916 11.8248 26.2246 11.7618 25.5015C11.6988 24.7784 11.8381 24.0521 12.164 23.4035C12.4899 22.755 12.9896 22.2098 13.6075 21.8288C14.2253 21.4478 14.9368 21.2461 15.6626 21.2461C16.3885 21.2461 17.1 21.4478 17.7178 21.8288C18.3356 22.2098 18.8354 22.755 19.1613 23.4035C19.4872 24.0521 19.6265 24.7784 19.5635 25.5015C19.5005 26.2246 19.2377 26.916 18.8046 27.4984C19.0279 27.5453 19.2473 27.6095 19.4607 27.6903L19.4722 27.6925C19.6487 27.3332 19.8724 26.9991 20.1373 26.699V19.5751L25.5357 13.1953C25.744 12.9496 25.8512 12.634 25.8356 12.3122C25.8199 11.9905 25.6826 11.6867 25.4513 11.4625C25.2201 11.2382 24.9123 11.1102 24.5903 11.1044C24.2682 11.0986 23.956 11.2154 23.7168 11.4311L19.0186 15.6595H12.3061L7.60794 11.4311C7.36876 11.2154 7.05653 11.0986 6.73447 11.1044C6.41241 11.1102 6.1046 11.2382 5.87338 11.4625C5.64216 11.6867 5.50481 11.9905 5.48915 12.3122C5.47349 12.634 5.58069 12.9496 5.78903 13.1953L11.1874 19.5751Z" fill="#192A56"/>
</svg>
