<svg width="34" height="33" viewBox="0 0 34 33" fill="none" xmlns="http://www.w3.org/2000/svg">
<path d="M33.5025 21.0248C33.4892 21.004 33.4779 20.9845 33.4626 20.9656C31.5913 18.5345 31.5953 17.541 31.6012 16.4257C31.6032 16.1035 31.6032 15.7718 31.5694 15.3938C31.2134 11.4088 28.4901 8.57138 25.0716 7.17757C23.5057 6.53717 21.7904 6.2015 20.0911 6.19948C19.095 6.19746 18.1036 6.3098 17.1507 6.54255C18.0524 7.84084 18.5419 9.39542 18.5419 11.0105C18.5419 12.6653 18.1673 14.01 17.1825 15.3373C16.887 15.7355 16.5616 16.1055 16.2356 16.4754C16.0775 16.653 15.9228 16.83 15.7707 17.0116C15.5954 17.2174 15.4546 17.4461 15.3604 17.7018C15.2661 17.9594 15.2302 18.2278 15.2302 18.5009V19.5994C15.2302 20.6596 14.8145 21.6699 14.0727 22.4193C13.6829 22.8142 13.2221 23.1189 12.7194 23.3173C14.0143 25.2735 14.7959 27.4039 12.4744 32.1914C12.4292 32.2715 12.4046 32.363 12.4046 32.4605C12.4046 32.7578 12.6417 33 12.9352 33H25.4813V32.998C25.7203 32.998 25.9368 32.8318 25.9953 32.5883L26.6069 30.0314C28.2916 30.3483 29.7392 30.4411 30.6729 30.0637C31.8005 29.6063 32.2374 28.6262 31.6086 26.8375C31.7533 26.7346 31.8795 26.6182 31.9791 26.4904C32.1464 26.2785 32.248 26.035 32.2693 25.7848C32.2919 25.5177 32.2261 25.2486 32.0548 25.0051L32.0508 24.9991C32.0867 24.9627 32.1205 24.9264 32.1544 24.8887C32.2786 24.7421 32.3802 24.5706 32.4366 24.3775C32.4878 24.2019 32.5004 24.0136 32.4612 23.8151C32.7793 23.7694 33.1014 23.6819 33.3683 23.5138C34.0297 23.1014 34.3173 22.3668 33.5025 21.0248ZM18.5585 18.7996C18.3513 19.0095 18.0146 19.0095 17.8074 18.7996L16.5836 17.5598C16.3764 17.3499 16.3764 17.0089 16.5836 16.799C16.7907 16.5891 17.1274 16.5891 17.3346 16.799L18.5585 18.0388C18.765 18.248 18.765 18.5897 18.5585 18.7996ZM21.212 11.5473H19.4822C19.1887 11.5473 18.9516 11.3052 18.9516 11.0099C18.9516 10.7125 19.1887 10.4704 19.4822 10.4704H21.212C21.5056 10.4704 21.7426 10.7125 21.7426 11.0099C21.7433 11.3052 21.5062 11.5473 21.212 11.5473ZM13.3217 21.6578C12.8004 22.1859 12.0812 22.5142 11.289 22.5142H10.4476C9.65542 22.5142 8.93624 22.1859 8.41496 21.6578C8.0816 21.3201 7.82793 20.9011 7.69047 20.4315H14.0488C13.9087 20.9004 13.6564 21.3201 13.3217 21.6578ZM10.3361 17.2719H7.35047C7.21899 16.9309 7.02641 16.612 6.77274 16.3106C6.59212 16.0954 6.44137 15.9252 6.29263 15.7577C5.2049 14.526 4.25596 13.4504 4.25596 11.0099C4.25596 9.15998 4.99572 7.48633 6.19302 6.27348C7.39032 5.06062 9.04316 4.31125 10.8687 4.31125C12.6942 4.31125 14.347 5.06062 15.5423 6.27348C16.7396 7.48633 17.4794 9.16065 17.4794 11.0099C17.4794 13.4504 16.5304 14.526 15.4427 15.7577C15.2959 15.9252 15.1452 16.0954 14.9626 16.3106C14.7082 16.612 14.5163 16.9302 14.3849 17.2719H11.3992V12.9607L12.0301 12.3216C12.2373 12.1117 12.2373 11.7707 12.0301 11.5608C11.8229 11.3509 11.4862 11.3509 11.279 11.5608L10.8687 11.9785L10.4563 11.5608C10.2491 11.3509 9.91241 11.3509 9.70522 11.5608C9.49804 11.7707 9.49804 12.1117 9.70522 12.3216L10.3361 12.9607V17.2719ZM7.56895 19.3539V18.4996C7.56895 18.4478 7.56695 18.3966 7.56496 18.3469H14.1704C14.1684 18.3966 14.1684 18.4478 14.1684 18.4996V19.3539H7.56895ZM2.77643 11.0099C2.77643 11.3018 2.54268 11.5379 2.25315 11.5379H0.523279C0.235077 11.5379 0 11.3018 0 11.0099C0 10.7159 0.235077 10.4798 0.523279 10.4798H2.25315C2.54268 10.4798 2.77643 10.7166 2.77643 11.0099ZM5.14646 16.8051C5.35165 17.0129 5.35165 17.3486 5.14646 17.5544L3.9226 18.7935C3.7194 19.0014 3.38803 19.0014 3.18284 18.7935C2.97963 18.5877 2.97963 18.252 3.18284 18.0442L4.4067 16.8044C4.61189 16.5985 4.94326 16.5985 5.14646 16.8051ZM16.5895 5.21332C16.3863 5.00748 16.3863 4.67181 16.5895 4.46395L17.8134 3.22419C18.0186 3.01835 18.3499 3.01835 18.5532 3.22419C18.7583 3.43205 18.7583 3.76772 18.5532 3.97356L17.3293 5.21332C17.1254 5.42118 16.7947 5.42118 16.5895 5.21332ZM10.3454 2.28243V0.530077C10.3454 0.238131 10.5791 0 10.8687 0C11.1569 0 11.3899 0.238131 11.3899 0.530077V2.28243C11.3899 2.57639 11.1562 2.8125 10.8687 2.8125C10.5791 2.8125 10.3454 2.57572 10.3454 2.28243ZM3.18284 3.97356C2.97963 3.76772 2.97963 3.43205 3.18284 3.22419C3.38803 3.01835 3.7194 3.01835 3.9226 3.22419L5.14646 4.46395C5.35165 4.67181 5.35165 5.00748 5.14646 5.21332C4.94326 5.42118 4.61189 5.42118 4.4067 5.21332L3.18284 3.97356Z" fill="#192A56"/>
</svg>
