<svg width="33" height="33" viewBox="0 0 33 33" fill="none" xmlns="http://www.w3.org/2000/svg">
<path fill-rule="evenodd" clip-rule="evenodd" d="M26.6924 11.9127C26.6929 10.9599 26.5074 10.0163 26.1462 9.13472C25.8184 9.62271 25.3138 9.96426 24.739 10.0873C24.1641 10.2103 23.564 10.1052 23.0652 9.7941C22.5664 9.48301 22.2079 8.9903 22.0655 8.41994C21.9231 7.84959 22.0079 7.24621 22.3019 6.73716L23.0308 5.47453C21.6952 4.63988 20.1549 4.19064 18.58 4.17642V6.52468C18.5803 6.62604 18.5531 6.72557 18.5013 6.8127C18.4495 6.89984 18.3751 6.97133 18.286 7.01957C18.1968 7.06782 18.0963 7.09101 17.995 7.08671C17.8938 7.0824 17.7955 7.05074 17.7108 6.9951C17.5218 6.87191 17.303 6.80207 17.0776 6.79294C16.8521 6.78381 16.6284 6.83574 16.4301 6.94323C16.2317 7.05073 16.066 7.20981 15.9506 7.40366C15.8352 7.59752 15.7742 7.81895 15.7742 8.04457C15.7742 8.27019 15.8352 8.49162 15.9506 8.68548C16.066 8.87933 16.2317 9.03841 16.4301 9.1459C16.6284 9.2534 16.8521 9.30533 17.0776 9.2962C17.303 9.28707 17.5218 9.21723 17.7108 9.09404C17.7956 9.03842 17.8938 9.00678 17.995 9.00249C18.0963 8.99819 18.1968 9.0214 18.286 9.06965C18.3751 9.1179 18.4495 9.18938 18.5013 9.27651C18.553 9.36365 18.5803 9.46317 18.58 9.56453V11.9127H21.1163C21.2176 11.9125 21.3171 11.9398 21.4042 11.9916C21.4913 12.0434 21.5627 12.1178 21.6109 12.2069C21.6591 12.296 21.6823 12.3966 21.678 12.4978C21.6737 12.599 21.6421 12.6972 21.5865 12.7819C21.4633 12.9709 21.3934 13.1897 21.3843 13.4151C21.3752 13.6406 21.4271 13.8643 21.5346 14.0626C21.6421 14.261 21.8012 14.4266 21.9951 14.5421C22.1889 14.6575 22.4103 14.7184 22.636 14.7184C22.8616 14.7184 23.083 14.6575 23.2769 14.5421C23.4707 14.4266 23.6298 14.261 23.7373 14.0626C23.8448 13.8643 23.8967 13.6406 23.8876 13.4151C23.8785 13.1897 23.8086 12.9709 23.6855 12.7819C23.6298 12.6972 23.5982 12.599 23.5939 12.4977C23.5896 12.3964 23.6128 12.2959 23.661 12.2068C23.7092 12.1176 23.7807 12.0432 23.8679 11.9914C23.955 11.9396 24.0545 11.9124 24.1559 11.9127H26.6924ZM21.8577 3.77974L22.0468 3.18035C22.1131 2.96232 22.247 2.77102 22.4292 2.63406C22.6113 2.49711 22.8323 2.42161 23.0601 2.41845C24.3471 2.38727 25.6066 2.23985 27.1251 1.59439L30.056 6.67075C30.1133 6.77022 30.1824 6.86241 30.2618 6.94533C29.9909 7.27484 29.6627 7.55278 29.2931 7.76582L27.179 8.98635C26.9264 8.31043 26.588 7.66975 26.1722 7.08002L25.3531 8.49876C25.1865 8.78737 24.912 8.99796 24.5902 9.08422C24.2683 9.17048 23.9253 9.12533 23.6367 8.95871C23.3481 8.79208 23.1375 8.51764 23.0512 8.19574C22.965 7.87385 23.0101 7.53087 23.1767 7.24226L24.3647 5.18454C23.6054 4.59154 22.76 4.11778 21.8577 3.77974ZM17.7282 30.653H11.11C11.5597 32.0146 12.8711 33 14.419 33C15.967 33 17.2785 32.0147 17.7282 30.653ZM6.30538 16.3729C6.30538 12.134 9.92751 8.69171 14.4178 8.63655V10.986C14.4177 11.0872 14.3904 11.1865 14.3385 11.2734C14.2867 11.3603 14.2123 11.4316 14.1233 11.4797C14.0342 11.5278 13.9339 11.5509 13.8328 11.5466C13.7317 11.5423 13.6336 11.5107 13.549 11.4552C13.3599 11.332 13.1412 11.2622 12.9157 11.2531C12.6903 11.2439 12.4666 11.2959 12.2682 11.4034C12.0698 11.5109 11.9042 11.6699 11.7888 11.8638C11.6733 12.0577 11.6124 12.2791 11.6124 12.5047C11.6124 12.7303 11.6733 12.9518 11.7888 13.1456C11.9042 13.3395 12.0698 13.4985 12.2682 13.606C12.4666 13.7135 12.6903 13.7655 12.9157 13.7563C13.1412 13.7472 13.3599 13.6774 13.549 13.5542C13.6336 13.4986 13.7317 13.467 13.8328 13.4626C13.934 13.4583 14.0344 13.4814 14.1235 13.5295C14.2126 13.5776 14.287 13.6489 14.3389 13.7358C14.3907 13.8228 14.4181 13.9221 14.4181 14.0234V16.3729H16.9557C17.0569 16.3728 17.1563 16.4002 17.2432 16.4521C17.3302 16.504 17.4015 16.5784 17.4496 16.6675C17.4977 16.7566 17.5208 16.857 17.5164 16.9582C17.5121 17.0593 17.4804 17.1574 17.4249 17.242C17.3017 17.4311 17.2318 17.6498 17.2227 17.8753C17.2136 18.1007 17.2655 18.3244 17.373 18.5228C17.4805 18.7212 17.6396 18.8868 17.8334 19.0023C18.0273 19.1177 18.2487 19.1786 18.4743 19.1786C18.7 19.1786 18.9214 19.1177 19.1152 19.0023C19.3091 18.8868 19.4682 18.7212 19.5757 18.5228C19.6832 18.3244 19.7351 18.1007 19.726 17.8753C19.7168 17.6498 19.647 17.4311 19.5238 17.242C19.4682 17.1574 19.4366 17.0593 19.4323 16.9582C19.4279 16.857 19.451 16.7566 19.4991 16.6675C19.5472 16.5784 19.6185 16.504 19.7055 16.4521C19.7924 16.4002 19.8918 16.3728 19.993 16.3729H22.5305C22.5305 20.5114 20.1541 22.2201 18.8753 24.4136C18.8393 24.4114 18.8032 24.4103 18.7668 24.4103H10.0691C10.0327 24.4103 9.99659 24.4114 9.96071 24.4136C8.68179 22.2201 6.30538 20.5114 6.30538 16.3729ZM30.9308 6.16558C30.9874 6.2629 31.0802 6.33388 31.1889 6.36302C31.2976 6.39215 31.4135 6.37708 31.5111 6.32109L32.1852 5.93189C32.2825 5.87532 32.3535 5.78254 32.3827 5.67381C32.4118 5.56507 32.3968 5.44922 32.3408 5.35156L29.3734 0.211957C29.3168 0.114637 29.224 0.0436574 29.1153 0.0145212C29.0066 -0.014615 28.8907 0.00045961 28.7931 0.0564526L28.1191 0.445652C28.0218 0.502214 27.9508 0.595001 27.9217 0.70374C27.8925 0.812479 27.9076 0.92833 27.9636 1.02598L30.9309 6.16558H30.9308ZM28.3809 16.244C28.5149 16.244 28.6433 16.2972 28.7381 16.392C28.8328 16.4867 28.886 16.6152 28.886 16.7491C28.886 16.8831 28.8328 17.0116 28.7381 17.1063C28.6433 17.201 28.5149 17.2542 28.3809 17.2542H25.9425C25.8086 17.2542 25.6801 17.201 25.5854 17.1063C25.4906 17.0116 25.4374 16.8831 25.4374 16.7491C25.4374 16.6152 25.4906 16.4867 25.5854 16.392C25.6801 16.2972 25.8086 16.244 25.9425 16.244H28.3809ZM2.62499 24.1542C2.50935 24.2211 2.37183 24.2394 2.24269 24.205C2.11356 24.1706 2.00338 24.0863 1.9364 23.9707C1.86942 23.855 1.85112 23.7175 1.88553 23.5884C1.91994 23.4592 2.00424 23.3491 2.11989 23.2821L4.23149 22.0631C4.28875 22.0299 4.35199 22.0084 4.41758 21.9996C4.48317 21.9909 4.54985 21.9952 4.61379 22.0122C4.67773 22.0293 4.73769 22.0587 4.79024 22.0989C4.8428 22.1391 4.88692 22.1893 4.92008 22.2466C4.95325 22.3038 4.97481 22.3671 4.98354 22.4327C4.99227 22.4983 4.98799 22.5649 4.97095 22.6289C4.95391 22.6928 4.92445 22.7528 4.88423 22.8053C4.84402 22.8579 4.79386 22.902 4.73659 22.9352L2.62499 24.1542ZM0.505104 17.2542C0.371142 17.2542 0.242667 17.201 0.147941 17.1063C0.0532161 17.0116 0 16.8831 0 16.7491C0 16.6152 0.0532161 16.4867 0.147941 16.392C0.242667 16.2972 0.371142 16.244 0.505104 16.244H2.94348C3.07744 16.244 3.20591 16.2972 3.30064 16.392C3.39536 16.4867 3.44858 16.6152 3.44858 16.7491C3.44858 16.8831 3.39536 17.0116 3.30064 17.1063C3.20591 17.201 3.07744 17.2542 2.94348 17.2542H0.505104ZM2.12184 10.2164C2.00767 10.1492 1.92462 10.0397 1.89075 9.91162C1.85687 9.78354 1.8749 9.64727 1.94091 9.5324C2.00693 9.41754 2.1156 9.33336 2.24332 9.29815C2.37104 9.26294 2.50749 9.27955 2.62304 9.34437L4.73471 10.5634C4.85035 10.6298 4.93486 10.7395 4.96965 10.8682C5.00443 10.997 4.98664 11.1343 4.92018 11.25C4.85373 11.3656 4.74406 11.4501 4.61529 11.4849C4.48653 11.5197 4.34922 11.5019 4.23358 11.4354L2.12184 10.2164ZM7.03818 4.92936C6.97337 4.81381 6.95676 4.67736 6.99197 4.54964C7.02717 4.42192 7.11135 4.31325 7.22622 4.24723C7.34108 4.18122 7.47736 4.16319 7.60544 4.19707C7.73352 4.23094 7.84306 4.31399 7.91026 4.42816L9.12925 6.5399C9.16215 6.59716 9.18346 6.66034 9.19194 6.72584C9.20043 6.79133 9.19593 6.85786 9.17871 6.92161C9.16149 6.98537 9.13187 7.04511 9.09156 7.09742C9.05125 7.14974 9.00103 7.1936 8.94377 7.2265C8.88651 7.25941 8.82333 7.28071 8.75783 7.2892C8.69234 7.29769 8.62581 7.29319 8.56206 7.27597C8.4983 7.25874 8.43856 7.22913 8.38625 7.18882C8.33393 7.14851 8.29007 7.09829 8.25717 7.04103L7.03818 4.92936ZM13.9379 2.81122C13.9379 2.67726 13.9911 2.54878 14.0858 2.45406C14.1806 2.35933 14.309 2.30612 14.443 2.30612C14.577 2.30612 14.7054 2.35933 14.8002 2.45406C14.8949 2.54878 14.9481 2.67726 14.9481 2.81122V5.24959C14.9481 5.38356 14.8949 5.51203 14.8002 5.60676C14.7054 5.70148 14.577 5.7547 14.443 5.7547C14.309 5.7547 14.1806 5.70148 14.0858 5.60676C13.9911 5.51203 13.9379 5.38356 13.9379 5.24959V2.81122ZM26.7661 23.2818C26.8234 23.315 26.8736 23.3591 26.9138 23.4116C26.954 23.4642 26.9834 23.5242 27.0005 23.5881C27.0175 23.652 27.0218 23.7187 27.0131 23.7843C27.0043 23.8499 26.9828 23.9131 26.9496 23.9704C26.9164 24.0277 26.8723 24.0778 26.8198 24.118C26.7672 24.1582 26.7073 24.1877 26.6433 24.2048C26.5794 24.2218 26.5127 24.2261 26.4471 24.2173C26.3815 24.2086 26.3183 24.187 26.261 24.1539L24.1494 22.9349C24.0338 22.8679 23.9495 22.7577 23.9151 22.6286C23.8806 22.4995 23.899 22.3619 23.9659 22.2463C24.0329 22.1307 24.1431 22.0464 24.2722 22.012C24.4014 21.9775 24.5389 21.9958 24.6545 22.0628L26.7661 23.2818ZM18.7665 25.4205H10.0691C9.8574 25.422 9.6548 25.507 9.50542 25.6571C9.35605 25.8071 9.27198 26.0101 9.27153 26.2219C9.27108 26.4336 9.35427 26.637 9.50301 26.7877C9.65174 26.9384 9.85398 27.0242 10.0657 27.0266H18.7699C18.9817 27.0242 19.1839 26.9384 19.3326 26.7877C19.4814 26.637 19.5646 26.4336 19.5641 26.2219C19.5637 26.0101 19.4796 25.8071 19.3302 25.6571C19.1808 25.507 18.9782 25.422 18.7665 25.4205ZM10.0691 28.0365C9.96307 28.0355 9.85786 28.0556 9.75958 28.0955C9.6613 28.1354 9.57191 28.1944 9.49656 28.2691C9.4212 28.3438 9.36139 28.4326 9.32058 28.5305C9.27976 28.6284 9.25874 28.7335 9.25874 28.8395C9.25874 28.9456 9.27976 29.0506 9.32058 29.1485C9.36139 29.2464 9.4212 29.3353 9.49656 29.41C9.57191 29.4846 9.6613 29.5436 9.75958 29.5835C9.85786 29.6235 9.96307 29.6435 10.0691 29.6425H18.7665C18.8726 29.6435 18.9778 29.6235 19.0761 29.5835C19.1743 29.5436 19.2637 29.4846 19.3391 29.41C19.4144 29.3353 19.4742 29.2464 19.5151 29.1485C19.5559 29.0506 19.5769 28.9456 19.5769 28.8395C19.5769 28.7335 19.5559 28.6284 19.5151 28.5305C19.4742 28.4326 19.4144 28.3438 19.3391 28.2691C19.2637 28.1944 19.1743 28.1354 19.0761 28.0955C18.9778 28.0556 18.8726 28.0355 18.7665 28.0365H10.0691Z" fill="#192A56"/>
</svg>
