<svg width="34" height="33" viewBox="0 0 34 33" fill="none" xmlns="http://www.w3.org/2000/svg">
<path d="M19.1659 5.98035H22.9067L19.1659 1.72961V5.98035Z" fill="#192A56"/>
<path d="M33.7205 31.5402L28.566 26.3926C29.1024 25.484 29.4116 24.4263 29.4116 23.2974C29.4116 19.9261 26.6651 17.1833 23.2892 17.1833C19.9134 17.1833 17.1669 19.9261 17.1669 23.2974C17.1669 26.6688 19.9134 29.4115 23.2892 29.4115C24.7876 29.4115 26.1612 28.8703 27.2265 27.9746L32.2588 33L33.7205 31.5402Z" fill="#192A56"/>
<path d="M5.47595 5.18774H12.1768V10.8799H5.47595V5.18774Z" fill="#192A56"/>
<path d="M23.2761 15.1188C23.5688 15.1188 23.8493 15.1343 24.1376 15.1653V7.92576H18.161C17.5902 7.92576 17.1485 7.53279 17.1485 6.96271V0H0.720524C0.322579 0 0 0.322579 0 0.720524V31.9939C0 32.3919 0.322579 32.7118 0.720524 32.7118H23.451C23.8473 32.7118 24.1376 32.3902 24.1376 31.9939V31.4296C23.8493 31.4605 23.5688 31.4761 23.2761 31.4761C18.7603 31.4761 15.0864 27.8071 15.0864 23.2975C15.0864 18.7879 18.7603 15.1188 23.2761 15.1188ZM13.8341 29.6135H3.53057V27.524H13.8341V29.6135ZM3.53057 24.0655V21.976H13.69V24.0655H3.53057ZM13.8341 18.5175H3.53057V16.4279H13.8341V18.5175ZM14.2664 11.9106C14.2664 12.4807 13.7698 12.9694 13.1989 12.9694H4.45262C3.88175 12.9694 3.38646 12.4807 3.38646 11.9106V4.12903C3.38646 3.55888 3.88175 3.09825 4.45262 3.09825H13.1989C13.7698 3.09825 14.2664 3.55888 14.2664 4.12903V11.9106Z" fill="#192A56"/>
</svg>
