<svg width="33" height="33" viewBox="0 0 33 33" fill="none" xmlns="http://www.w3.org/2000/svg">
<path d="M27.0037 29.7911L23.8335 25.1676C23.338 24.5691 22.6014 24.2227 21.8243 24.2227H17.697C16.9654 24.2227 16.2892 24.6123 15.9222 25.2451L14.0394 28.4914H22.3345C22.6218 28.4914 22.8723 28.7128 22.8809 28.9999C22.8899 29.2971 22.6517 29.5407 22.3565 29.5407L15.5909 29.5628C14.7076 29.5663 13.9081 30.2223 13.9081 31.1286C13.9081 31.3509 13.936 31.5556 13.9878 31.7414H13.2838L10.5799 23.2725C10.4646 22.9114 10.1291 22.6664 9.75002 22.6664H0.871757C0.281808 22.6664 -0.137531 23.2405 0.0418951 23.8024L2.78496 32.3938C2.90023 32.7549 3.23576 33 3.61482 33H9.14488H13.6857H15.6866H17.5377H25.3505C26.5076 33 27.4385 32.032 27.3778 30.8617C27.3578 30.4775 27.2213 30.1084 27.0037 29.7911Z" fill="#192A56"/>
<path d="M19.6842 23.5249C21.6386 23.5249 23.2228 21.9406 23.2228 19.9862C23.2228 18.0319 21.6386 16.4476 19.6842 16.4476C17.7299 16.4476 16.1456 18.0319 16.1456 19.9862C16.1456 21.9406 17.7299 23.5249 19.6842 23.5249Z" fill="#192A56"/>
<path d="M13.1859 10.7592C15.1403 10.7592 16.7246 9.17494 16.7246 7.22062C16.7246 5.2663 15.1403 3.68201 13.1859 3.68201C11.2316 3.68201 9.64734 5.2663 9.64734 7.22062C9.64734 9.17494 11.2316 10.7592 13.1859 10.7592Z" fill="#192A56"/>
<path d="M11.0446 14.977L10.9348 22.0669C11.2156 22.2933 11.433 22.6002 11.5489 22.9632L13.1541 27.9907C13.1559 27.9875 13.1577 27.9843 13.1595 27.9812L15.0423 24.7348C15.4094 24.1018 15.9887 23.6309 16.6592 23.3888C15.721 22.5537 15.1286 21.3381 15.1286 19.9863C15.1286 17.8658 16.5848 16.0791 18.5497 15.5736L18.3176 13.6851L20.4538 14.4837C20.88 14.6431 21.1067 15.1084 20.9695 15.5422L20.948 15.6101C21.8615 15.8744 22.6575 16.4169 23.238 17.1403L23.8721 15.2488C24.1879 14.3068 23.8418 13.2694 23.0238 12.7057L19.2371 10.0959C18.6367 9.68208 17.961 9.40202 17.2551 9.26538C16.5044 10.753 14.9629 11.7763 13.1859 11.7763C12.0089 11.7763 10.9348 11.3276 10.1254 10.5924C9.66095 10.972 9.25883 11.4327 8.94263 11.9611L3.26624 21.6492H6.91958L11.0446 14.977Z" fill="#192A56"/>
<path d="M26.8818 0C23.5545 0 20.8571 2.22391 20.8571 4.96717C20.8571 5.32283 20.9028 5.66968 20.989 6.00419L19.9865 6.97273C19.7573 7.19406 19.9048 7.58214 20.2231 7.59556L21.8209 7.66283C22.8942 9.02975 24.7597 9.93441 26.8818 9.93441C30.2091 9.93441 32.9064 7.7105 32.9064 4.96724C32.9064 2.22391 30.2091 0 26.8818 0ZM24.5803 5.58621C24.2384 5.58621 23.9612 5.30907 23.9612 4.96717C23.9612 4.62527 24.2384 4.34813 24.5803 4.34813C24.9222 4.34813 25.1993 4.62527 25.1993 4.96717C25.1993 5.30907 24.9222 5.58621 24.5803 5.58621ZM26.8818 5.58621C26.5399 5.58621 26.2627 5.30907 26.2627 4.96717C26.2627 4.62527 26.5399 4.34813 26.8818 4.34813C27.2237 4.34813 27.5008 4.62527 27.5008 4.96717C27.5008 5.30907 27.2237 5.58621 26.8818 5.58621ZM29.1832 5.58621C28.8413 5.58621 28.5641 5.30907 28.5641 4.96717C28.5641 4.62527 28.8413 4.34813 29.1832 4.34813C29.5251 4.34813 29.8022 4.62527 29.8022 4.96717C29.8022 5.30907 29.5251 5.58621 29.1832 5.58621Z" fill="#192A56"/>
</svg>
