<svg width="44" height="45" viewBox="0 0 44 45" fill="none" xmlns="http://www.w3.org/2000/svg">
<path d="M6.16238 10.4807C3.89269 11.3215 2.27051 13.5078 2.27051 16.0662C2.27051 18.887 4.24254 21.2559 6.88026 21.8673V23.8535C6.88026 24.3753 7.18238 24.8501 7.65514 25.0712C7.83675 25.1564 8.03141 25.1979 8.2247 25.1979C8.53403 25.1979 8.84028 25.0915 9.08678 24.8855L12.5169 22.0205H18.2689C20.5959 22.0205 22.6143 20.6777 23.5931 18.7273H16.5842C11.5268 18.727 7.27748 15.2024 6.16238 10.4807Z" fill="#F6B93B"/>
<path d="M31.1267 0H16.584C12.1624 0 8.56543 3.59733 8.56543 8.01898C8.56543 12.4406 12.1624 16.0376 16.584 16.0376H25.1306L30.265 20.3261C30.5115 20.5321 30.8177 20.6385 31.127 20.6385C31.3203 20.6385 31.5146 20.5969 31.6966 20.5118C32.1694 20.2907 32.4715 19.8159 32.4715 19.294V15.925C36.2552 15.2837 39.1456 11.9826 39.1456 8.01898C39.1456 3.59733 35.5483 0 31.1267 0Z" fill="#F6B93B"/>
<path d="M15.3323 39.2763C14.4785 37.8354 13.2277 36.6979 11.7686 35.9684C13.4447 33.9939 13.3527 31.0218 11.4895 29.1589C9.52813 27.1972 6.33663 27.1975 4.37524 29.1589C3.42494 30.1089 2.90172 31.3723 2.90172 32.7161C2.90172 33.9211 3.32366 35.061 4.09578 35.9687C2.63702 36.6979 1.3863 37.8357 0.532466 39.2763C-0.16722 40.4563 -0.177863 41.8752 0.503627 43.0717C1.19164 44.2788 2.43034 44.9998 3.81735 44.9998H12.0474C13.4344 44.9998 14.6735 44.2788 15.3611 43.0717C16.0426 41.8752 16.032 40.4563 15.3323 39.2763Z" fill="#F6B93B"/>
<path d="M43.1778 38.2394C42.0335 36.3089 40.3135 34.8179 38.314 33.9328C39.4593 32.7871 40.0903 31.2642 40.0903 29.644C40.0903 28.0239 39.4593 26.5006 38.3137 25.3545C35.9482 22.9894 32.0999 22.9897 29.7348 25.3545C28.5891 26.5006 27.9581 28.0235 27.9581 29.644C27.9581 31.2642 28.5891 32.7875 29.7344 33.9328C27.7349 34.8179 26.0149 36.3089 24.8706 38.2394C24.0446 39.6326 24.0322 41.308 24.8373 42.7212C25.6503 44.1484 27.1142 45.0001 28.7532 45.0001H39.2952C40.9342 45.0001 42.3981 44.1484 43.2115 42.7212C44.0162 41.308 44.0038 39.6326 43.1778 38.2394Z" fill="#F6B93B"/>
</svg>
