<svg width="39" height="45" viewBox="0 0 39 45" fill="none" xmlns="http://www.w3.org/2000/svg">
<path fill-rule="evenodd" clip-rule="evenodd" d="M11.9918 18.749V14.6569C11.9918 12.4378 13.6822 10.5431 16.0058 9.89155C17.0014 10.5637 18.2034 10.9603 19.4991 10.9603C20.7948 10.9603 21.9997 10.5647 22.9954 9.89155C25.3161 10.5422 27.0093 12.4378 27.0093 14.6569V18.749C26.0647 19.214 25.2631 19.9237 24.7369 20.7984V16.4212C24.7369 16.0603 24.4416 15.765 24.0743 15.765C23.7071 15.765 23.4146 16.0603 23.4146 16.4212V20.8668H15.5884V16.4212C15.5884 16.0603 15.2931 15.765 14.9258 15.765C14.5586 15.765 14.2633 16.0603 14.2633 16.4212V20.7984C13.7399 19.9237 12.9383 19.215 11.9937 18.749H11.9918ZM14.6287 4.82343C14.6287 2.16094 16.8102 0 19.4982 0C22.1861 0 24.3677 2.16094 24.3677 4.82343C24.3677 7.48593 22.189 9.64686 19.4982 9.64686C16.8074 9.64686 14.6287 7.48874 14.6287 4.82343ZM16.5519 3.94875L18.0435 5.36531L17.6763 7.38187L19.4982 6.41155L21.323 7.38187L20.9557 5.36531L22.4474 3.94875L20.4002 3.67218L19.4991 1.82812L18.6 3.67218L16.5528 3.94875H16.5519ZM7.12702 19.4418C9.24425 19.4418 10.9583 17.7412 10.9583 15.6469C10.9583 13.5525 9.24425 11.8519 7.12702 11.8519C5.00979 11.8519 3.29575 13.5497 3.29575 15.6469C3.29575 17.744 5.00979 19.4418 7.12702 19.4418ZM31.8713 19.4418C33.9857 19.4418 35.7025 17.7412 35.7025 15.6469C35.7025 13.5525 33.9857 11.8519 31.8713 11.8519C29.7569 11.8519 28.04 13.5497 28.04 15.6469C28.04 17.744 29.754 19.4418 31.8713 19.4418ZM2.55278 23.97C2.55278 23.6081 2.84808 23.3137 3.2153 23.3137C3.58253 23.3137 3.87782 23.609 3.87782 23.97V27.7725H9.13635C9.54144 27.4987 9.9522 27.2353 10.3781 27.0018V23.97C10.3781 23.6081 10.6734 23.3137 11.0406 23.3137C11.4079 23.3137 11.7032 23.609 11.7032 23.97V26.3934C11.7249 26.3859 11.7439 26.3803 11.7647 26.3718C12.3657 26.1618 12.9771 26.0372 13.5942 25.9678V23.159C13.5942 21.4528 12.2445 20.0043 10.4226 19.5712C9.52913 20.31 8.38108 20.7534 7.12513 20.7534C5.86918 20.7534 4.72112 20.31 3.82766 19.5712C2.00573 20.0043 0.658914 21.4528 0.658914 23.159V27.7725H2.54994V23.97H2.55278ZM31.8713 20.7543C30.6153 20.7543 29.4673 20.3109 28.5738 19.5722C26.7519 20.0053 25.4022 21.4537 25.4022 23.16V27.7734H27.2932V23.9709C27.2932 23.609 27.5914 23.3147 27.9558 23.3147C28.3201 23.3147 28.6183 23.61 28.6183 23.9709V27.7734H35.1186V23.9709C35.1186 23.609 35.4167 23.3147 35.7811 23.3147C36.1455 23.3147 36.4436 23.61 36.4436 23.9709V27.7734H38.3346V23.16C38.3346 21.4537 36.9878 20.0053 35.1659 19.5722C34.2724 20.3109 33.1215 20.7543 31.8684 20.7543H31.8713ZM26.927 36.2953C19.8711 35.7318 21.9022 37.2225 16.6087 32.6437L23.4714 32.8406C25.1107 31.905 25.3009 28.514 23.1979 27.9534C11.2536 26.6062 13.1105 26.6803 5.81807 31.7456C5.92312 31.9528 6.00831 32.1787 6.0755 32.4206L8.63 41.8678C8.65177 41.9418 8.66786 42.0168 8.68395 42.0909L10.1084 41.5565C18.4789 44.684 18.9805 42.5109 27.9094 42.0403L39 33.7912C37.5699 28.08 29.4597 34.4446 26.927 36.2943V36.2953ZM5.45557 35.2003L4.79589 32.7609C4.05008 30.0075 -0.666129 31.2618 0.0796808 34.0125L2.63418 43.4596C3.37999 46.2103 8.0962 44.9587 7.35038 42.2053L5.45652 35.2003H5.45557Z" fill="#F6B93B"/>
</svg>
