<svg width="45" height="45" viewBox="0 0 45 45" fill="none" xmlns="http://www.w3.org/2000/svg">
<path d="M0.860185 40.4987L10.5562 30.8027C11.562 32.2606 12.8273 33.5258 14.285 34.5317L4.58903 44.2276C3.55931 45.2573 1.88982 45.2573 0.860185 44.2276C-0.169541 43.1979 -0.169541 41.5285 0.860185 40.4987Z" fill="#F6B93B"/>
<path d="M3.07617 4.39453C3.07617 1.97139 5.04756 0 7.4707 0C9.89385 0 11.8652 1.97139 11.8652 4.39453C11.8652 6.81768 9.89385 8.78906 7.4707 8.78906C5.04756 8.78906 3.07617 6.81768 3.07617 4.39453Z" fill="#F6B93B"/>
<path d="M33.1348 4.39453C33.1348 1.97139 35.1062 0 37.5293 0C39.9524 0 41.9238 1.97139 41.9238 4.39453C41.9238 6.81768 39.9524 8.78906 37.5293 8.78906C35.1062 8.78906 33.1348 6.81768 33.1348 4.39453Z" fill="#F6B93B"/>
<path d="M17.666 31.377C17.666 28.7115 19.8345 26.543 22.5 26.543C25.1655 26.543 27.334 28.7115 27.334 31.377V33.4229C25.8567 34.0845 24.2206 34.4531 22.5 34.4531C20.7794 34.4531 19.1433 34.0845 17.666 33.4229V31.377Z" fill="#F6B93B"/>
<path d="M22.5 23.9062C23.9562 23.9062 25.1367 22.7258 25.1367 21.2695C25.1367 19.8133 23.9562 18.6328 22.5 18.6328C21.0438 18.6328 19.8633 19.8133 19.8633 21.2695C19.8633 22.7258 21.0438 23.9062 22.5 23.9062Z" fill="#F6B93B"/>
<path d="M32.8097 37.0168C34.0667 38.1572 35.7297 38.8477 37.5293 38.8477C39.346 38.8477 41.004 38.1551 42.2532 37.0201C43.9285 38.3913 45 40.474 45 42.8028V43.6817C45 44.4098 44.4097 45 43.6816 45H31.377C30.6489 45 30.0586 44.4098 30.0586 43.6817V42.8028C30.0586 40.4721 31.1319 38.3879 32.8097 37.0168Z" fill="#F6B93B"/>
<path d="M37.5289 27.4219C39.952 27.4219 41.9234 29.3933 41.9234 31.8164C41.9234 34.2396 39.952 36.2109 37.5289 36.2109C35.3025 36.2109 33.4589 34.5464 33.1738 32.3967C34.4504 31.0115 35.4349 29.4058 36.0855 27.6666C36.538 27.5088 37.0233 27.4219 37.5289 27.4219Z" fill="#F6B93B"/>
<path d="M2.74685 9.59814C3.99603 10.7332 5.654 11.4257 7.4707 11.4257C9.2874 11.4257 10.9454 10.7332 12.1946 9.59814C12.7361 10.0414 13.2141 10.5594 13.6137 11.1356C11.4913 12.7862 9.83786 15.0124 8.8904 17.5781H1.31836C0.590273 17.5781 0 16.9878 0 16.2597V15.3808C0 13.0521 1.07147 10.9692 2.74685 9.59814Z" fill="#F6B93B"/>
<path d="M31.3867 11.1356C31.7863 10.5593 32.2643 10.0414 32.8059 9.59814C34.0551 10.7332 35.713 11.4257 37.5297 11.4257C39.3464 11.4257 41.0044 10.7332 42.2536 9.59814C43.929 10.9693 45.0004 13.0521 45.0004 15.3808V16.2597C45.0004 16.9878 44.4102 17.5781 43.6821 17.5781H36.11C35.1627 15.0124 33.5091 12.7862 31.3867 11.1356Z" fill="#F6B93B"/>
<path d="M22.5 10.7227C29.0425 10.7227 34.3652 16.0454 34.3652 22.5879C34.3652 26.3014 32.65 29.6213 29.9707 31.7986V31.3769C29.9707 28.6373 28.4874 26.2389 26.2826 24.9385C27.2043 23.9885 27.7734 22.6946 27.7734 21.2695C27.7734 18.3618 25.4078 15.9961 22.5 15.9961C19.5922 15.9961 17.2266 18.3618 17.2266 21.2695C17.2266 22.6946 17.7957 23.9885 18.7174 24.9385C16.5126 26.2388 15.0293 28.6373 15.0293 31.3769V31.7986C12.35 29.6212 10.6348 26.3014 10.6348 22.5879C10.6348 16.0454 15.9575 10.7227 22.5 10.7227Z" fill="#F6B93B"/>
</svg>
