<svg width="51" height="45" viewBox="0 0 51 45" fill="none" xmlns="http://www.w3.org/2000/svg">
<path fill-rule="evenodd" clip-rule="evenodd" d="M34.422 41.6398C34.422 43.4946 30.4267 45 25.5 45C20.5703 45 16.575 43.4946 16.575 41.6398C16.575 40.325 18.5771 39.1888 21.4937 38.635C22.0326 39.631 22.5695 40.627 23.1034 41.626C24.1194 43.5262 26.8786 43.5262 27.8946 41.626C28.4285 40.627 28.9644 39.631 29.5043 38.635C32.4209 39.1888 34.422 40.325 34.422 41.6398ZM13.251 19.996C10.5407 14.8333 11.3624 8.27979 15.7243 3.96011C21.0495 -1.32004 29.9466 -1.32004 35.2747 3.96011C39.6346 8.28078 40.4583 14.8333 37.745 19.996C34.0943 26.9434 30.1577 33.9116 26.4393 40.862C26.0409 41.6092 24.9541 41.6092 24.5557 40.862C20.8413 33.9116 16.9027 26.9444 13.251 19.996ZM17.2264 13.6478C17.2264 18.1639 20.9419 21.8469 25.5 21.8469C30.0541 21.8469 33.7706 18.1649 33.7706 13.6478C33.7706 9.13168 30.0551 5.44871 25.5 5.44871C20.9429 5.44871 17.2264 9.1307 17.2264 13.6478ZM25.5 20.2142C27.5918 20.2142 29.4555 19.2547 30.6697 17.7543C30.1617 17.1975 29.5322 16.7523 28.826 16.4532C27.9305 17.2143 26.768 17.6733 25.5 17.6733C24.229 17.6733 23.0665 17.2143 22.174 16.4532C21.4678 16.7523 20.8383 17.1975 20.3273 17.7543C21.5415 19.2547 23.4082 20.2142 25.5 20.2142ZM25.5 16.0426C27.4145 16.0426 28.9704 14.5036 28.9704 12.6034C28.9704 10.7062 27.4145 9.16426 25.5 9.16426C23.5825 9.16426 22.0296 10.7062 22.0296 12.6034C22.0296 14.5036 23.5825 16.0426 25.5 16.0426ZM49.1562 32.7813C47.9958 34.2166 46.2138 35.1376 44.2176 35.1376C42.2184 35.1376 40.4364 34.2166 39.279 32.7813C38.1464 33.8247 37.4322 35.3103 37.4322 36.9559V40.4424C37.4322 40.9824 37.8785 41.4246 38.4233 41.4246H40.3318V37.793C40.3318 37.3448 40.7014 36.9786 41.1566 36.9786C41.6118 36.9786 41.9784 37.3448 41.9784 37.793V41.4246H46.4538V37.793C46.4538 37.3448 46.8234 36.9786 47.2786 36.9786C47.7308 36.9786 48.1004 37.3448 48.1004 37.793V41.4246H50.0089C50.5537 41.4246 51 40.9824 51 40.4424V36.9559C51 35.3103 50.2878 33.8247 49.1562 32.7813ZM11.721 32.7813C10.5606 34.2166 8.77857 35.1376 6.7824 35.1376C4.78324 35.1376 3.00123 34.2166 1.84377 32.7813C0.712207 33.8247 0 35.3103 0 36.9559V40.4424C0 40.9824 0.443262 41.4246 0.988125 41.4246H2.89664V37.793C2.89664 37.3448 3.26619 36.9786 3.72141 36.9786C4.17662 36.9786 4.54318 37.3448 4.54318 37.793V41.4246H9.01863V37.793C9.01863 37.3448 9.38818 36.9786 9.8434 36.9786C10.2976 36.9786 10.6652 37.3448 10.6652 37.793V41.4246H12.5737C13.1186 41.4246 13.5648 40.9824 13.5648 40.4424V36.9559C13.5648 35.3103 12.8536 33.8247 11.721 32.7813ZM44.2176 33.5059C46.7985 33.5059 48.8933 31.4329 48.8933 28.8723C48.8933 26.3146 46.7985 24.2387 44.2176 24.2387C41.6337 24.2387 39.5419 26.3146 39.5419 28.8723C39.5419 31.4329 41.6337 33.5059 44.2176 33.5059ZM6.7824 33.5059C9.36328 33.5059 11.4581 31.4329 11.4581 28.8723C11.4581 26.3146 9.36328 24.2387 6.7824 24.2387C4.19853 24.2387 2.10674 26.3146 2.10674 28.8723C2.10674 31.4329 4.19853 33.5059 6.7824 33.5059Z" fill="#F6B93B"/>
</svg>
