<svg width="45" height="45" viewBox="0 0 45 45" fill="none" xmlns="http://www.w3.org/2000/svg">
<path d="M14.4639 5.625C14.4639 2.52372 11.9402 0 8.83887 0C5.73758 0 3.21387 2.52372 3.21387 5.625C3.21387 8.72628 5.73758 11.25 8.83887 11.25C11.9402 11.25 14.4639 8.72628 14.4639 5.625Z" fill="#F6B93B"/>
<path d="M1.60714 20.8929H16.0714C16.959 20.8929 17.6786 20.1733 17.6786 19.2857V17.6786C17.6786 14.1339 14.7947 11.25 11.25 11.25H8.83929H6.42857C2.88391 11.25 0 14.1339 0 17.6786V19.2857C0 20.1733 0.719605 20.8929 1.60714 20.8929Z" fill="#F6B93B"/>
<path d="M11.25 35.3572H8.83929H6.42857C2.88391 35.3572 0 38.2411 0 41.7857V43.3929C0 44.2804 0.719605 45 1.60714 45H16.0714C16.959 45 17.6786 44.2804 17.6786 43.3929V41.7857C17.6786 38.2411 14.7947 35.3572 11.25 35.3572Z" fill="#F6B93B"/>
<path d="M14.4639 29.7322C14.4639 26.6309 11.9402 24.1072 8.83887 24.1072C5.73758 24.1072 3.21387 26.6309 3.21387 29.7322C3.21387 32.8335 5.73758 35.3572 8.83887 35.3572C11.9402 35.3572 14.4639 32.8335 14.4639 29.7322Z" fill="#F6B93B"/>
<path d="M31.3394 20.8928H21.6966C19.4813 20.8928 17.6787 22.6954 17.6787 24.9107V29.7321C17.6787 31.9474 19.4813 33.75 21.6966 33.75H22.5001V37.7678C22.5001 38.0927 22.6955 38.3862 22.9961 38.5102C23.0958 38.5518 23.2001 38.5714 23.3037 38.5714C23.5125 38.5714 23.7181 38.4898 23.8719 38.336L28.4579 33.75H31.3394C33.5547 33.75 35.3573 31.9474 35.3573 29.7321V24.9107C35.3573 22.6954 33.5547 20.8928 31.3394 20.8928Z" fill="#F6B93B"/>
<path d="M40.1784 8.03582H21.5582L22.029 7.56498C22.6568 6.93719 22.6568 5.92017 22.029 5.29238C21.4012 4.66459 20.3842 4.66459 19.7564 5.29238L16.5421 8.50666C15.9143 9.13445 15.9143 10.1515 16.5421 10.7793L19.7564 13.9935C20.0703 14.3074 20.4815 14.4644 20.8927 14.4644C21.3039 14.4644 21.7151 14.3074 22.029 13.9935C22.6568 13.3658 22.6568 12.3487 22.029 11.7209L21.5582 11.2501H40.1784C41.0644 11.2501 41.7856 11.9713 41.7856 12.8572V24.1072C41.7856 24.9932 41.0644 25.7144 40.1784 25.7144H36.9641V28.9287H40.1784C42.8371 28.9287 44.9999 26.7659 44.9999 24.1072V12.8572C44.9999 10.1986 42.8371 8.03582 40.1784 8.03582Z" fill="#F6B93B"/>
</svg>
